<?xml version="1.0" standalone="no"?>
<!DOCTYPE svg PUBLIC "-//W3C//DTD SVG 1.1//EN" "http://www.w3.org/Graphics/SVG/1.1/DTD/svg11.dtd" >
<svg xmlns="http://www.w3.org/2000/svg" xmlns:xlink="http://www.w3.org/1999/xlink" version="1.1">
<metadata></metadata>
<defs>
<font id="rubrik_medium_italicregular" horiz-adv-x="1263" >
<font-face units-per-em="2048" ascent="1608" descent="-440" />
<missing-glyph horiz-adv-x="512" />
<glyph unicode="&#xfb01;" horiz-adv-x="1400" d="M113 942q0 38 29.5 65t72.5 27h78l14 84q62 361 395 361q95 0 191 -41q59 -35 59 -84q0 -40 -25.5 -69.5t-66.5 -29.5q-12 0 -73 13.5t-93 13.5q-152 0 -182 -176l-10 -72h235q44 0 72.5 -27.5t28.5 -66.5q0 -41 -30 -67.5t-73 -26.5h-260l-125 -756q-7 -47 -35.5 -72.5 t-70.5 -25.5q-54 0 -82.5 37t-20.5 94l121 723h-49q-46 0 -73 27t-27 69zM922 123l145 866q15 101 104 101q53 0 82 -38t21 -96l-144 -866q-15 -98 -106 -98q-54 0 -82 36.5t-20 94.5zM1118 1362q0 55 36.5 92t92.5 37q49 0 81 -32.5t32 -82.5q0 -52 -36.5 -91.5 t-90.5 -39.5q-50 0 -82.5 33.5t-32.5 83.5z" />
<glyph horiz-adv-x="0" />
<glyph horiz-adv-x="682" />
<glyph unicode=" "  horiz-adv-x="512" />
<glyph unicode="&#x09;" horiz-adv-x="512" />
<glyph unicode="&#xa0;" horiz-adv-x="512" />
<glyph unicode="!" horiz-adv-x="485" d="M51 84l23 141q6 42 34.5 68t69.5 26q43 0 68.5 -29.5t19.5 -70.5l-22 -141q-6 -42 -34 -68t-69 -26q-43 0 -69.5 29.5t-20.5 70.5zM137 569l113 760q7 52 39.5 81.5t75.5 29.5q52 0 80 -35t18 -90l-139 -752q-15 -92 -97 -92q-42 0 -69 29.5t-21 68.5z" />
<glyph unicode="&#x22;" horiz-adv-x="784" d="M184 1036l52 314q6 42 34.5 68t69.5 26q43 0 69.5 -30t20.5 -71l-53 -317q-18 -94 -103 -94q-44 0 -71 31.5t-19 72.5zM504 1036l51 314q6 42 34.5 68t69.5 26q44 0 71 -30t20 -71l-54 -317q-18 -94 -100 -94q-44 0 -71 30.5t-21 73.5z" />
<glyph unicode="#" horiz-adv-x="1337" d="M16 485q0 45 34 74t89 29h158l139 282h-96q-37 0 -64.5 27t-27.5 64q0 45 33 73.5t88 28.5h161l158 319q34 70 96 70q52 0 74 -38.5t-2 -92.5l-127 -258h209l156 319q34 70 98 70q52 0 74 -38.5t-2 -92.5l-129 -258h84q46 0 74 -26t28 -64q0 -44 -32 -73.5t-87 -29.5 h-158l-139 -282h86q46 0 73.5 -24.5t27.5 -63.5q0 -46 -32.5 -75.5t-88.5 -29.5h-162l-172 -344q-34 -69 -92 -69q-51 0 -77 40.5t-1 92.5l141 280h-205l-172 -344q-34 -69 -90 -69q-55 0 -80 42t0 91l142 280h-92q-38 0 -66.5 27.5t-28.5 62.5zM498 588h204l140 282h-205z " />
<glyph unicode="$" horiz-adv-x="1208" d="M25 272q0 44 30 75.5t76 31.5q33 0 86 -35q163 -111 363 -111q120 2 196 54t76 141q0 50 -41 88q-37 37 -88 57q-46 18 -156 56q-202 66 -302.5 156.5t-100.5 236.5q0 169 143 276q147 110 320 113l18 102q15 103 100 103q47 0 73 -29.5t18 -73.5l-19 -108 q189 -38 266 -115q33 -30 33.5 -73t-28.5 -74t-74 -31q-24 0 -76 25q-117 69 -266 69q-119 0 -201 -52.5t-82 -133.5q0 -79 86 -127q66 -34 201 -80q113 -34 221 -92q174 -92 182 -295q0 -166 -139 -281q-135 -112 -352 -118l-19 -121q-7 -42 -34.5 -65t-65.5 -23 q-42 0 -69.5 29.5t-20.5 72.5l22 123q-85 12 -186 55q-98 43 -156 95q-34 34 -34 79z" />
<glyph unicode="%" horiz-adv-x="1595" d="M98 1038q2 32 15 119q26 137 118.5 217t225.5 80t217 -84q86 -83 80 -215q-3 -52 -19 -129q-31 -142 -113 -218.5t-206 -76.5q-151 0 -238.5 86t-79.5 221zM248 268q0 43 37 80l911 887q38 35 76 35q37 0 64.5 -26t27.5 -62q0 -44 -37 -78l-911 -891q-38 -35 -78 -35 q-37 0 -63.5 26.5t-26.5 63.5zM260 1038q-5 -68 37 -108.5t115 -40.5q61 0 102 40t55 109q15 68 17 107q6 66 -30.5 107.5t-102.5 41.5q-63 0 -111.5 -40.5t-65.5 -108.5q-11 -53 -16 -107zM848 293q2 42 14 119q26 137 118.5 217t225.5 80t217 -84q86 -83 80 -215 q-3 -58 -18 -129q-31 -142 -113.5 -218.5t-206.5 -76.5q-151 0 -238 86t-79 221zM1010 293q-5 -68 36.5 -109t114.5 -41q61 0 102.5 40.5t55.5 109.5q14 63 16 106q6 66 -30.5 108t-102.5 42q-63 0 -111 -41t-65 -109q-11 -54 -16 -106z" />
<glyph unicode="&#x26;" horiz-adv-x="1400" d="M55 360q0 144 82 239t244 161l-80 86q-32 39 -59 103.5t-27 125.5q0 156 123 264q124 109 309 109q200 0 326 -102q129 -102 129 -256q0 -126 -88 -223t-281 -181l256 -227l33 59q39 77 63.5 103t61.5 26q58 0 84.5 -42.5t-0.5 -115.5q-37 -87 -88 -167l164 -144 q36 -31 41.5 -72t-23.5 -77q-30 -36 -72.5 -40.5t-78.5 25.5l-160 148q-188 -182 -469 -182q-203 0 -344 106q-146 109 -146 274zM270 365q0 -82 76.5 -132.5t200.5 -50.5q177 0 313 121l-332 305q-76 -28 -122 -53q-55 -27 -95.5 -79t-40.5 -111zM434 1053q0 -94 139 -224 q318 109 318 254q0 65 -61.5 115.5t-155.5 50.5q-110 0 -175 -56t-65 -140z" />
<glyph unicode="'" horiz-adv-x="477" d="M195 1036l51 314q6 42 34.5 68t69.5 26q44 0 70.5 -30t19.5 -71l-53 -317q-18 -94 -100 -94q-44 0 -71 30.5t-21 73.5z" />
<glyph unicode="(" horiz-adv-x="698" d="M119 510q0 319 127 599t370 482q47 35 86 35q40 0 71.5 -28t31.5 -68q0 -49 -55 -98q-127 -121 -191 -207q-231 -311 -231 -725q0 -196 61 -379q64 -179 148 -305q24 -44 24 -78q0 -41 -32.5 -70.5t-75.5 -29.5q-55 0 -84 45q-250 355 -250 827z" />
<glyph unicode=")" horiz-adv-x="720" d="M-111 -266q0 48 56 98q123 118 190 207q232 312 232 725q0 197 -64 377q-60 181 -145 307q-25 45 -25 78q0 41 33 70.5t76 29.5q55 0 84 -45q249 -354 249 -829q0 -318 -127 -598.5t-370 -481.5q-46 -34 -86 -34t-71.5 28t-31.5 68z" />
<glyph unicode="*" horiz-adv-x="782" d="M94 905q-17 30 1 63.5t57 47.5l182 78l-154 84q-33 14 -43 48t13 64q20 29 53.5 31t62.5 -23l140 -108l12 184q-1 44 20.5 71.5t57.5 27.5q41 0 60.5 -30.5t6.5 -74.5l-45 -178l166 108q32 25 68.5 17.5t50.5 -39.5q14 -31 -3.5 -63.5t-58.5 -45.5l-180 -84l152 -77 q35 -13 45 -46t-10 -65q-20 -26 -51.5 -30t-63.5 20l-141 106l-15 -184q1 -46 -20 -70t-58 -24q-39 0 -59.5 27t-7.5 69l45 182l-164 -106q-26 -21 -64 -15.5t-55 35.5z" />
<glyph unicode="+" d="M109 717q0 44 30.5 73t75.5 29h315v316q0 43 30 73.5t71 30.5q44 0 73 -30.5t29 -73.5v-316h311q45 0 76 -29t31 -73q0 -42 -32 -72.5t-75 -30.5h-311v-315q0 -45 -29 -75.5t-73 -30.5q-41 0 -71 31.5t-30 74.5v315h-315q-44 0 -75 30t-31 73z" />
<glyph unicode="," horiz-adv-x="468" d="M23 -139q0 32 32 67q53 59 68 135l22 134q7 43 35.5 67.5t65.5 24.5q43 0 69 -31t19 -80l-19 -110q-13 -81 -34.5 -129.5t-63.5 -96.5q-51 -63 -106 -63q-37 0 -62.5 23.5t-25.5 58.5z" />
<glyph unicode="-" horiz-adv-x="673" d="M84 586q0 47 34.5 78.5t84.5 31.5h274q50 0 81.5 -30t31.5 -72q0 -49 -35.5 -81t-85.5 -32h-272q-53 0 -83 29.5t-30 75.5z" />
<glyph unicode="." horiz-adv-x="518" d="M109 82l26 158q6 41 35.5 67.5t67.5 26.5q44 0 70 -30t18 -73l-25 -157q-7 -43 -35.5 -68.5t-66.5 -25.5q-43 0 -69.5 30.5t-20.5 71.5z" />
<glyph unicode="/" horiz-adv-x="706" d="M14 82l529 1343q30 74 106 74q56 0 84.5 -46t5.5 -103l-526 -1344q-31 -72 -104 -72q-56 0 -87 45t-8 103z" />
<glyph unicode="0" horiz-adv-x="1372" d="M145 580q11 156 48 344q47 254 192.5 391t366.5 137q263 0 403 -168q141 -169 123 -407q-16 -173 -55 -367q-50 -254 -190 -391t-353 -137q-266 0 -410 172q-143 174 -125 426zM352 571q-15 -182 76 -286q92 -103 238 -103q143 0 229.5 92t118.5 261q43 212 51 327 q15 170 -74 279q-85 108 -241 108q-278 0 -349 -350q-40 -189 -49 -328z" />
<glyph unicode="1" horiz-adv-x="940" d="M125 1104q0 68 78 106l389 207q54 31 84 31q49 0 75.5 -34.5t16.5 -92.5l-205 -1219q-21 -110 -104 -110q-51 0 -82.5 35t-24.5 88l174 1036l-243 -129q-29 -16 -60 -16q-39 0 -68.5 28t-29.5 70z" />
<glyph unicode="2" horiz-adv-x="1193" d="M25 139q0 132 93 244.5t275 232.5l142 89l141 88q74 52 106 77q109 90 109 185q0 86 -58.5 138t-160.5 52q-144 0 -293 -137q-55 -49 -100 -49q-43 0 -72 26.5t-29 67.5q0 47 39 92q77 92 200 151.5t257 59.5q192 0 311 -110q121 -109 121 -281q0 -66 -25.5 -132.5 t-60.5 -115.5q-25 -36 -105 -100q-65 -54 -110 -84l-131 -82l-49 -31q-190 -118 -263 -176q-75 -60 -96 -131h617q47 0 76.5 -28.5t29.5 -71.5q0 -49 -37.5 -81t-93.5 -32h-704q-64 0 -96.5 38t-32.5 101z" />
<glyph unicode="3" horiz-adv-x="1183" d="M27 98q0 48 32 79.5t86 31.5q7 0 41.5 -1t49.5 -1q185 0 368 63q97 36 155 103.5t58 152.5q0 92 -65.5 148.5t-173.5 56.5q-24 0 -70 -6q-12 -1 -26 -2t-22 -1.5t-11 -0.5q-30 0 -55 13t-38 35.5t-1 57.5t53 74l354 318l-2 6h-490q-44 0 -73 29.5t-29 72.5q0 45 35.5 78 t85.5 33h665q55 0 90 -30t35 -79q0 -71 -61 -123l-342 -303q159 -13 256.5 -114.5t97.5 -249.5q0 -119 -51.5 -216t-140.5 -161q-81 -57 -201 -99q-208 -69 -469 -69q-141 0 -141 104z" />
<glyph unicode="4" horiz-adv-x="1329" d="M31 457q0 62 65 133l711 760q88 98 176 98q66 0 102.5 -49t24.5 -121l-127 -737h123q49 0 76.5 -25t27.5 -67q0 -46 -37 -80.5t-96 -34.5h-129l-37 -230q-18 -112 -110 -112q-49 0 -78.5 34t-22.5 87l37 221h-553q-71 0 -112 34t-41 89zM305 541h465l109 610z" />
<glyph unicode="5" horiz-adv-x="1222" d="M27 102q0 46 32 77.5t76 31.5q10 0 50.5 -2t58.5 -2q156 0 295 37t243 121q103 83 103 200q0 92 -61 145.5t-175 53.5q-108 0 -293 -84q-78 -38 -137 0q-60 41 -45 123l80 487q24 148 172 148h618q44 0 73.5 -28.5t29.5 -70.5q0 -49 -39 -81.5t-96 -32.5h-557l-56 -334 q143 61 291 61q184 0 297 -104t113 -268q0 -152 -77 -270t-214 -187q-259 -131 -614 -131q-31 0 -66 6q-38 7 -70 35t-32 69z" />
<glyph unicode="6" horiz-adv-x="1341" d="M119 535q0 384 184 641q94 133 249 206.5t353 73.5q173 0 252 -33q66 -28 66 -86q0 -48 -31.5 -77t-85.5 -29q-16 0 -86 6q-63 8 -119 8q-202 0 -337 -98t-185 -291q152 70 319 70q212 0 340 -125q129 -126 129 -309q0 -224 -139 -369q-137 -143 -366 -143 q-244 0 -394 147q-149 149 -149 408zM330 524q4 -168 89.5 -252t235.5 -84q134 0 214.5 81.5t80.5 217.5q0 112 -72 180t-200 68q-174 0 -338 -92q-10 -65 -10 -119z" />
<glyph unicode="7" horiz-adv-x="1079" d="M123 1327q0 49 35.5 80t89.5 31h762q62 0 98.5 -29t36.5 -80q0 -53 -41 -106q-292 -370 -465 -637q-169 -261 -283 -506q-40 -88 -110 -88q-61 0 -90.5 44t-5.5 105q102 237 256 477q148 231 438 607h-619q-44 0 -73 30t-29 72z" />
<glyph unicode="8" horiz-adv-x="1372" d="M111 395q0 125 75 228q73 103 224 139q-85 41 -132 114.5t-47 161.5q0 199 148 308q146 110 354 110q241 0 379 -106q143 -104 143 -260q0 -126 -68 -218t-194 -127q97 -46 155 -131t58 -194q0 -203 -157 -324q-155 -116 -390 -116q-240 0 -395 110q-153 114 -153 305z M334 393q0 -103 85.5 -157t235.5 -54q138 0 232 64q96 66 96 192q0 102 -82 158.5t-229 56.5q-152 0 -245 -68t-93 -192zM442 1028q0 -89 79 -141.5t206 -52.5q143 0 230 61.5t87 165.5q0 87 -78.5 143t-207.5 56t-223 -58q-93 -56 -93 -174z" />
<glyph unicode="9" horiz-adv-x="1333" d="M111 98q0 43 33.5 71.5t82.5 27.5q287 -10 474 85.5t253 282.5q-103 -53 -286 -53q-218 0 -361 125q-141 126 -141 326q0 215 145 354q148 139 375 139q241 0 389 -145t148 -400q0 -448 -245.5 -683.5t-727.5 -235.5q-139 0 -139 106zM383 952q0 -113 82 -182.5 t227 -69.5q171 0 312 84q6 46 6 95q0 184 -84.5 276t-235.5 92q-135 0 -221 -82.5t-86 -212.5z" />
<glyph unicode=":" horiz-adv-x="518" d="M88 84l25 147q6 41 35 69t67 28q44 0 70 -30t20 -73l-24 -147q-6 -42 -33 -68t-68 -26q-44 0 -71 29.5t-21 70.5zM211 786l25 148q6 43 33.5 68.5t68.5 25.5q43 0 69 -30t19 -72l-23 -146q-8 -43 -35 -69.5t-67 -26.5q-43 0 -69.5 30.5t-20.5 71.5z" />
<glyph unicode=";" horiz-adv-x="532" d="M12 -139q0 31 33 67q53 59 68 135l22 134q7 43 35.5 67.5t65.5 24.5q43 0 69 -31t19 -80l-19 -110q-13 -81 -34.5 -129.5t-63.5 -96.5q-51 -63 -107 -63q-37 0 -62.5 23.5t-25.5 58.5zM231 786l25 148q6 41 35 67.5t67 26.5q44 0 70.5 -29.5t20.5 -72.5l-25 -146 q-6 -42 -33 -69t-67 -27q-44 0 -71.5 30.5t-21.5 71.5z" />
<glyph unicode="&#x3c;" d="M203 716.5q0 82.5 86 151.5l559 457q31 25 67 25q39 0 70 -30t31 -71q0 -49 -39 -82l-508 -411q-26 -23 -26 -39t26 -39l510 -412q39 -33 39 -82q0 -41 -29.5 -70.5t-70.5 -29.5q-37 0 -68 25l-561 456q-86 69 -86 151.5z" />
<glyph unicode="=" d="M127 516q0 44 30 73t74 29h801q47 0 77 -29t30 -73q0 -42 -32 -72t-75 -30h-801q-44 0 -74 29.5t-30 72.5zM127 920q0 44 30 73t74 29h801q45 0 76 -29t31 -73q0 -42 -32 -72.5t-75 -30.5h-801q-44 0 -74 30t-30 73z" />
<glyph unicode="&#x3e;" d="M256 184q0 49 39 82l508 412q51 39 0 78l-508 411q-39 33 -39 82q0 41 29.5 71t70.5 30q32 0 68 -25l561 -457q85 -68 85 -152t-85 -151l-561 -456q-31 -25 -66 -25q-39 0 -70.5 30t-31.5 70z" />
<glyph unicode="?" horiz-adv-x="1148" d="M178 1161q0 45 39 90q76 89 193 145t239 56q175 0 295 -111q121 -112 121 -272q0 -183 -129.5 -313t-390.5 -230q-38 -14 -64 -14q-45 0 -71.5 29t-26.5 69q0 69 94 109l55 22q74 30 142 66q43 22 67.5 42.5t59.5 57.5q57 57 57 146q0 90 -53.5 144t-151.5 54 q-129 0 -286 -139q-51 -45 -97 -45q-40 0 -66 27.5t-26 66.5zM309 84l23 139q6 43 33.5 69.5t68.5 26.5q44 0 70 -30t20 -72l-24 -139q-6 -42 -33 -68t-68 -26q-43 0 -70 29.5t-20 70.5z" />
<glyph unicode="@" horiz-adv-x="1753" d="M109 406q13 182 51 354q70 346 286 516q218 170 515 170q359 0 567 -227q209 -229 151 -562l-43 -247q-23 -133 -101.5 -206t-186.5 -73q-142 0 -218 88q-74 86 -53 211l31 176q18 98 -34 158.5t-146 60.5q-88 0 -144.5 -56.5t-74.5 -170.5l-17 -109 q-17 -113 19.5 -158.5t126.5 -45.5q23 0 60.5 6t41.5 6q30 0 50 -20t20 -50q0 -47 -39 -73q-51 -31 -156 -31q-157 0 -241 98.5t-60 267.5l21 134q59 381 397 381q177 0 278 -113q104 -110 74 -281l-33 -188q-10 -57 16 -88t70 -31q93 0 111 105l47 270q46 255 -111 420 q-156 164 -421 164q-222 0 -390 -136q-163 -135 -219 -378q-38 -157 -53 -353q-26 -264 101.5 -398t385.5 -134q106 0 234 45q59 19 96 -6t37 -72q0 -63 -78 -98q-117 -54 -291 -54q-161 -2 -292 45t-222 138t-134.5 230.5t-28.5 314.5z" />
<glyph unicode="A" horiz-adv-x="1357" d="M-12 43q-14 25 -14 51q0 29 16 60l590 1128q91 178 254 178q81 0 138 -49.5t75 -144.5l213 -1125q4 -19 4 -37q0 -38 -18 -68q-26 -44 -85 -44q-93 0 -114 104l-66 350h-600l-197 -380q-41 -74 -106 -74q-62 0 -90 51zM471 631h481l-104 573q-6 37 -37 37q-30 0 -47 -39z " />
<glyph unicode="B" horiz-adv-x="1361" d="M117 158l186 1124q27 158 184 158h347q209 0 326.5 -90.5t117.5 -249.5q0 -120 -57.5 -212.5t-167.5 -135.5v-4q174 -82 174 -297q0 -206 -148 -330q-148 -121 -381 -121h-452q-72 0 -106 43q-26 32 -26 80q0 16 3 35zM330 201h370q139 0 227.5 68t88.5 188 q0 92 -60.5 149.5t-158.5 57.5h-391zM434 834h324q136 0 219.5 60.5t83.5 164.5q0 180 -250 180h-307z" />
<glyph unicode="C" horiz-adv-x="1339" d="M111 569q6 193 71 400q75 239 233 365t386 126q180 0 313 -86t180 -219q21 -55 21 -82q0 -45 -29.5 -76.5t-75.5 -31.5q-75 0 -110 77q-41 103 -120 157t-183 54q-156 0 -261.5 -101.5t-154.5 -283.5q-48 -176 -51 -311q0 -11 -1 -22q0 -155 82 -249q87 -100 259 -100 q222 0 331 220q40 75 105 75q43 0 74.5 -27.5t31.5 -70.5q0 -20 -16 -70q-62 -139 -190 -237q-129 -99 -324 -99q-271 0 -428 160q-144 150 -144 394q0 19 1 38z" />
<glyph unicode="D" horiz-adv-x="1427" d="M117 160l188 1122q24 158 180 158h273q316 0 471 -168q141 -153 141 -390q0 -27 -2 -55q-9 -129 -39 -268q-71 -292 -256.5 -425.5t-499.5 -133.5h-329q-68 0 -104 44q-27 33 -26 81q0 17 3 35zM338 201h244q234 0 358.5 93.5t175.5 309.5q25 115 33 205q4 36 4 69 q-1 152 -87 246q-106 115 -310 115h-246z" />
<glyph unicode="E" horiz-adv-x="1251" d="M131 168l186 1114q21 158 183 158h655h11q58 0 82 -48q13 -25 13 -50q-1 -27 -15 -55q-26 -48 -82 -48h-11h-631l-71 -422h567q43 0 71.5 -27.5t28.5 -66.5q0 -41 -29.5 -67.5t-72.5 -26.5h-594l-72 -428h621q49 0 77.5 -29t28.5 -74q0 -43 -31.5 -70.5t-78.5 -27.5h-705 q-135 0 -135 123q0 20 4 45z" />
<glyph unicode="F" horiz-adv-x="1185" d="M111 121l194 1163q27 156 182 156h646q48 0 77 -28.5t29 -72.5q0 -42 -33 -73t-78 -31h-618l-76 -455h559h7q58 0 82 -48q12 -25 13 -48q0 -26 -14 -52q-25 -46 -81 -46h-9h-590l-82 -492q-18 -102 -106 -102q-54 0 -82 36q-22 28 -22 69q0 11 2 24z" />
<glyph unicode="G" horiz-adv-x="1398" d="M109 553q9 218 71 422q72 236 227.5 360.5t380.5 124.5q176 0 307.5 -79t186.5 -210q18 -47 18 -75q0 -49 -28.5 -80t-73.5 -31q-67 0 -94 64q-82 202 -313 202q-307 0 -408 -358q-41 -136 -57 -328q-2 -22 -2 -42q0 -148 82 -240q93 -105 260 -105q148 0 242.5 76 t123.5 219l21 100h-234q-45 0 -75.5 27.5t-30.5 69.5q0 44 32.5 73t85.5 29h314q65 0 97 -34q27 -28 27 -76q0 -7 -1 -15q-6 -72 -23 -170q-41 -214 -180 -356q-141 -144 -393 -144q-261 0 -418 160q-145 148 -145 388v28z" />
<glyph unicode="H" horiz-adv-x="1527" d="M111 121l204 1225q7 46 36.5 74t68.5 28q54 0 83 -38q22 -28 22 -68q0 -14 -3 -29l-82 -490h717l86 523q7 46 36.5 74t68.5 28q54 0 83 -38q22 -28 22 -68q0 -14 -3 -29l-203 -1221q-15 -100 -106 -100q-53 0 -82 36q-23 29 -23 70q0 11 2 23l84 493h-714l-89 -520 q-15 -102 -106 -102q-54 0 -82 36q-22 28 -22 69q0 11 2 24z" />
<glyph unicode="I" horiz-adv-x="600" d="M113 123l204 1223q7 46 36.5 74t68.5 28q54 0 83 -38q22 -28 21 -68q0 -14 -2 -29l-202 -1221q-7 -46 -37.5 -73t-69.5 -27q-54 0 -83 37q-22 28 -22 66q0 13 3 28z" />
<glyph unicode="J" horiz-adv-x="1017" d="M-45 281q0 46 30 76t72 30q68 0 95 -61q65 -133 200 -133q190 0 230 239l147 911q15 105 107 105q51 0 80 -38q23 -28 23 -66q0 -13 -3 -27l-143 -903q-32 -215 -145.5 -326t-293.5 -111q-135 0 -234.5 63.5t-146.5 162.5q-18 47 -18 78z" />
<glyph unicode="K" horiz-adv-x="1320" d="M111 121l204 1222q7 49 36 77t71 28q50 0 80 -38q22 -28 23 -66q0 -13 -3 -27l-80 -475h41q34 0 56 9.5t57 43.5l530 508q46 43 95 43q39 0 67.5 -27t28.5 -65q0 -53 -47 -94l-568 -529l439 -561q18 -27 22.5 -58.5t-4.5 -58t-33.5 -44t-60.5 -17.5q-60 0 -94 51 l-416 541q-24 31 -44.5 40t-59.5 9h-43l-89 -541q-7 -46 -37 -73t-69 -27q-53 0 -81 36q-22 28 -23 69q0 12 2 24z" />
<glyph unicode="L" horiz-adv-x="1103" d="M117 160l196 1183q18 105 107 105q54 0 83 -38q22 -28 22 -68q0 -14 -3 -29l-186 -1112h616q50 0 78.5 -29t28.5 -74q0 -42 -32 -70t-77 -28h-702q-75 0 -109 42q-25 31 -25 81q0 17 3 37z" />
<glyph unicode="M" horiz-adv-x="1843" d="M39 129l336 1122q62 209 229 209q81 0 136 -58t61 -153l61 -985q3 -18 17 -18q16 0 22 18l387 993q80 203 230 203q84 0 136 -60q50 -58 50 -150v-7l-31 -1137q-3 -114 -112 -114q-44 0 -74 32t-29 82l43 1088q0 23 -16 23q-14 0 -23 -21l-411 -1044q-62 -160 -201 -160 q-70 0 -116 50.5t-52 137.5l-70 1016q-3 21 -18 21q-20 0 -23 -23l-325 -1116q-11 -38 -41 -62t-68 -24q-57 0 -86 40q-18 25 -18 57q0 19 6 40z" />
<glyph unicode="N" horiz-adv-x="1570" d="M111 121l192 1143q17 92 64 138t116 46q73 -5 106.5 -37t61.5 -96l459 -1047h4q20 180 68 467l102 611q7 49 36 75.5t71 26.5q54 0 83 -38q22 -28 22 -68q0 -14 -3 -29l-193 -1135q-34 -186 -178 -186q-116 0 -168 125l-456 1063h-4q-17 -130 -64 -424l-111 -662 q-18 -102 -106 -102q-54 0 -82 36q-22 28 -22 69q0 11 2 24z" />
<glyph unicode="O" horiz-adv-x="1435" d="M121 606q12 136 39 281q53 266 219 418q168 155 430 155q275 0 438 -178q140 -151 140 -372q0 -33 -3 -68q-13 -163 -38 -289q-51 -274 -218.5 -425t-418.5 -151q-263 0 -439 173q-153 150 -153 383q0 35 4 73zM336 596q-2 -25 -2 -49q0 -167 92 -256q108 -105 274 -105 q160 0 267 93t149 262q34 135 49 311q2 22 2 43q0 146 -90 244q-100 112 -278 112q-154 0 -266.5 -102t-153.5 -281q-34 -146 -43 -272z" />
<glyph unicode="P" horiz-adv-x="1320" d="M111 121l196 1173q12 68 54.5 107t109.5 39h350q233 0 361 -119q131 -119 131 -293q0 -214 -152 -366q-151 -148 -413 -148h-359l-70 -420q-18 -102 -106 -102q-54 0 -82 36q-22 28 -22 69q0 11 2 24zM424 721h321q156 0 250.5 77t94.5 216q0 104 -73.5 164.5 t-205.5 60.5h-299z" />
<glyph unicode="Q" horiz-adv-x="1445" d="M125 606q11 129 37 271q52 272 222 427.5t429 155.5q275 0 438 -178q141 -152 141 -373q0 -33 -3 -67q-11 -118 -39 -289q-53 -282 -226 -426l125 -190q21 -30 21 -58q0 -38 -27 -65t-67 -27q-52 0 -78 39l-137 201q-115 -50 -252 -50q-257 0 -433 170q-154 151 -154 391 q0 33 3 68zM340 596q-3 -29 -3 -56q0 -164 95 -251q115 -103 273 -103q76 0 131 19l-158 239q-21 30 -21 62q0 38 26.5 65t66.5 27q55 0 81 -45l166 -252q89 99 123 240q34 135 49 311q2 22 2 43q0 146 -90 244q-100 112 -278 112q-154 0 -266.5 -102t-153.5 -281 q-29 -140 -43 -272z" />
<glyph unicode="R" horiz-adv-x="1386" d="M111 123l196 1171q11 67 56.5 106.5t113.5 39.5h342q226 0 359 -115q135 -114 135 -299q0 -170 -102 -290.5t-300 -166.5l258 -405q23 -38 23 -72q0 -42 -29.5 -72t-75.5 -30q-60 0 -100 63l-272 434q-27 39 -43 50.5t-58 15.5h-219l-76 -459q-18 -102 -106 -102 q-54 0 -82 36q-22 28 -22 70q0 12 2 25zM426 737h322q162 0 253 76t91 201q0 108 -75.5 166.5t-211.5 58.5h-295z" />
<glyph unicode="S" horiz-adv-x="1286" d="M31 246q0 43 29.5 72.5t72.5 29.5q44 0 109 -47q59 -43 166 -82q107 -35 206 -35q131 0 217.5 60t86.5 155q0 77 -61.5 124t-199.5 93q-103 33 -171.5 65t-139.5 81q-145 103 -145 287q0 187 145 299q141 112 359 112q265 0 442 -119q70 -43 70 -106q0 -44 -28.5 -74.5 t-74.5 -30.5q-41 0 -92 31q-149 90 -326 90q-127 0 -201.5 -58t-74.5 -146q0 -74 65.5 -122.5t210.5 -95.5q216 -71 328 -161q113 -88 113 -254q0 -196 -144 -316q-145 -121 -381 -121q-164 0 -315 56t-221 123q-45 39 -45 90z" />
<glyph unicode="T" horiz-adv-x="1189" d="M90 1341q0 42 32 70.5t77 28.5h972h11q58 0 82 -48q13 -25 13 -50q-1 -27 -15 -55q-26 -48 -82 -48h-11h-393l-192 -1145q-18 -102 -107 -102q-54 0 -82 36q-22 28 -22 69q0 12 2 24l190 1118h-368q-48 0 -77.5 29t-29.5 73z" />
<glyph unicode="U" horiz-adv-x="1462" d="M176 674l115 672q15 102 104 102q53 0 83 -38q22 -28 23 -67q0 -13 -3 -28l-113 -672q-12 -71 -12 -130q0 -145 71 -220q103 -109 289 -109q148 0 249.5 106.5t133.5 297.5l125 758q7 46 37.5 74t69.5 28q54 0 83 -38q22 -28 22 -68q0 -14 -3 -29l-123 -744 q-50 -301 -203 -446.5t-389 -145.5q-261 0 -434 162q-87 84 -121 223q-18 74 -18 157q0 74 14 155z" />
<glyph unicode="V" horiz-adv-x="1361" d="M147 1296q-4 19 -4 36q0 40 21 72q30 44 94 44q40 0 71 -27t38 -73l208 -1125q3 -18 19 -18q11 0 20 18l590 1139q47 86 113 86q47 0 77.5 -30t30.5 -75q0 -35 -18 -69l-594 -1118q-50 -94 -105 -136.5t-130 -42.5q-79 0 -133.5 51.5t-73.5 143.5z" />
<glyph unicode="W" horiz-adv-x="1902" d="M162 1311q-1 62 30.5 99.5t79.5 37.5q44 0 76 -30.5t33 -78.5l49 -1118q0 -11 7 -11.5t12 9.5l421 1065q65 164 193 164q69 0 114 -49.5t52 -138.5l82 -1041q1 -7 5.5 -9.5t9 0t5.5 9.5l412 1131q34 98 112 98q49 0 79 -28.5t30 -71.5q0 -25 -10 -52l-445 -1161 q-59 -158 -188 -158q-78 0 -131 50t-60 141l-81 1030q0 6 -5.5 7t-9.5 -5l-428 -1065q-65 -158 -190 -158q-77 0 -130.5 53.5t-58.5 129.5z" />
<glyph unicode="X" horiz-adv-x="1376" d="M-35 96q0 46 43 92l524 557l-319 525q-20 33 -20 71q0 43 29 75t75 32q65 0 106 -66l297 -487l480 508q45 45 98 45q42 0 71 -29t29 -73q0 -49 -43 -95l-518 -546l330 -535q20 -36 20 -70q0 -46 -30 -77t-80 -31q-62 0 -103 65l-305 498l-473 -506q-51 -57 -106 -57 q-42 0 -73.5 31t-31.5 73z" />
<glyph unicode="Y" horiz-adv-x="1280" d="M86 1339q0 45 32 77t79 32q60 0 100 -64l342 -548l543 569q43 43 92 43q46 0 76 -29t30 -71q0 -54 -43 -97l-557 -571q-54 -61 -63 -105l-80 -481q-15 -102 -105 -102q-54 0 -83 37q-22 28 -22 65q0 13 3 27l76 454q2 11 2 22q0 45 -29 91l-370 580q-23 38 -23 71z" />
<glyph unicode="Z" horiz-adv-x="1214" d="M10 127q0 58 68 135l850 977h-617q-48 0 -77 29t-29 73q0 41 32 70t76 29h777q67 0 103 -32t36 -85q0 -59 -74 -145l-850 -977h653q49 0 78 -29t29 -74q0 -42 -32 -70t-77 -28h-802q-68 0 -106 35t-38 92z" />
<glyph unicode="[" horiz-adv-x="765" d="M23 -236l282 1737q21 121 135 121h369q43 0 68.5 -26.5t25.5 -69.5q0 -50 -34.5 -81.5t-88.5 -31.5h-272l-260 -1560h272q45 0 73 -26.5t28 -68.5q0 -48 -37.5 -82t-91.5 -34h-371q-55 0 -82 33t-16 89z" />
<glyph unicode="\" horiz-adv-x="724" d="M100 1403q-12 52 19.5 95.5t87.5 43.5q37 0 67 -25t37 -63l328 -1417q14 -54 -16.5 -94.5t-85.5 -40.5q-38 0 -69 25t-38 63z" />
<glyph unicode="]" horiz-adv-x="749" d="M-150 -262q0 50 34.5 82.5t88.5 32.5h273l260 1560h-264q-49 0 -79 26.5t-30 69.5q0 50 32.5 81.5t80.5 31.5h387q55 0 82 -32.5t16 -88.5l-282 -1737q-18 -122 -136 -122h-360q-47 0 -75 27t-28 69z" />
<glyph unicode="^" horiz-adv-x="1132" d="M203 809l205 506q58 141 176 141q115 0 174 -145l205 -502q17 -38 -4 -79.5t-62 -53.5q-39 -14 -78 3.5t-49 55.5l-164 451q-9 20 -22 20q-18 0 -27 -20l-162 -451q-10 -38 -49 -55.5t-78 -3.5q-41 12 -61.5 53.5t-3.5 79.5z" />
<glyph unicode="_" horiz-adv-x="946" d="M-10 -236h966v-172h-966v172z" />
<glyph unicode="`" horiz-adv-x="741" d="M270 1780q0 37 24.5 61.5t61.5 24.5q26 0 52 -13l270 -151q47 -27 47 -74q0 -35 -24.5 -58.5t-61.5 -23.5q-33 0 -57 15l-265 143q-47 27 -47 76z" />
<glyph unicode="a" horiz-adv-x="1110" d="M61 324q0 159 115 251q118 95 285 95q159 0 313 -62l17 97q4 25 4 46q-1 67 -39 107q-52 54 -162 53q-59 0 -217 -51q-20 -4 -37 -4q-34 0 -60 16q-38 26 -38 72q0 62 67 96q115 62 309 62q187 0 295 -111q82 -82 82 -217q0 -42 -8 -90l-90 -518q-9 -61 -53 -88 q-143 -98 -357 -98q-201 0 -313 100q-113 101 -113 244zM266 326q0 -75 58 -119.5t161 -44.5q142 0 224 55l36 229q-121 56 -233 56q-107 0 -176.5 -45t-69.5 -131z" />
<glyph unicode="b" horiz-adv-x="1183" d="M115 195l192 1165q15 100 107 100q54 0 82 -36q22 -28 22 -70q0 -12 -2 -25l-47 -285q119 58 227 58q181 0 301 -117q107 -104 106 -290q0 -23 -1 -48q-9 -125 -39 -262q-89 -405 -485 -405q-147 0 -269 43q-123 48 -170 86q-26 20 -26 62q0 11 2 24zM332 236 q117 -54 248 -54q222 0 280 236q32 132 35 235v17q1 102 -55 163q-60 66 -176 66q-104 0 -232 -70z" />
<glyph unicode="c" horiz-adv-x="1114" d="M115 457q11 101 39 237q41 198 167 303t312 105q151 0 258 -68t145 -168q15 -37 15 -67q0 -48 -28 -77.5t-77 -29.5q-68 0 -86 58q-46 149 -235 149q-215 0 -271 -244q-24 -108 -32 -209q-2 -18 -2 -35q0 -97 59 -158q69 -71 190 -71q173 0 232 150q24 59 90 59 q42 0 70 -27t28 -69q0 -17 -10 -55q-31 -97 -135 -179q-103 -81 -279 -81q-201 0 -336 126q-117 109 -117 292q0 29 3 59z" />
<glyph unicode="d" horiz-adv-x="1216" d="M115 457q9 79 39 237q41 195 163 301.5t295 106.5q164 0 299 -72l56 330q15 100 104 100q55 0 83 -37q22 -29 22 -70q0 -12 -2 -24l-193 -1159q-6 -32 -18 -48.5t-43 -35.5q-160 -106 -361 -106q-209 0 -336 124q-111 108 -111 291q0 30 3 62zM322 446q-3 -24 -3 -46 q0 -96 54 -152q66 -66 186 -66q122 0 223 70l95 573q-41 29 -110 51.5t-138 22.5q-219 0 -275 -244q-16 -68 -32 -209z" />
<glyph unicode="e" horiz-adv-x="1118" d="M113 434q3 34 41 248q40 208 171 314t316 106q96 0 177 -28.5t141 -87.5q59 -58 81 -146q11 -44 12 -96q0 -53 -12 -113l-8 -37q-34 -131 -149 -131h-559l-7 -37q-4 -25 -3 -47q0 -85 53 -135q68 -64 202 -64q114 0 232 56q32 14 51 14q42 0 68 -27t26 -69 q0 -60 -72 -101q-134 -73 -309 -73q-221 0 -346 122q-108 108 -108 281q0 25 2 51zM350 629h463q31 0 37 28q8 39 8 73q0 78 -41 124q-58 66 -176 66q-124 0 -194.5 -71t-96.5 -220z" />
<glyph unicode="f" horiz-adv-x="839" d="M113 942q0 38 29.5 65t72.5 27h78l14 84q62 361 395 361q95 0 191 -41q59 -35 59 -84q0 -40 -25.5 -69.5t-66.5 -29.5q-12 0 -73 13.5t-93 13.5q-152 0 -182 -176l-10 -72h235q44 0 72.5 -27.5t28.5 -66.5q0 -41 -30 -67.5t-73 -26.5h-260l-125 -756q-7 -47 -35.5 -72.5 t-70.5 -25.5q-54 0 -82 37q-23 29 -23 70q0 12 2 24l121 723h-49q-46 0 -73 27t-27 69z" />
<glyph unicode="g" horiz-adv-x="1185" d="M55 -199q0 38 27.5 66.5t69.5 28.5q25 0 69 -23q121 -86 254 -86q116 0 188.5 70t92.5 204q-118 -59 -248 -59q-191 0 -301 119q-94 104 -94 271q0 23 2 48q7 90 39 254q41 201 166 304.5t323 103.5q125 0 235.5 -36.5t178.5 -86.5q42 -33 42 -78q0 -8 -1 -16l-137 -836 q-37 -240 -163 -348.5t-339 -108.5q-97 0 -193.5 33.5t-154.5 79.5q-56 41 -56 96zM322 446q-3 -23 -3 -44q0 -91 49 -147q60 -69 181 -69q113 0 237 74l97 584q-101 55 -244 55q-229 0 -285 -244q-25 -121 -32 -209z" />
<glyph unicode="h" horiz-adv-x="1230" d="M111 123l206 1237q15 100 105 100q55 0 84 -37q21 -27 21 -64q0 -14 -3 -30l-53 -309q137 82 297 82q163 0 270 -113q81 -86 82 -231q0 -49 -10 -105l-94 -561q-15 -100 -107 -100q-51 0 -79 36q-22 29 -22 71q0 11 1 22l88 522q6 36 6 66q1 76 -35 121q-50 63 -166 63 q-66 0 -142.5 -32t-125.5 -85l-115 -686q-15 -98 -106 -98q-54 0 -82 36q-22 28 -22 70q0 12 2 25z" />
<glyph unicode="i" horiz-adv-x="595" d="M111 123l145 866q15 101 104 101q53 0 82 -38q23 -30 23 -72q0 -12 -2 -24l-144 -866q-15 -98 -106 -98q-54 0 -82 36q-22 28 -22 70q0 12 2 25zM307 1362q0 55 36.5 92t92.5 37q49 0 81 -32.5t32 -82.5q0 -52 -36.5 -91.5t-90.5 -39.5q-50 0 -82.5 33.5t-32.5 83.5z" />
<glyph unicode="j" horiz-adv-x="593" d="M-166 -289q0 52 49 86q112 76 164.5 160.5t73.5 210.5l135 821q15 101 104 101q53 0 82 -38q23 -30 23 -72q0 -11 -2 -24l-125 -751q-40 -227 -113 -346q-69 -117 -211 -219q-47 -27 -84 -27q-42 0 -69 27t-27 71zM301 1362q0 54 37.5 91.5t93.5 37.5q49 0 80 -32.5 t31 -82.5q0 -53 -35.5 -92t-89.5 -39q-51 0 -84 33.5t-33 83.5z" />
<glyph unicode="k" horiz-adv-x="1118" d="M111 123l206 1237q15 100 105 100q54 0 82 -36q22 -28 22 -70q0 -12 -2 -25l-112 -676h41q36 0 55.5 9.5t52.5 42.5l350 350q39 39 86 39q42 0 70.5 -26t28.5 -67q0 -49 -39 -88l-381 -364l282 -385q31 -39 31 -78q0 -38 -27.5 -66t-70.5 -28q-60 0 -96 51l-269 371 q-30 43 -98 43h-47l-62 -367q-18 -98 -106 -98q-54 0 -82 36q-22 28 -22 70q0 12 2 25z" />
<glyph unicode="l" horiz-adv-x="575" d="M111 123l206 1237q15 100 105 100q54 0 82 -36q22 -28 22 -70q0 -12 -2 -25l-205 -1239q-15 -98 -106 -98q-54 0 -82 36q-22 28 -22 70q0 12 2 25z" />
<glyph unicode="m" horiz-adv-x="1740" d="M90 123l131 784q9 49 62 90q64 44 159.5 74.5t190.5 30.5q203 0 291 -131q158 131 356 131q181 0 279 -119q72 -88 72 -223q0 -48 -9 -103l-94 -565q-15 -100 -107 -100q-53 0 -81 36q-21 28 -21 68q0 12 2 25l88 534q6 35 6 65q0 68 -30 112q-43 62 -142 61 q-114 0 -229 -92q1 -17 0 -34q0 -62 -8 -116l-93 -557q-7 -50 -36 -76t-72 -26q-51 0 -79 36q-22 29 -22 71q0 11 1 22l94 545q6 35 6 64q0 65 -30 105q-44 58 -142 58q-119 0 -211 -62l-123 -741q-15 -98 -106 -98q-55 0 -83 37q-22 29 -22 70q0 12 2 24z" />
<glyph unicode="n" horiz-adv-x="1208" d="M90 123l131 782q8 55 62 90q180 107 399 107q205 0 324 -113q93 -88 93 -239q0 -46 -9 -99l-95 -559q-15 -100 -106 -100q-51 0 -79 36q-23 29 -23 71q0 10 1 22l89 522q6 33 6 62q0 34 -8 62q-14 52 -49 78t-74 37t-86 11q-131 0 -246 -68l-121 -735q-15 -98 -106 -98 q-55 0 -83 37q-22 29 -22 70q0 12 2 24z" />
<glyph unicode="o" horiz-adv-x="1153" d="M109 449q10 130 41 251q42 194 170.5 298t316.5 104q195 0 326 -125q118 -112 118 -298q0 -21 -2 -44q-10 -131 -41 -252q-42 -194 -164.5 -298.5t-295.5 -104.5q-213 0 -349 124q-121 112 -121 302q0 21 1 43zM317 451q-2 -19 -2 -37q0 -99 60 -160q71 -72 192 -72 q211 0 273 250q21 94 30 197q2 18 2 34q0 104 -65 164q-75 72 -180 72q-224 0 -279 -248q-20 -93 -31 -200z" />
<glyph unicode="p" horiz-adv-x="1175" d="M29 -274l198 1187q6 35 17.5 51t42.5 35q165 103 360 103q210 0 338 -125q110 -107 110 -289q0 -29 -3 -61q-8 -89 -37 -238q-41 -197 -163.5 -303t-297.5 -106q-153 0 -299 73l-59 -360q-15 -101 -105 -101q-54 0 -83 38q-22 29 -22 66q0 15 3 30zM328 252 q98 -70 252 -70q218 0 274 246q27 137 33 209q2 20 2 39q0 100 -53 156q-64 67 -189 67q-118 0 -221 -68z" />
<glyph unicode="q" horiz-adv-x="1163" d="M92 434q10 137 41 262q95 406 481 406q145 0 267 -45q136 -49 176 -84q26 -20 26 -62q0 -11 -2 -24l-198 -1194q-15 -101 -107 -101q-54 0 -82 38q-21 27 -21 64q0 14 3 30l49 296q-90 -40 -236 -40q-100 0 -192 47q-98 50 -157 159q-49 92 -49 208q0 20 1 40zM301 432 q-1 -13 -1 -25q0 -104 54 -161q61 -64 183 -64q110 0 223 64l104 596q-105 57 -250 57q-220 0 -278 -233q-26 -102 -35 -234z" />
<glyph unicode="r" horiz-adv-x="790" d="M90 123l109 645q30 180 120.5 257t253.5 77q116 0 201 -33q78 -31 78 -98q0 -44 -28 -73.5t-74 -29.5q-18 0 -60 11q-66 16 -115 16q-147 0 -174 -174l-102 -631q-18 -98 -106 -98q-55 0 -83 37q-22 29 -22 70q0 12 2 24z" />
<glyph unicode="s" horiz-adv-x="1030" d="M45 201q0 38 28 65t66 27q31 0 70 -25q143 -94 274 -94q92 0 145.5 36.5t53.5 96.5q0 58 -55 92q-30 20 -54 29q-25 14 -71 31l-74 30q-129 55 -191.5 122.5t-62.5 176.5q0 148 117 230q122 84 284 84q201 0 328 -103q47 -41 47 -86q0 -40 -24.5 -68t-65.5 -28 q-30 0 -78 25q-122 67 -221 67q-76 0 -128 -34t-52 -89q0 -43 36.5 -74t119.5 -65q173 -70 227 -108q125 -85 125 -230t-111 -237q-112 -92 -289 -92q-126 0 -239 43q-118 48 -166 96q-39 33 -39 82z" />
<glyph unicode="t" horiz-adv-x="868" d="M162 393l135 811q18 111 115 111q50 1 76 -31q20 -24 20 -59q0 -11 -2 -23l-25 -153h271h11q54 -1 77 -45q12 -24 12 -47q0 -26 -14 -52q-25 -45 -77 -45h-11h-301l-82 -485q-6 -35 -6 -64q0 -133 133 -133q38 0 114 27q50 16 62 16q35 0 60.5 -27t25.5 -65 q0 -64 -76 -104q-80 -45 -215 -45q-166 0 -250 108q-61 79 -61 205q0 47 8 100z" />
<glyph unicode="u" horiz-adv-x="1187" d="M156 479l84 508q18 103 108 103q51 0 80 -36q23 -29 23 -70q0 -11 -2 -23l-82 -494q-7 -41 -7 -76q0 -85 42 -134q59 -69 180 -69q125 0 237 74l119 727q15 101 104 101q56 0 86 -37q22 -28 22 -68q0 -14 -3 -29l-131 -776q-9 -55 -55 -84q-174 -116 -390 -116 q-202 0 -329 133q-96 100 -96 259q0 51 10 107z" />
<glyph unicode="v" horiz-adv-x="1071" d="M115 944q-3 18 -3 33q0 40 22 71q30 42 85 42q88 0 109 -99l104 -540q26 -152 29 -234q1 -11 8 -15t15 -1t12 12q58 163 98 238l295 559q41 80 110 80q64 0 91 -50q12 -22 12 -47q0 -32 -19 -69l-421 -781q-45 -85 -92.5 -124t-110.5 -39q-146 0 -183 178z" />
<glyph unicode="w" horiz-adv-x="1646" d="M133 954q-1 11 -1 21q0 49 24 79q28 36 84 36q43 0 70.5 -26.5t31.5 -78.5l53 -567q4 -58 4 -209q0 -19 15 -19q10 0 16 15q44 129 72 196l235 553q59 136 172 136q133 0 148 -154l49 -524q7 -169 8 -205q0 -17 12 -17q9 0 15 15l30 86l31 84l258 633q27 82 105 82 q59 0 87 -47q14 -24 15 -52q0 -28 -14 -59l-342 -797q-64 -155 -193 -155q-69 0 -117 48t-55 126l-59 657q0 16 -13 16q-9 0 -12 -12l-289 -678q-37 -86 -78.5 -121.5t-107.5 -35.5q-68 0 -116.5 47t-55.5 127z" />
<glyph unicode="x" horiz-adv-x="1099" d="M-10 86q0 47 39 86l383 397l-219 346q-23 38 -23 72q0 44 28 73.5t74 29.5q56 0 86 -50l207 -331l326 340q41 41 82 41q46 0 74 -28.5t28 -70.5q0 -46 -43 -92l-350 -364l236 -373q22 -36 22 -74q0 -39 -27.5 -67.5t-68.5 -28.5q-58 0 -92 49l-224 354l-350 -364 q-33 -39 -86 -39q-42 0 -72 28.5t-30 65.5z" />
<glyph unicode="y" horiz-adv-x="1054" d="M6 -315q0 62 70 96q146 78 268 289l-227 870q-6 24 -6 45q0 36 18 63q29 42 90 42q80 0 107 -99l114 -446q24 -101 35 -236q0 -14 12 -14q6 0 15 12q60 143 110 232l262 477q41 74 101 74q67 0 94 -56q13 -26 13 -50q0 -30 -19 -58l-514 -910q-156 -275 -320 -381 q-64 -43 -127 -43q-39 0 -67.5 27.5t-28.5 65.5z" />
<glyph unicode="z" horiz-adv-x="1011" d="M25 115q0 57 47 104l622 653h-428q-48 0 -76 27.5t-28 67.5q0 43 31 71.5t75 28.5h576q65 0 102 -33t37 -84q0 -57 -45 -102l-623 -655h449h11q55 0 79 -45q12 -24 13 -48q-1 -26 -15 -52q-26 -48 -83 -48h-7h-608q-60 0 -94.5 33t-34.5 82z" />
<glyph unicode="{" horiz-adv-x="788" d="M53 635q0 42 49 76q134 87 158 239l78 502q12 76 67 123t132 47h309q42 0 70 -29.5t28 -68.5q0 -49 -36.5 -81t-88.5 -32h-209q-61 0 -73 -61l-64 -400q-34 -228 -197 -307q128 -101 91 -303l-76 -426q-6 -26 8.5 -43.5t40.5 -17.5h209q44 0 72 -28t28 -71 q0 -49 -36 -80.5t-91 -31.5h-274q-87 0 -140 62t-40 149l84 487q28 154 -70 238q-29 26 -29 57z" />
<glyph unicode="|" horiz-adv-x="591" d="M180 -176v1773q0 47 31.5 80t75.5 33t76 -33t32 -80v-1773q0 -47 -31.5 -79t-76.5 -32q-44 0 -75.5 33t-31.5 78z" />
<glyph unicode="}" horiz-adv-x="788" d="M-154 -260q0 49 36.5 81t90.5 32h209q63 0 72 61l63 399q35 226 197 308q-125 98 -88 303l76 426q4 26 -10.5 43.5t-40.5 17.5h-209q-44 0 -72.5 27.5t-28.5 70.5q0 49 36.5 81t92.5 32h273q88 0 140.5 -60.5t39.5 -150.5l-84 -487q-13 -84 3 -139t67 -99q28 -25 28 -59 q0 -39 -47 -74q-136 -89 -160 -240l-75 -501q-12 -75 -68 -122.5t-131 -47.5h-311q-41 0 -70 29.5t-29 68.5z" />
<glyph unicode="~" horiz-adv-x="1294" d="M104 719q0 79 86 117q171 71 254 71q76 0 203 -53q122 -51 201 -51q74 0 160 45q38 18 69 18q47 0 78 -33.5t31 -74.5q0 -78 -88 -115q-171 -74 -254 -74q-82 0 -207 52q-127 53 -197 53q-66 0 -153 -43q-41 -21 -72 -21q-49 0 -80 33t-31 76z" />
<glyph unicode="&#xa1;" horiz-adv-x="487" d="M84 109l139 751q15 92 96 92q42 0 69.5 -29.5t21.5 -68.5l-113 -760q-7 -52 -39.5 -81t-75.5 -29q-52 0 -80 35t-18 90zM281 1204l22 142q6 42 34 68t69 26q43 0 69.5 -30t20.5 -71l-23 -141q-6 -42 -34.5 -68t-69.5 -26q-43 0 -68.5 29.5t-19.5 70.5z" />
<glyph unicode="&#xa2;" horiz-adv-x="1087" d="M195 633q10 113 28 188q35 159 132 254.5t235 112.5l26 162q15 104 103 104q44 0 70 -30.5t20 -73.5l-29 -172q72 -20 128.5 -68.5t82.5 -114.5q13 -29 13 -61q0 -42 -27 -70t-68 -28q-59 0 -94 65q-56 103 -166 103q-176 0 -229 -201q-25 -123 -29 -170 q-6 -96 40.5 -150.5t146.5 -54.5q52 0 101 28.5t75 75.5q43 70 98 70q38 0 64 -24.5t26 -59.5q0 -37 -29 -90q-103 -171 -290 -186l-27 -158q-18 -102 -100 -102q-44 0 -71 33.5t-19 76.5l26 164q-125 37 -187.5 136t-49.5 241z" />
<glyph unicode="&#xa3;" horiz-adv-x="1255" d="M98 672q0 47 34.5 77.5t88.5 30.5h96q-12 170 0 258q25 191 150 303.5t315 112.5q118 0 226 -51q113 -53 166 -121q32 -43 32 -78q0 -44 -30.5 -73t-73.5 -29q-39 0 -78 31q-126 108 -250 108q-101 0 -165.5 -61.5t-78.5 -153.5q-14 -64 2 -246h267q44 0 72 -27t28 -69 q0 -48 -35 -79.5t-94 -31.5h-246q-18 -193 -145 -358h627q44 0 73 -30t29 -72q0 -49 -35.5 -81t-95.5 -32h-737q-80 0 -109 57q-31 60 2 121l27 45l30 47q42 67 54 95q1 3 19.5 43.5t23.5 58.5q18 69 20 106h-112q-42 0 -69.5 28.5t-27.5 70.5z" />
<glyph unicode="&#xa4;" horiz-adv-x="1249" d="M98 1163q0 37 26.5 64.5t63.5 27.5q46 0 74 -32l154 -152q104 78 219 78q118 0 219 -78l154 152q32 32 73 32q36 0 64.5 -28t28.5 -64q0 -38 -33 -71l-164 -168q32 -67 35 -146q3 -59 0 -127q-3 -72 -35 -137l166 -166q27 -36 28 -73t-24.5 -65t-65.5 -28q-42 0 -73 31 l-152 152q-98 -78 -221 -78t-221 78l-152 -152q-31 -31 -74 -31q-37 0 -63 28t-25.5 65t29.5 73l166 168q-32 65 -35 135q-3 68 0 127q3 74 35 144l-166 170q-31 31 -31 71zM436 655q5 -80 61.5 -135t137.5 -55q79 0 137.5 56t63.5 136q3 58 0 119q-5 80 -63.5 137.5 t-137.5 57.5t-136.5 -56.5t-62.5 -136.5q-3 -40 0 -123z" />
<glyph unicode="&#xa5;" horiz-adv-x="1296" d="M92 1339q0 45 31 76t78 31q56 0 100 -62l340 -522l539 543q45 39 91.5 40.5t75.5 -27t29 -70.5q0 -52 -43 -95l-540 -534q-62 -62 -68 -90l-4 -21h201q47 0 75.5 -26.5t28.5 -69.5q0 -45 -37 -78t-90 -33h-211l-49 -307q-15 -102 -107 -102q-53 0 -81.5 36.5t-20.5 92.5 l47 280h-194q-42 0 -70.5 30t-28.5 69q0 47 36.5 77.5t90.5 30.5h197l4 21q6 32 -35 94l-360 545q-25 39 -25 71z" />
<glyph unicode="&#xa6;" horiz-adv-x="581" d="M180 -176v700q0 47 31.5 80t75.5 33t75 -33t31 -80v-700q0 -47 -31 -79t-75 -32t-75.5 33t-31.5 78zM180 897v700q0 47 31.5 80t75.5 33t75 -33t31 -80v-700q0 -47 -31 -79t-75 -32t-75.5 33t-31.5 78z" />
<glyph unicode="&#xa7;" horiz-adv-x="1136" d="M45.5 -6q-0.5 46 31 78t81.5 32q34 0 61 -18q128 -84 289 -84q108 0 172.5 53.5t64.5 139.5q0 34 -14.5 61t-42.5 39q-32 20 -63 29q-20 9 -37 12q-9 3 -44.5 12t-43.5 12q-181 53 -253.5 114t-72.5 153q0 125 113 229q-62 77 -62 184q0 181 131 297q132 117 340 117 q123 0 226 -41q104 -40 147 -86q35 -35 35 -76q0 -44 -30.5 -74t-74.5 -30q-25 0 -69 20q-127 74 -242 74q-109 0 -175.5 -52t-66.5 -138q0 -65 52.5 -101.5t183.5 -75.5q174 -51 250 -115.5t76 -162.5q0 -118 -105 -207q62 -71 62 -184q0 -175 -129 -295 q-127 -121 -344 -121q-130 0 -246 39q-121 41 -162 82q-38 38 -38.5 84zM356 668q0 -43 52 -76t178 -68q102 -29 190 -63q51 45 51 104q0 46 -47.5 75.5t-179.5 68.5q-98 29 -184 71q-60 -57 -60 -112z" />
<glyph unicode="&#xa8;" horiz-adv-x="741" d="M186 1657q0 49 36 85t85 36q45 0 74 -28t29 -75q0 -51 -34.5 -86t-84.5 -35q-47 0 -76 29t-29 74zM535 1657q0 50 35.5 85.5t84.5 35.5q45 0 74 -28t29 -75q0 -51 -34.5 -86t-84.5 -35q-47 0 -75.5 29t-28.5 74z" />
<glyph unicode="&#xa9;" horiz-adv-x="1591" d="M168 590q-6 126 0 256q15 259 197 432q181 172 436 172t436 -172q182 -170 197 -432q6 -130 0 -256q-15 -261 -197 -434q-182 -170 -436 -170t-436 170q-182 173 -197 434zM326 575q15 -191 151 -315q137 -125 324 -125q186 0 323 125q139 127 154 315q9 142 0 281 q-15 188 -154 315t-323 127q-185 0 -324 -127q-136 -124 -151 -315q-15 -139 0 -281zM463 621q-9 100 0 200q9 142 104 234t236 92q102 0 183.5 -49.5t117.5 -128.5q16 -43 16 -51q0 -31 -20.5 -50.5t-50.5 -19.5q-41 0 -64 45q-52 113 -182 113q-79 0 -130 -55t-57 -146 q-3 -58 0 -168q4 -91 55.5 -146t131.5 -55q129 0 182 111q24 47 64 47q30 0 50.5 -19.5t20.5 -50.5q0 -8 -16 -51q-36 -79 -117.5 -128.5t-183.5 -49.5q-141 0 -236 92t-104 234z" />
<glyph unicode="&#xaa;" horiz-adv-x="940" d="M80 918q8 84 31 204q67 328 378 328q102 0 190 -26t130 -60q47 -35 35 -98l-58 -340q-14 -47 -8 -101q9 -48 15 -67q1 -3 10.5 -23.5t17.5 -36.5q17 -31 17 -55q0 -35 -26 -58.5t-62 -23.5q-37 0 -60 23q-20 17 -47 78q-111 -99 -252 -99q-146 0 -237 94q-89 95 -74 261z M254 928q-18 -193 158 -193q108 0 192 84q3 42 33 236l29 174q-61 43 -177 43q-163 0 -204 -170q-26 -116 -31 -174z" />
<glyph unicode="&#xab;" horiz-adv-x="1181" d="M63 715q0 99 99 164l295 204q38 23 69 23q38 0 65 -26t27 -62q0 -50 -51 -84l-239 -172q-33 -20 -33 -45q0 -17 16 -33l181 -168q45 -38 25 -94q-16 -44 -60 -61q-57 -20 -111 30l-217 197q-66 54 -66 127zM539 715q0 100 98 164l295 204q38 23 69 23q38 0 65.5 -26.5 t27.5 -61.5q0 -50 -52 -84l-239 -172q-33 -20 -33 -45q0 -17 16 -33l181 -168q45 -38 25 -94q-16 -44 -60 -61q-58 -19 -111 30l-217 197q-65 53 -65 127z" />
<glyph unicode="&#xac;" d="M102 717q0 42 31 72t74 30h807q60 0 95.5 -35.5t35.5 -91.5v-393q0 -45 -29.5 -75.5t-73.5 -30.5q-42 0 -72 31.5t-30 74.5v317h-733q-43 0 -74 30t-31 71z" />
<glyph unicode="&#xad;" horiz-adv-x="673" d="M84 586q0 47 34.5 78.5t84.5 31.5h274q50 0 81.5 -30t31.5 -72q0 -49 -35.5 -81t-85.5 -32h-272q-53 0 -83 29.5t-30 75.5z" />
<glyph unicode="&#xae;" horiz-adv-x="1226" d="M129 809q-6 89 0 174q15 213 150 342q134 131 337 131q202 0 336 -131q137 -131 152 -342q3 -85 0 -174q-15 -211 -152 -342q-134 -131 -336 -131t-337 129q-135 132 -150 344zM256 803q12 -160 109 -250t251 -90t250.5 90t108.5 250q9 96 0 186q-12 160 -109 251 t-250 91q-154 0 -251 -91t-109 -251q-9 -90 0 -186zM414 672v434q0 30 19.5 50t51.5 20h162q79 0 130.5 -46.5t51.5 -119.5q0 -112 -108 -156l115 -143q14 -20 14 -43t-18 -39.5t-44 -16.5q-31 0 -47 29l-120 164q-12 18 -33 18h-56v-151q0 -25 -16.5 -41.5t-42.5 -16.5 q-25 0 -42 16.5t-17 41.5zM528 918h99q90 0 90 77q0 78 -86 78h-103v-155z" />
<glyph unicode="&#xaf;" horiz-adv-x="741" d="M238 1649q0 38 29 66t77 28h320q40 0 63 -24t23 -60q0 -38 -28 -66t-71 -28h-319q-42 0 -68 24t-26 60z" />
<glyph unicode="&#xb0;" horiz-adv-x="759" d="M135 1151q0 117 78 207q81 90 213 90q107 0 177.5 -69.5t70.5 -170.5q0 -119 -78 -209t-203 -90q-110 0 -184 69.5t-74 172.5zM276 1161q0 -49 31 -80.5t86 -31.5q59 0 98 43.5t39 101.5q0 51 -29.5 82t-84.5 31q-61 0 -100.5 -44t-39.5 -102z" />
<glyph unicode="&#xb1;" d="M111 100q0 44 30.5 73.5t75.5 29.5h830q45 0 75.5 -29.5t30.5 -73.5q0 -41 -31.5 -70.5t-74.5 -29.5h-830q-44 0 -75 29.5t-31 70.5zM111 797q0 44 30.5 73t75.5 29h315v313q0 44 30 75.5t71 31.5q44 0 73 -31t29 -76v-313h312q45 0 75.5 -29t30.5 -73q0 -42 -31.5 -72.5 t-74.5 -30.5h-312v-315q0 -45 -29 -76t-73 -31q-42 0 -71.5 32t-29.5 75v315h-315q-44 0 -75 30t-31 73z" />
<glyph unicode="&#xb2;" horiz-adv-x="884" d="M61 592q0 208 236 348l80 41l100 55q44 27 76.5 66t32.5 78q0 48 -29 75t-82 27q-91 0 -176 -82q-41 -35 -72 -35t-54 22.5t-23 53.5q0 40 32 78q48 58 128.5 93.5t166.5 35.5q126 0 207.5 -69.5t81.5 -188.5q0 -188 -277 -330q-28 -14 -66 -34.5t-42 -22.5 q-115 -73 -115 -119h340q43 0 68.5 -24t25.5 -60q0 -40 -31.5 -68t-84.5 -28h-430q-93 0 -93 88z" />
<glyph unicode="&#xb3;" horiz-adv-x="835" d="M45 569q0 38 28.5 64t76.5 26h65q50 0 100.5 8.5t103.5 27.5t86.5 58t33.5 93q0 102 -117 102q-8 0 -46.5 -3t-51.5 -3q-25 0 -45.5 18t-20.5 44q0 36 31 61l211 170h-254q-46 0 -72.5 25t-26.5 63q0 40 29.5 69t77.5 29h395q45 0 72 -25t27 -67q0 -54 -64 -106 l-174 -146q98 -11 156.5 -69.5t58.5 -163.5q0 -175 -152 -271q-149 -94 -362 -94q-51 0 -92 8q-74 18 -74 82z" />
<glyph unicode="&#xb4;" horiz-adv-x="741" d="M246 1632q0 54 53 78l289 139q33 13 57 13q37 0 60.5 -23.5t23.5 -56.5q0 -58 -70 -88l-286 -135q-26 -11 -45 -11q-33 0 -57.5 23.5t-24.5 60.5z" />
<glyph unicode="&#xb5;" horiz-adv-x="1234" d="M53 -281l209 1252q18 119 113 119q50 0 76.5 -33t19.5 -88l-84 -500q-23 -139 37.5 -213t179.5 -74q129 0 230 70l122 721q21 117 113 117q49 0 77.5 -32.5t18.5 -84.5l-133 -793q-8 -49 -55 -84q-67 -47 -170 -80.5t-203 -33.5q-186 0 -280 122l-66 -401 q-18 -109 -106 -109q-48 0 -77 35.5t-22 89.5z" />
<glyph unicode="&#xb6;" horiz-adv-x="1447" d="M182 938q0 205 148 350q147 144 393 144h534q85 0 122.5 -42.5t25.5 -117.5l-258 -1555q-8 -50 -37.5 -80t-73.5 -30q-50 0 -80.5 32.5t-23.5 81.5l250 1496h-150l-248 -1500q-8 -51 -37 -80.5t-73 -29.5q-51 0 -81.5 33.5t-23.5 80.5l129 777h-45q-219 0 -344 125 q-127 127 -127 315zM416 932q0 -106 67 -164.5t179 -58.5h71l88 518h-100q-127 0 -215 -76q-90 -78 -90 -219z" />
<glyph unicode="&#xb7;" horiz-adv-x="514" d="M158 664l26 157q6 41 35.5 67.5t67.5 26.5q44 0 69.5 -29.5t18.5 -72.5l-25 -158q-7 -43 -35.5 -68.5t-66.5 -25.5q-43 0 -69.5 31t-20.5 72z" />
<glyph unicode="&#xb8;" horiz-adv-x="741" d="M227 -469q0 53 64 74q44 15 53 20q27 4 64 25q71 42 71 90q0 51 -59 51q-9 0 -34.5 -5t-33.5 -5q-37 0 -54 28.5t1 63.5l78 150q27 53 72 53q37 0 52.5 -30.5t-7.5 -65.5l-43 -72q75 -2 124.5 -48t49.5 -118q0 -97 -78.5 -165t-204.5 -103q-18 -6 -45 -6q-30 0 -50 17 t-20 46z" />
<glyph unicode="&#xb9;" horiz-adv-x="659" d="M84 1188q0 57 57 86l269 139q48 25 71 25q41 0 61 -29t13 -80l-121 -733q-18 -98 -98 -98q-43 0 -67.5 32t-18.5 74l96 578l-133 -64q-41 -25 -85 -3.5t-44 73.5z" />
<glyph unicode="&#xba;" horiz-adv-x="901" d="M86 930q6 94 18 168q32 167 132.5 257.5t252.5 90.5q163 0 254 -107q94 -104 82 -266q-3 -70 -20 -168q-30 -161 -126 -251.5t-247 -90.5q-153 0 -254 101t-92 266zM268 934q-7 -89 41.5 -141t126.5 -52q145 0 182 174q12 68 21 166q5 79 -40.5 132t-119.5 53 q-73 0 -123 -48t-67 -131q-19 -118 -21 -153z" />
<glyph unicode="&#xbb;" horiz-adv-x="1181" d="M100 446q0 50 52 84l239 170q33 23 33 45q0 17 -18 35l-179 168q-32 22 -32 66q0 38 27 66t67 28q37 0 84 -35l217 -199q65 -56 65 -124q0 -97 -100 -166l-293 -203q-42 -25 -72 -25q-37 0 -63.5 26.5t-26.5 63.5zM571 446q0 50 52 84l239 170q33 23 33 45q0 17 -18 35 l-179 168q-32 22 -32 66q0 38 27 66t67 28q37 0 84 -35l217 -199q65 -56 65 -124q0 -97 -100 -166l-293 -203q-42 -25 -71 -25q-37 0 -64 26.5t-27 63.5z" />
<glyph unicode="&#xbc;" horiz-adv-x="2039" d="M98 1188q0 56 58 86l268 139q36 19 65 19q42 0 64.5 -28t15.5 -75l-120 -733q-18 -98 -97 -98q-44 0 -69 31.5t-19 74.5l98 578l-135 -64q-41 -25 -85 -3.5t-44 73.5zM406 33q0 20 16 57l770 1360q34 55 92 55q42 0 71 -26t29 -64q0 -31 -18 -65l-768 -1356 q-29 -57 -88 -57q-42 0 -73 27.5t-31 68.5zM1098 287q0 57 71 125l463 462q62 62 119 62q55 0 82.5 -34.5t17.5 -90.5l-75 -453h71q38 0 61 -21t23 -52q0 -37 -28 -62.5t-76 -25.5h-78l-20 -113q-12 -84 -84 -84q-37 0 -58 24t-14 64l18 107h-385q-51 0 -79.5 24.5 t-28.5 67.5zM1323 358h295l63 367z" />
<glyph unicode="&#xbd;" horiz-adv-x="2054" d="M119 1188q0 57 57 86l268 139q48 25 72 25q41 0 61 -29t13 -80l-121 -733q-18 -98 -98 -98q-43 0 -67.5 32t-18.5 74l96 578l-133 -64q-41 -25 -85 -3.5t-44 73.5zM428 29q0 27 18 57l768 1360q34 57 93 57q42 0 71 -26t29 -66q0 -31 -18 -65l-768 -1356q-30 -58 -89 -58 q-42 0 -73 28t-31 69zM1231 88q0 208 235 348l80 41l101 55q44 27 76 66t32 78q0 48 -28.5 75t-81.5 27q-92 0 -177 -82q-40 -34 -71 -34t-54.5 22.5t-23.5 52.5q0 39 33 78q48 58 128.5 93.5t166.5 35.5q126 0 207 -69.5t81 -188.5q0 -189 -276 -330q-28 -14 -69 -36 l-40 -21q-114 -72 -114 -119h340q43 0 68.5 -24t25.5 -60q0 -40 -32 -68t-85 -28h-430q-92 0 -92 88z" />
<glyph unicode="&#xbe;" horiz-adv-x="2160" d="M72 569q0 38 28 64t76 26h66q38 0 78 4.5t85 17.5t79.5 33t57.5 54.5t23 77.5q0 102 -116 102q-8 0 -47 -3t-52 -3q-25 0 -45 18t-20 44q0 37 30 61l211 170h-254q-46 0 -72 25t-26 63q0 40 29.5 69t77.5 29h395q45 0 71.5 -25t26.5 -67q0 -55 -63 -106l-174 -146 q98 -11 156.5 -69.5t58.5 -163.5q0 -175 -152 -271q-149 -94 -362 -94q-52 0 -93 8q-73 18 -73 82zM578 29q0 20 16 57l768 1360q37 57 92 57q42 0 72 -26t30 -66q0 -32 -20 -65l-768 -1356q-30 -58 -88 -58q-42 0 -72 28t-30 69zM1227 287q0 57 71 125l463 462 q59 62 117 62q55 0 82.5 -34.5t17.5 -90.5l-73 -453h69q40 0 63 -20.5t23 -52.5q0 -37 -28 -62.5t-76 -25.5h-80l-18 -113q-15 -84 -84 -84q-37 0 -58 24t-14 64l16 107h-385q-49 0 -77.5 24.5t-28.5 67.5zM1450 358h295l63 367z" />
<glyph unicode="&#xbf;" horiz-adv-x="1148" d="M70 369q0 183 129.5 312.5t390.5 229.5q40 15 63 15q45 0 72 -29.5t27 -69.5q0 -67 -95 -108l-57 -25q-70 -28 -141 -65q-28 -15 -51 -31.5t-36.5 -29t-39.5 -38.5q-56 -59 -56 -145q0 -90 53.5 -144.5t151.5 -54.5q129 0 287 140q51 45 96 45q40 0 66 -28t26 -67 q0 -46 -38 -90q-75 -88 -193 -144t-240 -56q-176 0 -295 110q-120 111 -120 273zM610 1221l25 139q6 42 33 68t67 26q43 0 70 -29.5t20 -70.5l-22 -140q-6 -43 -34 -69.5t-69 -26.5q-44 0 -70 30.5t-20 72.5z" />
<glyph unicode="&#xc0;" horiz-adv-x="1357" d="M-12 43q-28 51 2 111l590 1128q91 178 254 178q81 0 138 -49.5t75 -144.5l213 -1125q12 -62 -14.5 -105.5t-84.5 -43.5q-93 0 -114 104l-66 350h-600l-197 -380q-41 -74 -106 -74q-62 0 -90 51zM471 631h481l-104 573q-6 37 -37 37q-30 0 -47 -39zM489 1780 q0 37 24.5 61.5t61.5 24.5q26 0 52 -13l270 -151q47 -27 47 -74q0 -35 -24.5 -58.5t-61.5 -23.5q-33 0 -57 15l-264 143q-48 28 -48 76z" />
<glyph unicode="&#xc1;" horiz-adv-x="1357" d="M-12 43q-28 51 2 111l590 1128q91 178 254 178q81 0 138 -49.5t75 -144.5l213 -1125q12 -62 -14.5 -105.5t-84.5 -43.5q-93 0 -114 104l-66 350h-600l-197 -380q-41 -74 -106 -74q-62 0 -90 51zM471 631h481l-104 573q-6 37 -37 37q-30 0 -47 -39zM686 1632q0 54 53 78 l289 139q32 13 57 13q37 0 60.5 -23.5t23.5 -56.5q0 -59 -69 -88l-287 -135q-26 -11 -45 -11q-33 0 -57.5 23.5t-24.5 60.5z" />
<glyph unicode="&#xc2;" horiz-adv-x="1357" d="M-12 43q-28 51 2 111l590 1128q91 178 254 178q81 0 138 -49.5t75 -144.5l213 -1125q12 -62 -14.5 -105.5t-84.5 -43.5q-93 0 -114 104l-66 350h-600l-197 -380q-41 -74 -106 -74q-62 0 -90 51zM471 631h481l-104 573q-6 37 -37 37q-30 0 -47 -39zM524 1610q0 45 47 80 l224 155q41 27 75 27q38 0 74 -31l166 -155q35 -35 35 -74q0 -32 -24 -56t-56 -24q-39 0 -68 29l-137 127l-198 -134q-33 -20 -62 -20q-31 0 -53.5 22.5t-22.5 53.5z" />
<glyph unicode="&#xc3;" horiz-adv-x="1357" d="M-12 43q-28 51 2 111l590 1128q91 178 254 178q81 0 138 -49.5t75 -144.5l213 -1125q12 -62 -14.5 -105.5t-84.5 -43.5q-93 0 -114 104l-66 350h-600l-197 -380q-41 -74 -106 -74q-62 0 -90 51zM471 631h481l-104 573q-6 37 -37 37q-30 0 -47 -39zM541 1632q0 39 45 78 q88 76 176 76q52 0 129 -41q74 -39 104 -39q29 0 70 35t72 35q30 0 53.5 -23t23.5 -55q0 -41 -53 -88q-93 -72 -172 -72q-55 0 -129 39t-104 39q-28 0 -70 -31t-65 -31q-31 0 -55.5 23.5t-24.5 54.5z" />
<glyph unicode="&#xc4;" horiz-adv-x="1357" d="M-12 43q-28 51 2 111l590 1128q91 178 254 178q81 0 138 -49.5t75 -144.5l213 -1125q12 -62 -14.5 -105.5t-84.5 -43.5q-93 0 -114 104l-66 350h-600l-197 -380q-41 -74 -106 -74q-62 0 -90 51zM471 631h481l-104 573q-6 37 -37 37q-30 0 -47 -39zM565 1657q0 49 35.5 85 t85.5 36q45 0 73.5 -28t28.5 -75q0 -51 -34 -86t-84 -35q-47 0 -76 29t-29 74zM913 1657q0 49 35.5 85t85.5 36q45 0 74 -28t29 -75q0 -51 -34.5 -86t-84.5 -35q-47 0 -76 29t-29 74z" />
<glyph unicode="&#xc5;" horiz-adv-x="1357" d="M-12 43q-28 51 2 111l590 1128q91 178 254 178q81 0 138 -49.5t75 -144.5l213 -1125q12 -62 -14.5 -105.5t-84.5 -43.5q-93 0 -114 104l-66 350h-600l-197 -380q-41 -74 -106 -74q-62 0 -90 51zM471 631h481l-104 573q-6 37 -37 37q-30 0 -47 -39zM659 1726q0 90 63 156 t159 66q86 0 140 -53.5t54 -135.5q0 -93 -61.5 -159t-157.5 -66q-86 0 -141.5 55t-55.5 137zM776 1731q0 -36 23 -59t59 -23q43 0 70.5 29t27.5 71q0 37 -22.5 60.5t-59.5 23.5q-42 0 -70 -30t-28 -72z" />
<glyph unicode="&#xc6;" horiz-adv-x="2101" d="M-9.5 48q-21.5 56 17.5 110l879 1147q60 78 129 106.5t188 28.5h776q49 0 78 -28.5t29 -72.5q0 -42 -32 -71t-77 -29h-632l-70 -422h565q46 0 73.5 -27t27.5 -67q0 -41 -30 -67.5t-73 -26.5h-594l-71 -428h620q49 0 78 -29t29 -74q0 -42 -32 -70t-77 -28h-707 q-158 0 -131 168l52 311h-498l-336 -436q-39 -51 -96 -51q-64 0 -85.5 56zM641 670h397l95 567h-7q-47 0 -86 -51z" />
<glyph unicode="&#xc7;" horiz-adv-x="1339" d="M111 569q9 202 71 400q74 236 232.5 363.5t380.5 127.5q184 0 315 -83.5t184 -221.5q21 -55 21 -82q0 -48 -31 -78t-76 -30q-73 0 -108 77q-40 102 -120.5 156.5t-182.5 54.5q-156 0 -261.5 -101.5t-154.5 -283.5q-41 -146 -51 -311q-6 -171 81 -271t259 -100 q222 0 331 220q40 75 105 75q43 0 74.5 -27.5t31.5 -70.5q0 -20 -16 -70q-60 -145 -187.5 -237.5t-314.5 -98.5l-41 -69q75 -2 124.5 -48t49.5 -118q0 -97 -78 -165t-204 -103q-18 -6 -45 -6q-30 0 -49 17t-19 46q0 49 66 74q149 47 176 100q8 13 8 35q0 51 -59 51 q-9 0 -34.5 -5t-33.5 -5q-37 0 -54 28.5t1 63.5l59 115q-212 30 -338 186q-124 154 -112 395z" />
<glyph unicode="&#xc8;" horiz-adv-x="1251" d="M131 168l186 1114q21 158 183 158h655q67 5 93.5 -47.5t-2 -105.5t-93.5 -48h-631l-71 -422h567q43 0 71.5 -27.5t28.5 -66.5q0 -41 -29.5 -67.5t-72.5 -26.5h-594l-72 -428h621q49 0 77.5 -29t28.5 -74q0 -43 -31.5 -70.5t-78.5 -27.5h-705q-158 0 -131 168zM504 1780 q0 37 24.5 61.5t61.5 24.5q25 0 51 -13l270 -151q47 -27 47 -74q0 -35 -24.5 -58.5t-61.5 -23.5q-33 0 -57 15l-264 143q-47 27 -47 76z" />
<glyph unicode="&#xc9;" horiz-adv-x="1251" d="M131 168l186 1114q21 158 183 158h655q67 5 93.5 -47.5t-2 -105.5t-93.5 -48h-631l-71 -422h567q43 0 71.5 -27.5t28.5 -66.5q0 -41 -29.5 -67.5t-72.5 -26.5h-594l-72 -428h621q49 0 77.5 -29t28.5 -74q0 -43 -31.5 -70.5t-78.5 -27.5h-705q-158 0 -131 168zM635 1632 q0 54 53 78l289 139q32 13 57 13q37 0 60.5 -23.5t23.5 -56.5q0 -59 -69 -88l-287 -135q-26 -11 -45 -11q-33 0 -57.5 23.5t-24.5 60.5z" />
<glyph unicode="&#xca;" horiz-adv-x="1251" d="M131 168l186 1114q21 158 183 158h655q67 5 93.5 -47.5t-2 -105.5t-93.5 -48h-631l-71 -422h567q43 0 71.5 -27.5t28.5 -66.5q0 -41 -29.5 -67.5t-72.5 -26.5h-594l-72 -428h621q49 0 77.5 -29t28.5 -74q0 -43 -31.5 -70.5t-78.5 -27.5h-705q-158 0 -131 168zM528 1610 q0 45 47 80l224 155q40 27 75 27q38 0 74 -31l166 -155q35 -35 35 -74q0 -32 -24 -56t-56 -24q-39 0 -68 29l-137 127l-198 -134q-33 -20 -62 -20q-31 0 -53.5 22.5t-22.5 53.5z" />
<glyph unicode="&#xcb;" horiz-adv-x="1251" d="M131 168l186 1114q21 158 183 158h655q67 5 93.5 -47.5t-2 -105.5t-93.5 -48h-631l-71 -422h567q43 0 71.5 -27.5t28.5 -66.5q0 -41 -29.5 -67.5t-72.5 -26.5h-594l-72 -428h621q49 0 77.5 -29t28.5 -74q0 -43 -31.5 -70.5t-78.5 -27.5h-705q-158 0 -131 168zM555 1657 q0 49 35.5 85t85.5 36q45 0 73.5 -28t28.5 -75q0 -51 -34.5 -86t-84.5 -35q-47 0 -75.5 29t-28.5 74zM903 1657q0 49 35.5 85t85.5 36q45 0 73.5 -28t28.5 -75q0 -51 -34 -86t-84 -35q-47 0 -76 29t-29 74z" />
<glyph unicode="&#xcc;" horiz-adv-x="606" d="M84 1780q0 37 24.5 61.5t61.5 24.5q25 0 51 -13l271 -151q47 -27 47 -74q0 -35 -24.5 -58.5t-61.5 -23.5q-34 0 -58 15l-264 143q-47 27 -47 76zM109 123l204 1223q7 46 36.5 74t68.5 28q54 0 83 -37.5t19 -97.5l-203 -1221q-7 -46 -37 -73t-69 -27q-54 0 -83 37t-19 94z " />
<glyph unicode="&#xcd;" horiz-adv-x="606" d="M104 123l205 1223q7 46 36.5 74t68.5 28q54 0 83 -37.5t19 -97.5l-203 -1221q-7 -46 -37 -73t-69 -27q-54 0 -83.5 37t-19.5 94zM324 1632q0 54 53 78l289 139q33 13 57 13q37 0 60.5 -23.5t23.5 -56.5q0 -58 -70 -88l-286 -135q-26 -11 -45 -11q-33 0 -57.5 23.5 t-24.5 60.5z" />
<glyph unicode="&#xce;" horiz-adv-x="606" d="M104 123l205 1223q7 46 36.5 74t68.5 28q54 0 83 -37.5t19 -97.5l-203 -1221q-7 -46 -37 -73t-69 -27q-54 0 -83.5 37t-19.5 94zM131 1610q0 45 47 80l223 155q40 27 76 27q38 0 74 -31l166 -155q35 -35 35 -74q0 -32 -24 -56t-56 -24q-39 0 -68 29l-137 127l-199 -134 q-33 -20 -61 -20q-31 0 -53.5 22.5t-22.5 53.5z" />
<glyph unicode="&#xcf;" horiz-adv-x="606" d="M109 123l204 1223q7 46 36.5 74t68.5 28q54 0 83 -37.5t19 -97.5l-203 -1221q-7 -46 -37 -73t-69 -27q-54 0 -83 37t-19 94zM176 1657q0 49 36 85t85 36q45 0 73.5 -28t28.5 -75q0 -51 -34 -86t-84 -35q-47 0 -76 29t-29 74zM524 1657q0 49 36 85t85 36q45 0 74 -28 t29 -75q0 -51 -34.5 -86t-84.5 -35q-47 0 -76 29t-29 74z" />
<glyph unicode="&#xd0;" horiz-adv-x="1417" d="M-14 711q0 42 31 72t81 30h105l78 469q27 158 182 158h278q307 0 463 -170q157 -171 139 -443q-8 -143 -38 -268q-68 -291 -253.5 -425t-500.5 -134h-330q-68 0 -104.5 44.5t-24.5 115.5l78 461h-86q-46 0 -72 25t-26 65zM315 201h244q234 0 358 93.5t175 309.5 q24 107 32 205q23 199 -85 314.5t-308 115.5h-246l-69 -426h274q43 0 70.5 -27t27.5 -65q0 -40 -29.5 -70t-76.5 -30h-297z" />
<glyph unicode="&#xd1;" horiz-adv-x="1570" d="M111 121l192 1143q17 92 64 138t116 46q73 -5 106.5 -37t61.5 -96l459 -1047h4q20 180 68 467l102 611q7 49 36 75.5t71 26.5q54 0 83 -37.5t19 -97.5l-193 -1135q-34 -186 -178 -186q-116 0 -168 125l-456 1063h-4q-17 -130 -64 -424l-111 -662q-18 -102 -106 -102 q-54 0 -82 36t-20 93zM616 1632q0 38 46 78q88 76 176 76q52 0 129 -41q74 -39 104 -39q29 0 70 35t71 35t54 -23t24 -55q0 -41 -53 -88q-93 -72 -172 -72q-55 0 -129 39t-105 39q-29 0 -71 -31t-64 -31q-31 0 -55.5 23.5t-24.5 54.5z" />
<glyph unicode="&#xd2;" horiz-adv-x="1435" d="M127 606q12 136 39 281q53 266 219 418q168 155 430 155q275 0 438 -178q162 -174 138 -440q-12 -155 -39 -289q-51 -274 -218.5 -425t-418.5 -151q-263 0 -439 173t-149 456zM342 596q-15 -203 90 -305q108 -105 275 -105q160 0 266.5 93t148.5 262q34 135 49 311 q15 175 -88 287q-100 112 -278 112q-154 0 -266.5 -102t-153.5 -281q-34 -146 -43 -272zM541 1780q0 37 24.5 61.5t61.5 24.5q25 0 51 -13l270 -151q47 -27 47 -74q0 -35 -24.5 -58.5t-61.5 -23.5q-33 0 -57 15l-264 143q-47 27 -47 76z" />
<glyph unicode="&#xd3;" horiz-adv-x="1435" d="M127 606q12 136 39 281q53 266 219 418q168 155 430 155q275 0 438 -178q162 -174 138 -440q-12 -155 -39 -289q-51 -274 -218.5 -425t-418.5 -151q-263 0 -439 173t-149 456zM342 596q-15 -203 90 -305q108 -105 275 -105q160 0 266.5 93t148.5 262q34 135 49 311 q15 175 -88 287q-100 112 -278 112q-154 0 -266.5 -102t-153.5 -281q-34 -146 -43 -272zM733 1632q0 54 53 78l289 139q33 13 58 13q37 0 60.5 -23.5t23.5 -56.5q0 -58 -70 -88l-287 -135q-26 -11 -45 -11q-33 0 -57.5 23.5t-24.5 60.5z" />
<glyph unicode="&#xd4;" horiz-adv-x="1435" d="M127 606q12 136 39 281q53 266 219 418q168 155 430 155q275 0 438 -178q162 -174 138 -440q-12 -155 -39 -289q-51 -274 -218.5 -425t-418.5 -151q-263 0 -439 173t-149 456zM342 596q-15 -203 90 -305q108 -105 275 -105q160 0 266.5 93t148.5 262q34 135 49 311 q15 175 -88 287q-100 112 -278 112q-154 0 -266.5 -102t-153.5 -281q-34 -146 -43 -272zM561 1610q0 45 47 80l223 155q41 27 76 27q38 0 74 -31l166 -155q35 -35 35 -74q0 -32 -24 -56t-56 -24q-39 0 -68 29l-137 127l-199 -134q-33 -20 -61 -20q-31 0 -53.5 22.5 t-22.5 53.5z" />
<glyph unicode="&#xd5;" horiz-adv-x="1435" d="M127 606q12 136 39 281q53 266 219 418q168 155 430 155q275 0 438 -178q162 -174 138 -440q-12 -155 -39 -289q-51 -274 -218.5 -425t-418.5 -151q-263 0 -439 173t-149 456zM342 596q-15 -203 90 -305q108 -105 275 -105q160 0 266.5 93t148.5 262q34 135 49 311 q15 175 -88 287q-100 112 -278 112q-154 0 -266.5 -102t-153.5 -281q-34 -146 -43 -272zM555 1632q0 39 45 78q88 76 176 76q52 0 129 -41q74 -39 105 -39q28 0 69 35t72 35q30 0 54 -23t24 -55q0 -41 -53 -88q-93 -72 -172 -72q-56 0 -130 39t-104 39q-28 0 -70 -31 t-65 -31q-31 0 -55.5 23.5t-24.5 54.5z" />
<glyph unicode="&#xd6;" horiz-adv-x="1435" d="M127 606q12 136 39 281q53 266 219 418q168 155 430 155q275 0 438 -178q162 -174 138 -440q-12 -155 -39 -289q-51 -274 -218.5 -425t-418.5 -151q-263 0 -439 173t-149 456zM342 596q-15 -203 90 -305q108 -105 275 -105q160 0 266.5 93t148.5 262q34 135 49 311 q15 175 -88 287q-100 112 -278 112q-154 0 -266.5 -102t-153.5 -281q-34 -146 -43 -272zM608 1657q0 49 36 85t85 36q45 0 73.5 -28t28.5 -75q0 -51 -34 -86t-84 -35q-47 0 -76 29t-29 74zM956 1657q0 49 36 85t85 36q45 0 74 -28t29 -75q0 -51 -34.5 -86t-84.5 -35 q-47 0 -76 29t-29 74z" />
<glyph unicode="&#xd7;" d="M157.5 1090.5q-0.5 43.5 30.5 72.5q32 31 73 30t73 -32l299 -297l293 291q31 31 74.5 31.5t74.5 -31.5q29 -31 27.5 -72t-31.5 -71l-295 -293l293 -287q32 -31 33.5 -73t-27.5 -74q-31 -32 -74 -32t-75 32l-293 290l-297 -294q-32 -32 -72.5 -34t-75.5 29q-31 29 -30 73 t32 75l299 295l-299 297q-32 31 -32.5 74.5z" />
<glyph unicode="&#xd8;" horiz-adv-x="1435" d="M121 606q14 164 37 273q52 272 222 426.5t429 154.5q203 0 350 -102l49 59q34 43 80 43q35 0 60.5 -24.5t25.5 -59.5q0 -40 -33 -73l-57 -68q121 -154 100 -393q-12 -132 -38 -289q-51 -277 -217.5 -426.5t-423.5 -149.5q-202 0 -359 109l-55 -68q-35 -41 -80 -41 q-37 0 -60.5 23.5t-23.5 58.5q0 39 33 78l59 72q-119 168 -98 397zM338 618q-15 -152 33 -249l639 825q-86 57 -211 57q-154 0 -266.5 -102t-153.5 -281q-30 -131 -41 -250zM485 242q92 -56 215 -56q160 0 267 93t149 262q35 140 47 284q15 151 -37 242z" />
<glyph unicode="&#xd9;" horiz-adv-x="1462" d="M176 674l115 672q15 102 104 102q54 0 83.5 -38t19.5 -95l-113 -672q-41 -244 59 -350q103 -109 289 -109q148 0 249.5 106.5t133.5 297.5l125 758q7 46 37.5 74t69.5 28q54 0 83 -37.5t19 -97.5l-123 -744q-50 -301 -203 -446.5t-389 -145.5q-261 0 -434 162 q-87 84 -121 223t-4 312zM563 1780q0 37 24.5 61.5t61.5 24.5q25 0 51 -13l271 -151q47 -27 47 -74q0 -35 -24.5 -58.5t-61.5 -23.5q-34 0 -58 15l-264 143q-47 27 -47 76z" />
<glyph unicode="&#xda;" horiz-adv-x="1462" d="M176 674l115 672q15 102 104 102q54 0 83.5 -38t19.5 -95l-113 -672q-41 -244 59 -350q103 -109 289 -109q148 0 249.5 106.5t133.5 297.5l125 758q7 46 37.5 74t69.5 28q54 0 83 -37.5t19 -97.5l-123 -744q-50 -301 -203 -446.5t-389 -145.5q-261 0 -434 162 q-87 84 -121 223t-4 312zM715 1632q0 54 53 78l289 139q32 13 57 13q37 0 60.5 -23.5t23.5 -56.5q0 -58 -70 -88l-286 -135q-26 -11 -45 -11q-33 0 -57.5 23.5t-24.5 60.5z" />
<glyph unicode="&#xdb;" horiz-adv-x="1462" d="M176 674l115 672q15 102 104 102q54 0 83.5 -38t19.5 -95l-113 -672q-41 -244 59 -350q103 -109 289 -109q148 0 249.5 106.5t133.5 297.5l125 758q7 46 37.5 74t69.5 28q54 0 83 -37.5t19 -97.5l-123 -744q-50 -301 -203 -446.5t-389 -145.5q-261 0 -434 162 q-87 84 -121 223t-4 312zM608 1610q0 45 47 80l224 155q41 27 75 27q38 0 74 -31l166 -155q35 -35 35 -74q0 -32 -24 -56t-56 -24q-39 0 -68 29l-137 127l-199 -134q-33 -20 -61 -20q-31 0 -53.5 22.5t-22.5 53.5z" />
<glyph unicode="&#xdc;" horiz-adv-x="1462" d="M176 674l115 672q15 102 104 102q54 0 83.5 -38t19.5 -95l-113 -672q-41 -244 59 -350q103 -109 289 -109q148 0 249.5 106.5t133.5 297.5l125 758q7 46 37.5 74t69.5 28q54 0 83 -37.5t19 -97.5l-123 -744q-50 -301 -203 -446.5t-389 -145.5q-261 0 -434 162 q-87 84 -121 223t-4 312zM623 1657q0 50 35.5 85.5t84.5 35.5q45 0 74 -28t29 -75q0 -51 -34.5 -86t-84.5 -35q-47 0 -75.5 29t-28.5 74zM971 1657q0 49 35.5 85t85.5 36q45 0 73.5 -28t28.5 -75q0 -51 -34.5 -86t-84.5 -35q-47 0 -75.5 29t-28.5 74z" />
<glyph unicode="&#xdd;" horiz-adv-x="1280" d="M86 1339q0 45 32 77t79 32q60 0 100 -64l342 -548l543 569q43 43 92 43q46 0 76 -29t30 -71q0 -54 -43 -97l-557 -571q-54 -61 -63 -105l-80 -481q-15 -102 -105 -102q-54 0 -83 37t-19 92l76 454q9 56 -27 113l-370 580q-23 38 -23 71zM616 1632q0 53 54 78l288 139 q33 13 58 13q37 0 60.5 -23.5t23.5 -56.5q0 -58 -70 -88l-287 -135q-26 -11 -45 -11q-33 0 -57.5 23.5t-24.5 60.5z" />
<glyph unicode="&#xde;" horiz-adv-x="1273" d="M111 113l202 1220q18 115 117 115q46 0 74.5 -33.5t21.5 -85.5l-22 -139h215q259 0 403 -112.5t144 -313.5q0 -227 -156 -365q-154 -139 -420 -139h-340l-26 -158q-8 -50 -38.5 -80t-74.5 -30q-50 0 -78.5 35t-21.5 86zM383 463h309q167 0 257.5 76.5t90.5 218.5 q0 233 -297 233h-272z" />
<glyph unicode="&#xdf;" horiz-adv-x="1288" d="M88 117l152 913q71 434 479 434q176 0 289 -88q114 -86 114 -229q0 -64 -31.5 -125.5t-76.5 -101.5q-109 -93 -109 -138q0 -13 5.5 -25.5t12.5 -22t23 -23.5t26 -21.5t33.5 -24t34.5 -24.5q97 -68 144 -134.5t47 -162.5q0 -152 -111 -260q-110 -104 -291 -104 q-197 0 -333 118q-45 39 -45 86q0 41 26.5 68t67.5 27q30 0 80 -29q112 -74 198 -74q91 0 146 49.5t55 124.5q0 52 -30.5 86.5t-108.5 81.5q-101 61 -149 119t-48 135q0 52 23 98t56 79.5t66.5 64t56.5 62.5t23 63q0 61 -51.5 95t-142.5 34q-230 0 -270 -254l-154 -916 q-15 -106 -107 -106q-50 0 -78.5 35.5t-21.5 89.5z" />
<glyph unicode="&#xe0;" horiz-adv-x="1110" d="M61 324q0 159 115 251q118 95 285 95q159 0 313 -62l17 97q17 99 -34.5 152.5t-162.5 53.5q-59 0 -217 -51q-58 -13 -96.5 12.5t-38.5 71.5q0 62 67 96q115 62 309 62q187 0 295 -111q108 -108 74 -307l-90 -518q-9 -61 -53 -88q-143 -98 -357 -98q-201 0 -313 100 q-113 101 -113 244zM266 326q0 -75 58 -119.5t161 -44.5q142 0 224 55l36 229q-121 56 -233 56q-107 0 -176.5 -45t-69.5 -131zM373 1442q0 37 24.5 61.5t61.5 24.5q27 0 51 -12l270 -152q47 -27 47 -74q0 -35 -24.5 -58.5t-61.5 -23.5q-33 0 -57 15l-264 143q-47 27 -47 76 z" />
<glyph unicode="&#xe1;" horiz-adv-x="1116" d="M61 324q0 159 115 251q118 95 285 95q159 0 313 -62l17 97q17 99 -34.5 152.5t-162.5 53.5q-59 0 -217 -51q-58 -13 -96.5 12.5t-38.5 71.5q0 62 67 96q115 62 309 62q187 0 295 -111q108 -108 74 -307l-90 -518q-9 -61 -53 -88q-143 -98 -357 -98q-201 0 -313 100 q-113 101 -113 244zM266 326q0 -75 58 -119.5t161 -44.5q142 0 224 55l36 229q-121 56 -233 56q-107 0 -176.5 -45t-69.5 -131zM504 1296q0 54 53 78l289 139q33 13 57 13q37 0 60.5 -23.5t23.5 -56.5q0 -59 -69 -88l-287 -135q-26 -11 -45 -11q-33 0 -57.5 23.5t-24.5 60.5 z" />
<glyph unicode="&#xe2;" horiz-adv-x="1118" d="M61 324q0 159 115 251q118 95 285 95q159 0 313 -62l17 97q17 99 -34.5 152.5t-162.5 53.5q-59 0 -217 -51q-58 -13 -96.5 12.5t-38.5 71.5q0 62 67 96q115 62 309 62q187 0 295 -111q108 -108 74 -307l-90 -518q-9 -61 -53 -88q-143 -98 -357 -98q-201 0 -313 100 q-113 101 -113 244zM266 326q0 -75 58 -119.5t161 -44.5q142 0 224 55l36 229q-121 56 -233 56q-107 0 -176.5 -45t-69.5 -131zM348 1249q0 45 47 80l223 156q39 26 76 26q40 0 74 -30l166 -156q35 -35 35 -74q0 -32 -24 -56t-56 -24q-39 0 -68 29l-137 127l-199 -133 q-33 -20 -61 -20q-31 0 -53.5 22t-22.5 53z" />
<glyph unicode="&#xe3;" horiz-adv-x="1124" d="M61 324q0 159 115 251q118 95 285 95q159 0 313 -62l17 97q17 99 -34.5 152.5t-162.5 53.5q-59 0 -217 -51q-58 -13 -96.5 12.5t-38.5 71.5q0 62 67 96q115 62 309 62q187 0 295 -111q108 -108 74 -307l-90 -518q-9 -61 -53 -88q-143 -98 -357 -98q-201 0 -313 100 q-113 101 -113 244zM266 326q0 -75 58 -119.5t161 -44.5q142 0 224 55l36 229q-121 56 -233 56q-107 0 -176.5 -45t-69.5 -131zM348 1309q0 38 45 77q88 76 176 76q52 0 129 -41q74 -39 105 -39q28 0 69 35t72 35q30 0 54 -23t24 -55q0 -41 -53 -88q-93 -72 -172 -72 q-55 0 -129 39t-105 39q-29 0 -69 -30q-42 -31 -66 -31q-31 0 -55.5 23.5t-24.5 54.5z" />
<glyph unicode="&#xe4;" horiz-adv-x="1114" d="M61 324q0 159 115 251q118 95 285 95q159 0 313 -62l17 97q17 99 -34.5 152.5t-162.5 53.5q-59 0 -217 -51q-58 -13 -96.5 12.5t-38.5 71.5q0 62 67 96q115 62 309 62q187 0 295 -111q108 -108 74 -307l-90 -518q-9 -61 -53 -88q-143 -98 -357 -98q-201 0 -313 100 q-113 101 -113 244zM266 326q0 -75 58 -119.5t161 -44.5q142 0 224 55l36 229q-121 56 -233 56q-107 0 -176.5 -45t-69.5 -131zM395 1325q0 49 35.5 85t85.5 36q45 0 73.5 -28t28.5 -75q0 -51 -34 -85.5t-84 -34.5q-47 0 -76 28.5t-29 73.5zM743 1325q0 49 35.5 85t85.5 36 q45 0 74 -28t29 -75q0 -51 -34.5 -85.5t-84.5 -34.5q-47 0 -76 28.5t-29 73.5z" />
<glyph unicode="&#xe5;" horiz-adv-x="1110" d="M61 324q0 159 115 251q118 95 285 95q159 0 313 -62l17 97q17 99 -34.5 152.5t-162.5 53.5q-59 0 -217 -51q-58 -13 -96.5 12.5t-38.5 71.5q0 62 67 96q115 62 309 62q187 0 295 -111q108 -108 74 -307l-90 -518q-9 -61 -53 -88q-143 -98 -357 -98q-201 0 -313 100 q-113 101 -113 244zM266 326q0 -75 58 -119.5t161 -44.5q142 0 224 55l36 229q-121 56 -233 56q-107 0 -176.5 -45t-69.5 -131zM487 1358q0 90 63 155.5t159 65.5q86 0 140 -53t54 -135q0 -93 -61.5 -159.5t-157.5 -66.5q-86 0 -141.5 55.5t-55.5 137.5zM604 1362 q0 -36 23 -59t59 -23q43 0 70.5 29t27.5 71q0 37 -22.5 60.5t-59.5 23.5q-42 0 -70 -30t-28 -72z" />
<glyph unicode="&#xe6;" horiz-adv-x="1781" d="M61 324q0 168 119 256q122 90 281 90q164 0 319 -64l17 96q20 102 -33 155.5t-170 53.5q-59 0 -217 -51q-59 -13 -97 12.5t-38 71.5q0 62 67 96q121 62 303 62q218 0 326 -156q135 156 365 156q184 0 307 -123q126 -123 76 -348l-9 -37q-27 -131 -147 -131h-561 q-11 -68 -11 -80q0 -100 69 -150.5t187 -50.5q115 0 236 56q27 12 51 12q37 0 63.5 -28t26.5 -64q0 -64 -71 -105q-125 -73 -312 -73q-219 0 -344 131q-165 -131 -377 -131q-201 0 -313 100q-113 101 -113 244zM266 326q0 -75 57.5 -119.5t161.5 -44.5q164 0 291 92 q-25 80 -16 186q-130 62 -244 62q-111 0 -180.5 -44.5t-69.5 -131.5zM985 629h471q33 0 39 28q25 131 -32 197t-177 66q-255 0 -301 -291z" />
<glyph unicode="&#xe7;" horiz-adv-x="1114" d="M113 457q11 101 39 237q41 198 167 303t312 105q151 0 257.5 -67t145.5 -169q15 -37 15 -67q0 -48 -28 -77.5t-77 -29.5q-68 0 -86 58q-52 149 -235 149q-215 0 -271 -244q-26 -115 -33 -209q-12 -122 57.5 -193t190.5 -71q171 0 232 150q24 59 90 59q42 0 70 -27t28 -69 q0 -25 -10 -55q-35 -94 -129 -174q-97 -78 -256 -84l-43 -74q75 -2 124.5 -48t49.5 -118q0 -97 -78.5 -165t-204.5 -103q-18 -6 -47 -6q-27 0 -47 17.5t-20 45.5q0 50 65 74q1 0 11 3.5t21.5 7.5t14.5 5q34 7 54 23q35 14 59 40t24 56q0 51 -57 51q-9 0 -34 -5t-33 -5 q-37 0 -54.5 28.5t0.5 63.5l60 119q-161 29 -264 151q-98 119 -80 314z" />
<glyph unicode="&#xe8;" horiz-adv-x="1118" d="M113 434q3 34 41 248q40 208 171 314t316 106q96 0 177 -28.5t141 -87t81.5 -147t-0.5 -208.5l-8 -37q-34 -131 -149 -131h-559l-7 -37q-18 -119 50 -182.5t202 -63.5q114 0 232 56q32 14 51 14q42 0 68 -27t26 -69q0 -60 -72 -101q-134 -73 -309 -73q-221 0 -346 122 q-124 124 -106 332zM350 629h463q31 0 37 28q25 131 -33 197t-176 66q-124 0 -194.5 -71t-96.5 -220zM387 1444q0 37 24.5 61.5t61.5 24.5q27 0 51 -12l271 -152q47 -27 47 -74q0 -35 -24.5 -58.5t-61.5 -23.5q-34 0 -58 15l-264 143q-47 27 -47 76z" />
<glyph unicode="&#xe9;" horiz-adv-x="1118" d="M113 434q3 34 41 248q40 208 171 314t316 106q96 0 177 -28.5t141 -87t81.5 -147t-0.5 -208.5l-8 -37q-34 -131 -149 -131h-559l-7 -37q-18 -119 50 -182.5t202 -63.5q114 0 232 56q32 14 51 14q42 0 68 -27t26 -69q0 -60 -72 -101q-134 -73 -309 -73q-221 0 -346 122 q-124 124 -106 332zM350 629h463q31 0 37 28q25 131 -33 197t-176 66q-124 0 -194.5 -71t-96.5 -220zM530 1294q0 53 54 78l288 139q32 13 58 13q37 0 60.5 -23.5t23.5 -56.5q0 -58 -70 -88l-287 -135q-26 -11 -45 -11q-33 0 -57.5 23.5t-24.5 60.5z" />
<glyph unicode="&#xea;" horiz-adv-x="1122" d="M113 434q3 34 41 248q40 208 171 314t316 106q96 0 177 -28.5t141 -87t81.5 -147t-0.5 -208.5l-8 -37q-34 -131 -149 -131h-559l-7 -37q-18 -119 50 -182.5t202 -63.5q114 0 232 56q32 14 51 14q42 0 68 -27t26 -69q0 -60 -72 -101q-134 -73 -309 -73q-221 0 -346 122 q-124 124 -106 332zM350 629h463q31 0 37 28q25 131 -33 197t-176 66q-124 0 -194.5 -71t-96.5 -220zM377 1278q0 45 47 80l223 155q40 27 76 27q38 0 74 -31l166 -155q34 -34 34 -74q0 -32 -23.5 -56t-55.5 -24q-39 0 -68 29l-137 127l-199 -133q-35 -21 -61 -21 q-31 0 -53.5 22.5t-22.5 53.5z" />
<glyph unicode="&#xeb;" horiz-adv-x="1118" d="M113 434q3 34 41 248q40 208 171 314t316 106q96 0 177 -28.5t141 -87t81.5 -147t-0.5 -208.5l-8 -37q-34 -131 -149 -131h-559l-7 -37q-18 -119 50 -182.5t202 -63.5q114 0 232 56q32 14 51 14q42 0 68 -27t26 -69q0 -60 -72 -101q-134 -73 -309 -73q-221 0 -346 122 q-124 124 -106 332zM350 629h463q31 0 37 28q25 131 -33 197t-176 66q-124 0 -194.5 -71t-96.5 -220zM416 1325q0 49 36 85t85 36q45 0 73.5 -28t28.5 -75q0 -51 -34.5 -85.5t-84.5 -34.5q-47 0 -75.5 28.5t-28.5 73.5zM764 1325q0 49 36 85t85 36q45 0 73.5 -28t28.5 -75 q0 -51 -34.5 -85.5t-84.5 -34.5q-47 0 -75.5 28.5t-28.5 73.5z" />
<glyph unicode="&#xec;" horiz-adv-x="595" d="M45 1442q0 37 24.5 61.5t61.5 24.5q27 0 51 -12l271 -152q47 -27 47 -74q0 -35 -24.5 -58.5t-61.5 -23.5q-34 0 -58 15l-264 143q-47 27 -47 76zM100 123l144 866q15 101 106 101q53 0 82 -38t21 -96l-146 -866q-15 -98 -104 -98q-54 0 -82.5 37t-20.5 94z" />
<glyph unicode="&#xed;" horiz-adv-x="595" d="M109 123l143 866q15 101 106 101q53 0 82 -38t21 -96l-146 -866q-15 -98 -104 -98q-54 0 -82 36.5t-20 94.5zM297 1294q0 54 53 78l289 139q32 13 57 13q37 0 60.5 -23.5t23.5 -56.5q0 -59 -69 -88l-287 -135q-26 -11 -45 -11q-33 0 -57.5 23.5t-24.5 60.5z" />
<glyph unicode="&#xee;" horiz-adv-x="595" d="M80 1278q0 45 47 80l223 155q40 27 76 27q38 0 74 -31l166 -155q34 -34 34 -74q0 -32 -23.5 -56t-55.5 -24q-39 0 -68 29l-137 127l-199 -133q-35 -21 -61 -21q-31 0 -53.5 22.5t-22.5 53.5zM100 123l144 866q15 101 106 101q53 0 82 -38t21 -96l-146 -866 q-15 -98 -104 -98q-54 0 -82.5 37t-20.5 94z" />
<glyph unicode="&#xef;" horiz-adv-x="595" d="M109 123l143 866q15 101 106 101q53 0 82 -38t21 -96l-146 -866q-15 -98 -104 -98q-54 0 -82 36.5t-20 94.5zM131 1325q0 49 35.5 85t85.5 36q45 0 73.5 -28t28.5 -75q0 -51 -34 -85.5t-84 -34.5q-47 0 -76 28.5t-29 73.5zM479 1325q0 49 35.5 85t85.5 36q45 0 73.5 -28 t28.5 -75q0 -51 -34 -85.5t-84 -34.5q-47 0 -76 28.5t-29 73.5z" />
<glyph unicode="&#xf0;" horiz-adv-x="1204" d="M106 438q5 73 31 197q40 197 161 300t298 103q89 0 173 -32.5t142 -96.5q15 182 -37 283l-137 -59q-42 -16 -82 2q-39 20 -39 71q0 53 56 74l123 51l-45 49q-23 30 -23 52q0 37 25.5 62.5t66.5 25.5q30 0 68 -23q44 -33 92 -90l104 45q41 22 81 1t40 -71q0 -53 -63 -79 l-92 -41q81 -172 34 -482l-59 -352q-36 -208 -157.5 -325t-313.5 -117q-211 0 -338 127q-124 127 -109 325zM317 432q-7 -122 54.5 -185t179.5 -63q99 0 164 62t92 170q22 78 31 194q11 94 -55.5 160t-172.5 66q-98 0 -168 -60.5t-96 -165.5q-26 -97 -29 -178z" />
<glyph unicode="&#xf1;" horiz-adv-x="1212" d="M90 123l131 782q8 55 62 90q180 107 399 107q205 0 324 -113q121 -115 84 -338l-95 -559q-15 -100 -106 -100q-51 0 -79.5 36t-21.5 93l89 522q12 72 -2 124t-49 78t-74 37t-86 11q-131 0 -246 -68l-121 -735q-15 -98 -106 -98q-54 0 -82.5 37t-20.5 94zM377 1309 q0 38 45 77q88 76 176 76q52 0 129 -41q74 -39 104 -39q29 0 70 35t72 35q30 0 54 -23t24 -55q0 -40 -54 -88q-93 -72 -172 -72q-55 0 -129 39t-104 39t-70 -30q-42 -31 -65 -31q-31 0 -55.5 23.5t-24.5 54.5z" />
<glyph unicode="&#xf2;" horiz-adv-x="1153" d="M109 449q10 130 41 251q42 194 170.5 298t316.5 104q195 0 326 -125t116 -342q-10 -131 -41 -252q-42 -194 -164.5 -298.5t-295.5 -104.5q-213 0 -349 124q-135 124 -120 345zM317 451q-13 -125 58 -197t192 -72q211 0 273 250q21 94 30 197q12 129 -63 198 q-75 72 -180 72q-224 0 -279 -248q-20 -93 -31 -200zM393 1442q0 37 24.5 61.5t61.5 24.5q27 0 51 -12l271 -152q47 -27 47 -74q0 -35 -24.5 -58.5t-61.5 -23.5q-33 0 -57 15l-265 143q-47 27 -47 76z" />
<glyph unicode="&#xf3;" horiz-adv-x="1153" d="M109 449q10 130 41 251q42 194 170.5 298t316.5 104q195 0 326 -125t116 -342q-10 -131 -41 -252q-42 -194 -164.5 -298.5t-295.5 -104.5q-213 0 -349 124q-135 124 -120 345zM317 451q-13 -125 58 -197t192 -72q211 0 273 250q21 94 30 197q12 129 -63 198 q-75 72 -180 72q-224 0 -279 -248q-20 -93 -31 -200zM541 1294q0 54 53 78l289 139q33 13 57 13q37 0 60.5 -23.5t23.5 -56.5q0 -58 -70 -88l-286 -135q-26 -11 -45 -11q-33 0 -57.5 23.5t-24.5 60.5z" />
<glyph unicode="&#xf4;" horiz-adv-x="1153" d="M109 449q10 130 41 251q42 194 170.5 298t316.5 104q195 0 326 -125t116 -342q-10 -131 -41 -252q-42 -194 -164.5 -298.5t-295.5 -104.5q-213 0 -349 124q-135 124 -120 345zM317 451q-13 -125 58 -197t192 -72q211 0 273 250q21 94 30 197q12 129 -63 198 q-75 72 -180 72q-224 0 -279 -248q-20 -93 -31 -200zM387 1276q0 45 47 80l223 155q41 27 76 27q38 0 74 -31l166 -155q35 -35 35 -74q0 -32 -24 -56t-56 -24q-39 0 -68 29l-137 127l-199 -133q-34 -21 -61 -21q-31 0 -53.5 22.5t-22.5 53.5z" />
<glyph unicode="&#xf5;" horiz-adv-x="1155" d="M109 449q10 130 41 251q42 194 170.5 298t316.5 104q195 0 326 -125t116 -342q-10 -131 -41 -252q-42 -194 -164.5 -298.5t-295.5 -104.5q-213 0 -349 124q-135 124 -120 345zM317 451q-13 -125 58 -197t192 -72q211 0 273 250q21 94 30 197q12 129 -63 198 q-75 72 -180 72q-224 0 -279 -248q-20 -93 -31 -200zM373 1309q0 38 45 77q88 76 176 76q52 0 129 -41q74 -39 104 -39q29 0 70 35t72 35q30 0 54 -23t24 -55q0 -40 -54 -88q-93 -72 -172 -72q-55 0 -129 39t-104 39t-70 -30q-42 -31 -65 -31q-31 0 -55.5 23.5t-24.5 54.5z " />
<glyph unicode="&#xf6;" horiz-adv-x="1153" d="M109 449q10 130 41 251q42 194 170.5 298t316.5 104q195 0 326 -125t116 -342q-10 -131 -41 -252q-42 -194 -164.5 -298.5t-295.5 -104.5q-213 0 -349 124q-135 124 -120 345zM317 451q-13 -125 58 -197t192 -72q211 0 273 250q21 94 30 197q12 129 -63 198 q-75 72 -180 72q-224 0 -279 -248q-20 -93 -31 -200zM420 1325q0 49 36 85t85 36q45 0 73.5 -28t28.5 -75q0 -51 -34.5 -85.5t-84.5 -34.5q-47 0 -75.5 28.5t-28.5 73.5zM768 1325q0 49 36 85t85 36q45 0 73.5 -28t28.5 -75q0 -51 -34.5 -85.5t-84.5 -34.5q-47 0 -75.5 28.5 t-28.5 73.5z" />
<glyph unicode="&#xf7;" d="M111 715q0 44 30.5 73t75.5 29h830q45 0 75.5 -29t30.5 -73q0 -41 -31.5 -71t-74.5 -30h-830q-44 0 -75 30t-31 71zM537 282.5q-14 38.5 4 75.5q19 37 57.5 51.5t75.5 -3.5q38 -17 53 -56.5t-4 -77.5q-19 -39 -58 -53t-77 4q-37 21 -51 59.5zM537 1085q-14 38 4.5 78.5 t56.5 53.5t76.5 -6t52.5 -58q13 -38 -5 -75.5t-56 -51.5q-38 -13 -76.5 4.5t-52.5 54.5z" />
<glyph unicode="&#xf8;" horiz-adv-x="1165" d="M10 57q0 37 33 70l88 86q-54 105 -39 254q8 98 37 225q42 198 170.5 304t314.5 106q191 0 316 -113l74 74q31 31 69 31q29 0 48.5 -18t19.5 -44q0 -37 -37 -74l-86 -81q53 -115 41 -261q-8 -91 -37 -225q-42 -197 -165.5 -304t-297.5 -107q-216 0 -340 118l-72 -71 q-33 -33 -71 -33q-27 0 -46.5 18.5t-19.5 44.5zM299 375l477 467q-66 57 -170 57q-218 0 -276 -248q-12 -56 -25 -149q-12 -89 -6 -127zM367 240q70 -58 184 -58q211 0 270 250q16 57 25 143q12 98 4 136z" />
<glyph unicode="&#xf9;" horiz-adv-x="1187" d="M156 479l84 508q18 103 108 103q51 0 80 -36.5t21 -92.5l-82 -494q-24 -141 35 -210t180 -69q125 0 237 74l119 727q15 101 104 101q56 0 85.5 -37t19.5 -97l-131 -776q-9 -55 -55 -84q-174 -116 -390 -116q-202 0 -329 133q-126 132 -86 366zM395 1442q0 37 24.5 61.5 t61.5 24.5q27 0 51 -12l271 -152q47 -27 47 -74q0 -35 -24.5 -58.5t-61.5 -23.5q-33 0 -57 15l-265 143q-47 27 -47 76z" />
<glyph unicode="&#xfa;" horiz-adv-x="1187" d="M156 479l84 508q18 103 108 103q51 0 80 -36.5t21 -92.5l-82 -494q-24 -141 35 -210t180 -69q125 0 237 74l119 727q15 101 104 101q56 0 85.5 -37t19.5 -97l-131 -776q-9 -55 -55 -84q-174 -116 -390 -116q-202 0 -329 133q-126 132 -86 366zM567 1294q0 53 54 78 l288 139q32 13 58 13q37 0 60.5 -23.5t23.5 -56.5q0 -58 -70 -88l-287 -135q-26 -11 -45 -11q-33 0 -57.5 23.5t-24.5 60.5z" />
<glyph unicode="&#xfb;" horiz-adv-x="1187" d="M156 479l84 508q18 103 108 103q51 0 80 -36.5t21 -92.5l-82 -494q-24 -141 35 -210t180 -69q125 0 237 74l119 727q15 101 104 101q56 0 85.5 -37t19.5 -97l-131 -776q-9 -55 -55 -84q-174 -116 -390 -116q-202 0 -329 133q-126 132 -86 366zM385 1278q0 45 47 80 l223 155q40 27 76 27q38 0 74 -31l166 -155q35 -35 35 -74q0 -32 -24 -56t-56 -24q-39 0 -68 29l-137 127l-199 -133q-34 -21 -61 -21q-31 0 -53.5 22.5t-22.5 53.5z" />
<glyph unicode="&#xfc;" horiz-adv-x="1187" d="M156 479l84 508q18 103 108 103q51 0 80 -36.5t21 -92.5l-82 -494q-24 -141 35 -210t180 -69q125 0 237 74l119 727q15 101 104 101q56 0 85.5 -37t19.5 -97l-131 -776q-9 -55 -55 -84q-174 -116 -390 -116q-202 0 -329 133q-126 132 -86 366zM426 1325q0 49 36 85t85 36 q45 0 73.5 -28t28.5 -75q0 -51 -34.5 -85.5t-84.5 -34.5q-47 0 -75.5 28.5t-28.5 73.5zM774 1325q0 49 36 85t85 36q45 0 73.5 -28t28.5 -75q0 -51 -34 -85.5t-84 -34.5q-47 0 -76 28.5t-29 73.5z" />
<glyph unicode="&#xfd;" horiz-adv-x="1054" d="M6 -315q0 62 70 96q146 78 268 289l-227 870q-17 65 12 107.5t90 42.5q80 0 107 -99l114 -446q24 -101 35 -236q0 -14 12 -14q6 0 15 12q60 143 110 232l262 477q41 74 101 74q67 0 94 -56q28 -57 -6 -108l-514 -910q-156 -275 -320 -381q-64 -43 -127 -43 q-39 0 -67.5 27.5t-28.5 65.5zM494 1296q0 54 53 78l289 139q33 13 57 13q37 0 60.5 -23.5t23.5 -56.5q0 -58 -70 -88l-286 -135q-26 -11 -46 -11q-33 0 -57 23.5t-24 60.5z" />
<glyph unicode="&#xfe;" horiz-adv-x="1175" d="M25 -289l272 1639q21 112 113 112q49 0 75.5 -35.5t18.5 -80.5l-47 -281q107 37 211 37q206 0 319 -119q116 -122 107 -301q-9 -142 -43 -289q-94 -413 -473 -413q-137 0 -289 67l-58 -338q-21 -117 -104 -117q-53 0 -81.5 35t-20.5 84zM324 250q38 -27 106 -47.5 t131 -20.5q222 0 281 238q30 139 39 213q13 123 -49 194.5t-181 71.5q-114 0 -229 -59z" />
<glyph unicode="&#xff;" horiz-adv-x="1054" d="M6 -315q0 62 70 96q146 78 268 289l-227 870q-17 65 12 107.5t90 42.5q80 0 107 -99l114 -446q24 -101 35 -236q0 -14 12 -14q6 0 15 12q60 143 110 232l262 477q41 74 101 74q67 0 94 -56q28 -57 -6 -108l-514 -910q-156 -275 -320 -381q-64 -43 -127 -43 q-39 0 -67.5 27.5t-28.5 65.5zM360 1325q0 49 36 85t85 36q45 0 74 -28t29 -75q0 -51 -34.5 -85.5t-84.5 -34.5q-47 0 -76 28.5t-29 73.5zM709 1325q0 50 35.5 85.5t84.5 35.5q45 0 74 -28t29 -75q0 -51 -34.5 -85.5t-84.5 -34.5q-47 0 -75.5 28.5t-28.5 73.5z" />
<glyph unicode="&#x152;" horiz-adv-x="2127" d="M121 612q11 119 37 273q108 575 706 575q50 0 275 -10t254 -10h632q67 5 93.5 -47.5t-2 -105.5t-93.5 -48h-630l-72 -422h567q44 0 72.5 -27.5t28.5 -66.5q0 -41 -30 -67.5t-73 -26.5h-594l-73 -428h620q50 0 79.5 -29t29.5 -74q0 -43 -31.5 -70.5t-79.5 -27.5h-700 q-12 0 -179 -10q-162 -13 -241 -13q-282 0 -451 175q-166 175 -145 460zM338 612q-21 -188 80 -307t330 -119q134 0 262 23l168 1018q-150 24 -326 24q-395 0 -475 -397q-33 -176 -39 -242z" />
<glyph unicode="&#x153;" horiz-adv-x="1835" d="M117 469q8 81 37 225q44 199 171.5 303.5t315.5 104.5q251 0 356 -182q74 98 161.5 140t211.5 42q88 0 166.5 -28.5t138.5 -83.5t85 -148t1 -211l-8 -37q-30 -131 -149 -131h-560l-6 -37q-20 -118 50 -181t200 -63q119 0 236 54q32 14 53 14q36 0 63 -27t27 -63 q0 -63 -72 -107q-125 -73 -303 -73q-257 0 -364 165q-140 -165 -344 -165q-212 0 -351 124q-137 125 -116 365zM324 449q-12 -126 57.5 -196.5t191.5 -70.5q215 0 273 252q22 91 31 191q12 125 -59 199.5t-185 74.5q-110 0 -182 -64t-97 -182q-21 -101 -30 -204zM1071 629 h463q31 0 37 28q26 130 -31 196.5t-178 66.5q-123 0 -192 -70t-99 -221z" />
<glyph unicode="&#x178;" horiz-adv-x="1280" d="M86 1339q0 45 32 77t79 32q60 0 100 -64l342 -548l543 569q43 43 92 43q46 0 76 -29t30 -71q0 -54 -43 -97l-557 -571q-54 -61 -63 -105l-80 -481q-15 -102 -105 -102q-54 0 -83 37t-19 92l76 454q9 56 -27 113l-370 580q-23 38 -23 71zM479 1552q0 50 35.5 85.5 t85.5 35.5q45 0 73.5 -27.5t28.5 -74.5q0 -51 -34 -86t-84 -35q-47 0 -76 28.5t-29 73.5zM827 1552q0 50 35.5 85.5t85.5 35.5q45 0 74 -28t29 -74q0 -51 -34.5 -86t-84.5 -35q-47 0 -76 28.5t-29 73.5z" />
<glyph unicode="&#x2c6;" horiz-adv-x="741" d="M168 1610q0 45 47 80l223 155q40 27 76 27q38 0 74 -31l166 -155q34 -34 34 -74q0 -32 -23.5 -56t-55.5 -24q-39 0 -68 29l-137 127l-199 -134q-33 -20 -61 -20q-31 0 -53.5 22.5t-22.5 53.5z" />
<glyph unicode="&#x2dc;" horiz-adv-x="741" d="M154 1632q0 39 45 78q88 76 176 76q52 0 129 -41q74 -39 104 -39q29 0 70 35t72 35q30 0 53.5 -23t23.5 -55q0 -41 -53 -88q-93 -72 -172 -72q-55 0 -129 39t-104 39t-72 -31t-64 -31q-31 0 -55 23.5t-24 54.5z" />
<glyph unicode="&#x2000;" horiz-adv-x="974" />
<glyph unicode="&#x2001;" horiz-adv-x="1948" />
<glyph unicode="&#x2002;" horiz-adv-x="974" />
<glyph unicode="&#x2003;" horiz-adv-x="1948" />
<glyph unicode="&#x2004;" horiz-adv-x="649" />
<glyph unicode="&#x2005;" horiz-adv-x="487" />
<glyph unicode="&#x2006;" horiz-adv-x="324" />
<glyph unicode="&#x2007;" horiz-adv-x="324" />
<glyph unicode="&#x2008;" horiz-adv-x="243" />
<glyph unicode="&#x2009;" horiz-adv-x="389" />
<glyph unicode="&#x200a;" horiz-adv-x="108" />
<glyph unicode="&#x2010;" horiz-adv-x="673" d="M84 586q0 47 34.5 78.5t84.5 31.5h274q50 0 81.5 -30t31.5 -72q0 -49 -35.5 -81t-85.5 -32h-272q-53 0 -83 29.5t-30 75.5z" />
<glyph unicode="&#x2011;" horiz-adv-x="673" d="M84 586q0 47 34.5 78.5t84.5 31.5h274q50 0 81.5 -30t31.5 -72q0 -49 -35.5 -81t-85.5 -32h-272q-53 0 -83 29.5t-30 75.5z" />
<glyph unicode="&#x2012;" horiz-adv-x="673" d="M84 586q0 47 34.5 78.5t84.5 31.5h274q50 0 81.5 -30t31.5 -72q0 -49 -35.5 -81t-85.5 -32h-272q-53 0 -83 29.5t-30 75.5z" />
<glyph unicode="&#x2013;" horiz-adv-x="1173" d="M84 586q0 47 34.5 77.5t84.5 30.5h772q52 0 82 -29t30 -73q0 -49 -34.5 -81t-85.5 -32h-770q-52 0 -82.5 30.5t-30.5 76.5z" />
<glyph unicode="&#x2014;" horiz-adv-x="1918" d="M84 586q0 47 34.5 77.5t84.5 30.5h1519q50 0 81.5 -29t31.5 -73q0 -49 -35.5 -81t-85.5 -32h-1517q-52 0 -82.5 30.5t-30.5 76.5z" />
<glyph unicode="&#x2018;" horiz-adv-x="462" d="M174 1042l21 113q24 148 92 225q53 62 108 62q38 0 63 -22.5t25 -57.5q0 -33 -26 -66q-62 -71 -74 -145l-23 -127q-7 -42 -34 -67t-64 -25q-46 0 -71 32.5t-17 77.5z" />
<glyph unicode="&#x2019;" horiz-adv-x="458" d="M141 1014q0 23 29 63q59 68 74 148l20 125q7 42 35.5 67t65.5 25q46 0 71 -33t17 -78l-21 -112q-28 -149 -96 -226q-52 -61 -109 -61q-38 0 -62 22.5t-24 59.5z" />
<glyph unicode="&#x201a;" horiz-adv-x="413" d="M35 -139q0 27 28 63q59 68 74 148l21 125q7 42 35 67t65 25q46 0 71 -33t17 -78l-20 -112q-28 -148 -97 -226q-52 -61 -108 -61q-38 0 -62 22.5t-24 59.5z" />
<glyph unicode="&#x201c;" horiz-adv-x="780" d="M174 1042l21 113q24 148 92 225q53 62 108 62q38 0 63 -22.5t25 -57.5q0 -33 -26 -66q-62 -71 -74 -145l-23 -127q-7 -42 -34 -67t-64 -25q-46 0 -71 32.5t-17 77.5zM492 1042l20 113q24 148 92 225q53 62 109 62q38 0 63 -22.5t25 -57.5q0 -32 -27 -66q-62 -71 -74 -145 l-22 -127q-7 -42 -34 -67t-64 -25q-46 0 -71 32.5t-17 77.5z" />
<glyph unicode="&#x201d;" horiz-adv-x="776" d="M141 1014q0 23 29 63q59 68 74 148l20 125q7 42 35.5 67t65.5 25q46 0 71 -33t17 -78l-21 -112q-28 -149 -96 -226q-52 -61 -109 -61q-38 0 -62 22.5t-24 59.5zM459 1014q0 24 28 63q59 68 74 148l21 125q7 42 35 67t65 25q46 0 71 -33t17 -78l-20 -112 q-28 -148 -97 -226q-52 -61 -108 -61q-38 0 -62 22.5t-24 59.5z" />
<glyph unicode="&#x201e;" horiz-adv-x="759" d="M70 -139q0 27 28 63q59 68 74 148l21 125q7 42 35 67t65 25q46 0 71 -33t17 -78l-21 -112q-28 -149 -96 -226q-52 -61 -108 -61q-38 0 -62 22.5t-24 59.5zM389 -139q0 26 29 63q59 68 74 148l20 125q7 42 35 67t65 25q46 0 71 -33t17 -78l-20 -112q-28 -149 -96 -226 q-52 -61 -109 -61q-38 0 -62 22.5t-24 59.5z" />
<glyph unicode="&#x2022;" horiz-adv-x="944" d="M215 717q0 106 76 182t182 76t182 -76t76 -182t-76 -182t-182 -76t-182 76t-76 182z" />
<glyph unicode="&#x2026;" horiz-adv-x="1361" d="M106 82l27 158q6 41 35.5 67.5t67.5 26.5q44 0 70 -30t18 -73l-25 -157q-7 -43 -35.5 -68.5t-66.5 -25.5q-43 0 -70 30.5t-21 71.5zM563 82l27 158q6 41 35 67.5t67 26.5q44 0 70 -30t18 -73l-24 -157q-7 -42 -35.5 -68t-67.5 -26q-43 0 -69.5 30.5t-20.5 71.5zM1012 82 l26 158q6 41 35.5 67.5t67.5 26.5q44 0 70 -30t18 -73l-25 -157q-7 -43 -35.5 -68.5t-66.5 -25.5q-43 0 -69.5 30.5t-20.5 71.5z" />
<glyph unicode="&#x202f;" horiz-adv-x="389" />
<glyph unicode="&#x2039;" horiz-adv-x="694" d="M63 715q0 99 99 164l295 204q38 23 69 23q38 0 65 -26t27 -62q0 -50 -51 -84l-239 -172q-33 -20 -33 -45q0 -17 16 -33l181 -168q45 -38 25 -94q-16 -44 -60 -61q-57 -20 -111 30l-217 197q-66 54 -66 127z" />
<glyph unicode="&#x203a;" horiz-adv-x="702" d="M92 446q0 50 51 84l240 170q33 23 33 45q0 16 -19 35l-178 168q-33 23 -33 66q0 38 27.5 66t67.5 28q37 0 84 -35l217 -199q65 -56 65 -124q0 -97 -100 -166l-293 -203q-42 -25 -72 -25q-37 0 -63.5 26.5t-26.5 63.5z" />
<glyph unicode="&#x205f;" horiz-adv-x="487" />
<glyph unicode="&#x20ac;" horiz-adv-x="1288" d="M51 573q0 39 29 67t70 28h81l15 102h-62q-38 0 -61 24t-23 60q0 38 29.5 64t71.5 26h84q57 240 214 375t384 135q122 0 228.5 -43t172.5 -119q29 -37 29 -69q0 -39 -27 -67t-65 -28q-43 0 -93 41q-107 93 -247 93q-142 0 -243 -82.5t-142 -235.5h311q62 5 86 -44 q20 -44 -7 -86q-28 -43 -87 -44h-348l-17 -102h336q41 0 64.5 -23.5t23.5 -60.5q0 -41 -28.5 -69t-81.5 -28h-336q-6 -152 70.5 -234.5t219.5 -82.5q140 0 283 113q39 26 72 26q40 0 64 -25.5t24 -62.5q0 -50 -64 -102q-167 -135 -370 -135q-222 0 -359 125t-137 378h-82 q-33 0 -57.5 25.5t-24.5 60.5z" />
<glyph unicode="&#x2122;" horiz-adv-x="1198" d="M100 1378q0 27 20.5 46.5t49.5 19.5h358q38 3 50.5 -34t-12.5 -65q-20 -22 -52 -22h-115l-61 -369q-9 -61 -66 -61q-26 0 -43.5 19.5t-15.5 45.5l61 365h-120q-23 0 -38.5 17t-15.5 38zM526 975l123 381q27 94 111 94q37 0 62 -24.5t26 -65.5l16 -285q0 -12 6 -12 q5 0 11 12l110 289q35 86 107 86q40 0 65 -24t25 -70l-2 -391q0 -32 -16.5 -52t-45.5 -20q-26 0 -43.5 17t-17.5 42l14 324q0 12 -4 12q-7 0 -10 -12l-121 -303q-28 -78 -90 -78q-31 0 -54 22.5t-24 57.5l-18 301q0 12 -6 12t-9 -12l-98 -330q-18 -53 -61 -53 q-33 0 -50.5 24t-5.5 58z" />
<glyph unicode="&#x25fc;" horiz-adv-x="1085" d="M0 0v1085h1085v-1085h-1085z" />
<glyph unicode="&#xfb02;" horiz-adv-x="1413" d="M113 942q0 38 29.5 65t72.5 27h78l14 84q62 361 395 361q95 0 191 -41q59 -35 59 -84q0 -40 -25.5 -69.5t-66.5 -29.5q-12 0 -73 13.5t-93 13.5q-152 0 -182 -176l-10 -72h235q44 0 72.5 -27.5t28.5 -66.5q0 -41 -30 -67.5t-73 -26.5h-260l-125 -756q-7 -47 -35.5 -72.5 t-70.5 -25.5q-54 0 -82.5 37t-20.5 94l121 723h-49q-46 0 -73 27t-27 69zM958 123l207 1237q15 100 105 100q54 0 82 -36.5t20 -94.5l-205 -1239q-15 -98 -106 -98q-54 0 -82.5 37t-20.5 94z" />
</font>
</defs>
</svg>
