<?xml version="1.0" standalone="no"?>
<!DOCTYPE svg PUBLIC "-//W3C//DTD SVG 1.1//EN" "http://www.w3.org/Graphics/SVG/1.1/DTD/svg11.dtd" >
<svg xmlns="http://www.w3.org/2000/svg" xmlns:xlink="http://www.w3.org/1999/xlink" version="1.1">
<metadata></metadata>
<defs>
<font id="rubrik_extralightregular" horiz-adv-x="1286" >
<font-face units-per-em="2048" ascent="1612" descent="-436" />
<missing-glyph horiz-adv-x="536" />
<glyph unicode="&#xfb01;" horiz-adv-x="1269" d="M104 993q0 17 12 28t29 11h93v113q0 147 70.5 228t213.5 81q97 0 158 -20q35 -9 35 -39q0 -13 -10.5 -24t-28.5 -11q-2 0 -27 4.5t-61.5 9t-65.5 4.5q-209 0 -209 -233v-113h328q25 0 35.5 -19t0 -38t-35.5 -19h-328v-923q0 -17 -11 -29t-28 -12q-14 0 -25 12t-11 29v923 h-93q-41 0 -41 37zM937 1359.5q0 25.5 18 46.5t49 21q40 3 56 -32t0 -70.5t-56 -32.5q-31 0 -49 21t-18 46.5zM965 33v981q0 41 36 41q17 0 28 -12t11 -29v-981q0 -17 -11 -29t-28 -12q-36 0 -36 41z" />
<glyph horiz-adv-x="0" />
<glyph horiz-adv-x="682" />
<glyph unicode=" "  horiz-adv-x="536" />
<glyph unicode="&#x09;" horiz-adv-x="536" />
<glyph unicode="&#xa0;" horiz-adv-x="536" />
<glyph unicode="!" horiz-adv-x="399" d="M160 1386q0 18 11.5 29.5t29.5 11.5q39 0 39 -41l-9 -888q0 -37 -30 -37q-33 0 -33 37zM162 18v218q0 24 19 34t38 0t19 -34v-218q0 -24 -19 -34t-38 0t-19 34z" />
<glyph unicode="&#x22;" horiz-adv-x="645" d="M172 1083v312q0 24 19 34t38 0t19 -34v-312q0 -24 -19 -34t-38 0t-19 34zM397 1083v312q0 24 19 34t38 0t19 -34v-312q0 -24 -19 -34t-38 0t-19 34z" />
<glyph unicode="#" horiz-adv-x="1206" d="M121 510q0 39 41 39h164l118 362h-147q-17 0 -29 11.5t-12 25.5q0 39 41 39h172l141 434q13 29 37 29q23 0 33 -17t2 -38l-133 -408h272l142 434q13 29 36 29t33 -17t2 -38l-133 -408h143q17 0 29 -11t12 -28q0 -14 -12 -25.5t-29 -11.5h-167l-119 -362h151q17 0 29 -11 t12 -28q0 -14 -12 -25.5t-29 -11.5h-176l-153 -467q-6 -24 -35 -24q-22 0 -31.5 16.5t-3.5 36.5l143 438h-272l-154 -467q-6 -24 -34 -24q-22 0 -31.5 16.5t-3.5 36.5l143 438h-139q-17 0 -29 11.5t-12 25.5zM406 549h272l119 362h-273z" />
<glyph unicode="$" horiz-adv-x="1245" d="M170 213q0 25 24 34.5t44 -7.5q176 -129 403 -129q180 0 279.5 73.5t99.5 214.5q0 116 -92 181q-94 66 -346 112q-214 41 -311 125t-97 225q0 161 107.5 251t304.5 98v180q0 19 11 30t28 11q37 0 37 -41v-180q181 -21 294 -111q17 -14 17 -29q0 -37 -35 -37q-17 0 -33 13 q-128 90 -293 90q-197 0 -280 -80q-82 -79 -82 -197q0 -205 338 -270q280 -52 395 -137q113 -82 113 -238q0 -161 -127 -264q-126 -99 -307 -96v-176q0 -17 -11 -29t-28 -12q-14 0 -25.5 12t-11.5 29v180q-219 15 -393 137q-23 16 -23 37z" />
<glyph unicode="%" horiz-adv-x="1376" d="M100 1063q-3 55 0 111q3 116 86 196q82 82 203 82q119 0 201 -82q85 -82 88 -196q3 -56 0 -111q-3 -114 -88 -199q-83 -80 -201 -80q-120 0 -203 80q-83 83 -86 199zM172 1065q4 -93 66 -153t151 -60t151 60t66 153q3 52 0 106q-4 93 -66 153t-151 60t-151 -60t-66 -153 q-3 -54 0 -106zM244 201q-27 24 0 55l858 983q10 12 28 14t25 -6q29 -25 4 -53l-862 -987q-25 -28 -53 -6zM717 270q-3 56 0 111q3 117 86 197q81 81 203 81q119 0 200 -81q85 -82 88 -197q3 -55 0 -111q-3 -113 -88 -198q-83 -80 -200 -80q-120 0 -203 80q-83 83 -86 198z M788 272q4 -93 66.5 -153t151.5 -60t151 60t66 153q3 52 0 107q-4 93 -66 153t-151 60t-151.5 -60t-66.5 -153q-3 -55 0 -107z" />
<glyph unicode="&#x26;" horiz-adv-x="1388" d="M145 350q0 279 289 373q-217 181 -217 358q0 146 111 248q110 101 309 101q195 0 309.5 -94.5t114.5 -248.5q0 -148 -107 -239q-108 -91 -376 -160l483 -430q61 87 84 166q20 73 20 192q0 50 37 50q39 0 39 -45v-23q0 -221 -125 -389l172 -152q28 -28 4 -55 q-22 -28 -51 -2l-172 152q-162 -168 -420 -168q-237 0 -370.5 100.5t-133.5 265.5zM221 352q0 -132 116.5 -212.5t315.5 -80.5q214 0 361 144l-518 463q-147 -42 -211 -116.5t-64 -197.5zM293 1083q0 -93 54.5 -168.5t172.5 -166.5q256 62 359 131q106 69 106 208 q0 116 -93.5 192.5t-260.5 76.5q-155 0 -246.5 -78t-91.5 -195z" />
<glyph unicode="'" horiz-adv-x="419" d="M172 1083v312q0 24 19 34t38 0t19 -34v-312q0 -24 -19 -34t-38 0t-19 34z" />
<glyph unicode="(" horiz-adv-x="702" d="M206 633q0 190 45.5 365.5t141 337t232.5 278.5q12 12 28 12q13 0 25 -12t12 -25q0 -17 -16 -33q-196 -175 -295 -421q-98 -244 -98 -502t98 -502q100 -247 295 -422q16 -16 16 -33q0 -13 -11.5 -24.5t-25.5 -11.5q-16 0 -28 12q-137 117 -232.5 278.5t-141 337 t-45.5 365.5z" />
<glyph unicode=")" horiz-adv-x="702" d="M12 -324q0 16 17 33q195 175 295 422q98 244 98 502t-98 502q-99 246 -295 421q-17 17 -17 33q0 13 12 25t25 12q17 0 29 -12q137 -117 232.5 -278.5t141 -337t45.5 -365.5t-45.5 -365.5t-141 -337t-232.5 -278.5q-12 -12 -29 -12q-14 0 -25.5 11.5t-11.5 24.5z" />
<glyph unicode="*" horiz-adv-x="749" d="M80 938q0 20 22 33l205 119l-205 118q-20 11 -20 33q0 23 18.5 33t38.5 -2l201 -123v237q0 41 37 41q14 0 25.5 -12t11.5 -29v-237l200 123q19 13 38.5 3t19.5 -34q0 -21 -21 -33l-207 -118l207 -119q21 -12 21 -33q0 -24 -19.5 -34t-38.5 3l-200 121v-235q0 -41 -37 -41 t-37 41v235l-201 -121q-19 -12 -39 -2t-20 33z" />
<glyph unicode="+" d="M123 717q0 39 43 39h442v440q0 43 37 43q39 0 39 -43v-440h434q45 0 45 -39q0 -17 -13 -27t-32 -10h-434v-442q0 -43 -39 -43q-37 0 -37 43v442h-442q-43 0 -43 37z" />
<glyph unicode="," horiz-adv-x="407" d="M113 -154q0 12 8 25q36 53 46.5 85.5t10.5 90.5v109q0 24 19 34t38 0t19 -34v-119q0 -106 -70 -207q-14 -20 -34 -20q-16 0 -26.5 11t-10.5 25z" />
<glyph unicode="-" horiz-adv-x="716" d="M133 586q0 39 41 39h369q17 0 29 -11.5t12 -25.5q0 -17 -12 -28t-29 -11h-369q-17 0 -29 11.5t-12 25.5z" />
<glyph unicode="." horiz-adv-x="520" d="M166 16v217q0 24 19 34t38 0t19 -34v-217q0 -24 -19 -34t-38 0t-19 34z" />
<glyph unicode="/" horiz-adv-x="653" d="M12 -12l584 1482q16 42 51 27q36 -12 21 -53l-586 -1485q-12 -37 -49 -22q-33 11 -21 51z" />
<glyph unicode="0" horiz-adv-x="1394" d="M195 532q-3 130 0 386q6 232 147 382q143 152 358 152q222 0 359 -149q136 -145 145 -390q9 -187 0 -381q-9 -241 -147 -397q-138 -153 -357 -153q-220 0 -358 153q-138 156 -147 397zM274 516q15 -208 129 -334q113 -125 297 -125t297 125q114 126 129 334q12 156 0 412 q-12 205 -126.5 326.5t-299.5 121.5t-300 -121.5t-126 -326.5q-12 -234 0 -412z" />
<glyph unicode="1" horiz-adv-x="858" d="M117 1194q0 22 22 35l314 190q21 15 43 15q55 0 55 -64v-1337q0 -41 -39 -41q-37 0 -37 41v1306l-295 -176q-13 -8 -26 -8q-14 0 -25.5 11t-11.5 28z" />
<glyph unicode="2" horiz-adv-x="1173" d="M131 66v20q0 128 71 232t240 229q285 211 340 260q112 103 127 221q2 16 2 51q0 119 -90 209q-88 88 -266 88q-209 0 -340 -174q-14 -20 -37 -20q-14 0 -25.5 10.5t-11.5 26.5q0 10 11 28q61 90 167 147.5t236 57.5q207 0 319 -106q115 -109 115 -267q0 -51 -28 -166 q-10 -32 -43 -71l-50 -62q-17 -24 -71 -67l-80 -62q-1 -1 -35.5 -27t-67.5 -49l-112 -79q-189 -139 -242 -222t-53 -198h770q41 0 41 -39q0 -37 -41 -37h-774q-31 0 -50.5 18.5t-21.5 47.5z" />
<glyph unicode="3" horiz-adv-x="1183" d="M104 1391q0 36 41 36h699q46 0 62.5 -38.5t-19.5 -79.5l-369 -414q12 2 53 2q182 0 303 -109q123 -108 123 -280q0 -245 -199 -378.5t-569 -133.5q-8 0 -38.5 1t-38.5 1q-46 0 -46 41q0 17 12 28t29 9q98 -4 109 -4q311 0 488.5 114t177.5 322q0 141 -98 227t-253 86h-27 t-25 -0.5t-20.5 -1t-15.5 -0.5h-6q-59 0 -59 49q0 25 14 39l389 445h-676q-17 0 -29 11t-12 28z" />
<glyph unicode="4" horiz-adv-x="1345" d="M131 436q0 25 23 58l710 890q41 50 78 50q28 0 43.5 -16.5t15.5 -43.5v-925h189q14 0 25.5 -11.5t11.5 -25.5q0 -17 -11.5 -28t-25.5 -11h-189v-340q0 -18 -10 -29.5t-28 -11.5q-37 0 -37 41v340h-729q-23 0 -44.5 17.5t-21.5 45.5zM213 449h713v890z" />
<glyph unicode="5" horiz-adv-x="1216" d="M166 27q0 39 43 39q365 0 575 116q211 117 211 342q0 141 -97.5 232.5t-264.5 91.5q-180 0 -336 -111q-29 -19 -58.5 -3t-29.5 52v570q0 35 20 53t52 18h659q18 0 29.5 -10.5t11.5 -27.5q0 -37 -41 -37h-655v-537q171 109 342 109q210 0 325 -115q117 -114 117 -279 q0 -260 -221.5 -400t-636.5 -140q-45 0 -45 37z" />
<glyph unicode="6" horiz-adv-x="1343" d="M190 686q0 375 163 574.5t470 199.5q134 0 197 -14q39 -6 39 -39q0 -39 -41 -39q-2 0 -66 6q-57 8 -129 8q-515 0 -555 -608q217 105 426 105q226 0 354 -112.5t128 -324.5q0 -202 -125 -333q-125 -134 -351 -134q-252 0 -381 183t-129 528zM266 688q0 -637 434 -637 q192 0 296 107t104 284q0 361 -406 361q-221 0 -428 -115z" />
<glyph unicode="7" horiz-adv-x="1048" d="M86 1389q0 17 11.5 27.5t29.5 10.5h793q31 0 50 -15.5t19 -41.5q0 -20 -16 -49q-310 -517 -438 -772q-132 -261 -185 -524q-6 -35 -39 -35q-44 0 -35 53q60 265 183 518q111 230 444 791h-776q-17 0 -29 11.5t-12 25.5z" />
<glyph unicode="8" horiz-adv-x="1370" d="M176 387q0 138 77 233t204 132q-246 89 -246 331q0 168 123.5 268.5t343.5 100.5t343.5 -100.5t123.5 -268.5q0 -242 -246 -331q127 -37 204 -132t77 -233q0 -187 -131.5 -294t-370.5 -107q-241 0 -371.5 107t-130.5 294zM254 387q0 -147 109.5 -236.5t314.5 -89.5 t314.5 89.5t109.5 236.5q0 151 -110.5 238.5t-313.5 87.5t-313.5 -87.5t-110.5 -238.5zM291 1083q0 -139 103.5 -217t283.5 -78t283.5 78t103.5 217q0 133 -98 213t-289 80t-289 -80t-98 -213z" />
<glyph unicode="9" horiz-adv-x="1327" d="M166 989q0 202 123 334q127 133 352 133q258 0 379 -162t121 -506q0 -222 -53.5 -373t-165.5 -241q-108 -89 -255 -131t-366 -53q-45 -3 -45 37q0 36 41 39q371 15 555 149q183 136 207 432q-221 -112 -414 -112q-226 0 -352.5 119t-126.5 335zM242 989q0 -176 102 -278 q101 -101 301 -101q198 0 414 121q2 20 2 86q0 296 -102 429.5t-318 133.5q-191 0 -295 -107t-104 -284z" />
<glyph unicode=":" horiz-adv-x="589" d="M258 16v217q0 24 19 34t38 0t19 -34v-217q0 -24 -19 -34t-38 0t-19 34zM258 756v217q0 24 19 34t38 0t19 -34v-217q0 -24 -19 -34t-38 0t-19 34z" />
<glyph unicode=";" horiz-adv-x="589" d="M229 -154q0 10 9 25q36 53 46.5 85.5t10.5 90.5v109q0 24 19 34t38 0t19 -34v-119q0 -106 -70 -207q-14 -20 -35 -20q-16 0 -26.5 11t-10.5 25zM295 756v217q0 24 19 34t38 0t19 -34v-217q0 -24 -19 -34t-38 0t-19 34z" />
<glyph unicode="&#x3c;" d="M293 614q-121 102 0 205l612 502q17 10 27 10q14 0 25.5 -11.5t11.5 -25.5q0 -18 -17 -32l-604 -496q-37 -34 -37 -49q0 -22 37 -49l606 -496q17 -14 17 -33q0 -13 -11.5 -25t-25.5 -12q-9 0 -27 11z" />
<glyph unicode="=" d="M137 549q0 39 43 39h924q45 0 45 -39q0 -17 -13 -27t-32 -10h-924q-43 0 -43 37zM137 883q0 39 43 39h924q45 0 45 -39q0 -17 -13 -27t-32 -10h-924q-43 0 -43 37z" />
<glyph unicode="&#x3e;" d="M326 139q0 20 16 33l606 496q37 34 37 49q0 22 -37 49l-604 496q-16 13 -16 32q0 14 12 25.5t25 11.5q9 0 26 -10l613 -502q121 -103 0 -205l-615 -501q-18 -11 -27 -11q-13 0 -24.5 11.5t-11.5 25.5z" />
<glyph unicode="?" horiz-adv-x="1153" d="M143 1225q0 10 11 28q147 197 432 197q188 0 296.5 -104t108.5 -279q0 -185 -94 -279q-90 -93 -344 -217q-13 -8 -31 -8q-17 0 -28 11t-11 28q0 30 33 41q234 101 318 188q81 84 81 234q0 142 -88 225.5t-241 83.5q-133 0 -217 -39t-154 -131q-15 -18 -35 -18 q-15 0 -26 10.5t-11 28.5zM485 16v217q0 24 19 34t38 0t19 -34v-217q0 -24 -19 -34t-38 0t-19 34z" />
<glyph unicode="@" horiz-adv-x="1726" d="M182 326q-18 199 0 442q21 286 215 477t486 191q296 0 495 -199q203 -197 203 -498v-374q0 -93 -63 -156.5t-150 -63.5q-88 0 -151.5 63.5t-63.5 156.5v258q0 112 -76 194t-190 82q-120 0 -195.5 -75t-75.5 -201v-136q0 -123 76.5 -200.5t194.5 -77.5q61 0 129 24 q18 7 28 7q37 0 37 -37q0 -24 -30 -39q-79 -31 -164 -31q-147 0 -248 98q-98 98 -98 258v136q0 148 98 249t248 101q148 0 243 -103q99 -102 99 -247v-267q0 -57 41 -98t98 -41t97 40.5t40 96.5v371q0 282 -178 457q-179 176 -444 176q-251 0 -426 -166q-178 -166 -199 -422 q-21 -235 0 -453q21 -274 203 -421q182 -150 411 -150q127 0 244 51q20 9 39 0.5t19 -30.5q0 -25 -27 -37q-119 -58 -273 -58q-263 0 -464 168q-204 171 -228 484z" />
<glyph unicode="A" horiz-adv-x="1357" d="M70 55l462 1266q47 127 152 127t152 -127l462 -1266q6 -20 -5 -37.5t-31 -17.5q-26 0 -35 27l-187 512h-712l-187 -512q-9 -25 -37 -25q-20 0 -30 17t-4 36zM356 614h656l-256 703q-20 57 -72 57t-72 -57z" />
<glyph unicode="B" horiz-adv-x="1368" d="M242 76v1276q0 33 19.5 54t55.5 21h469q195 0 299.5 -93.5t104.5 -264.5q0 -118 -57.5 -204.5t-147.5 -123.5q110 -39 178 -127.5t68 -220.5q0 -185 -111 -289t-307 -104h-496q-75 0 -75 76zM317 76h488q170 0 259 82.5t89 232.5q0 138 -89 222.5t-230 84.5h-517v-622z M317 774h486q142 0 225.5 79.5t83.5 213.5q0 140 -79.5 212.5t-229.5 72.5h-486v-578z" />
<glyph unicode="C" horiz-adv-x="1355" d="M160 702q0 93 6 195q15 232 172 389q157 160 389 160q164 0 297 -92q137 -93 201 -236q10 -23 10 -37q0 -16 -11.5 -26.5t-25.5 -10.5q-27 0 -39 31q-49 131 -168 213q-122 84 -264 84q-194 0 -332 -135q-136 -136 -151 -340q-8 -90 -8 -180t8 -180q15 -207 149 -344 q133 -136 334 -136q145 0 264 82q118 81 168 215q12 31 39 31q14 0 25.5 -10.5t11.5 -26.5q0 -14 -10 -37q-65 -145 -201 -237q-134 -90 -299 -90q-230 0 -387 157t-172 396q-6 83 -6 165z" />
<glyph unicode="D" horiz-adv-x="1474" d="M242 76v1276q0 33 19.5 54t53.5 21h381q289 0 443 -167q158 -169 170 -439q1 -53 1 -98q0 -75 -3 -127q-15 -265 -174 -432q-156 -164 -437 -164h-381q-34 0 -53.5 21.5t-19.5 54.5zM317 76h373q255 0 393 136t150 382q3 62 3 123t-3 123q-14 244 -151.5 378t-391.5 134 h-373v-1276z" />
<glyph unicode="E" horiz-adv-x="1273" d="M242 76v1276q0 33 19.5 54t55.5 21h752q39 0 39 -38q0 -14 -11 -25.5t-28 -11.5h-752v-594h736q17 0 28 -11.5t11 -25.5q0 -17 -11 -28t-28 -11h-736v-606h756q24 0 34 -19t0 -38t-34 -19h-756q-75 0 -75 76z" />
<glyph unicode="F" horiz-adv-x="1200" d="M242 31v1323q0 32 19.5 52.5t53.5 20.5h760q39 0 39 -38q0 -14 -11 -25.5t-28 -11.5h-758v-615h719q39 0 39 -39q0 -14 -11 -25t-28 -11h-719v-631q0 -17 -11 -28t-25 -11q-17 0 -28 11t-11 28z" />
<glyph unicode="G" horiz-adv-x="1437" d="M180 549q-6 83 -6 166.5t6 167.5q15 234 174 401q158 162 387 162q367 0 508 -316q11 -26 11 -36q0 -16 -11.5 -26.5t-25.5 -10.5q-27 0 -39 30q-49 132 -170.5 208.5t-272.5 76.5q-192 0 -329 -137q-136 -136 -154 -338q-8 -90 -8 -179.5t8 -178.5q15 -202 152 -342 q138 -138 333 -138q199 0 330 113q133 115 133 295v182h-381q-25 0 -35.5 19.5t0 39t35.5 19.5h377q38 0 59 -22t21 -58v-168q0 -196 -147 -346q-143 -149 -385 -149q-235 0 -394 159q-161 161 -176 406z" />
<glyph unicode="H" horiz-adv-x="1554" d="M242 33v1366q0 17 10 28t27 11q38 0 38 -39v-643h920v643q0 17 11 28t28 11q37 0 37 -39v-1368q0 -39 -37 -39q-14 0 -26.5 13t-12.5 26v649h-920v-647q0 -18 -10.5 -29.5t-27.5 -11.5q-37 0 -37 41z" />
<glyph unicode="I" horiz-adv-x="559" d="M242 31v1368q0 17 10 28t27 11q38 0 38 -39v-1368q0 -39 -38 -39q-37 0 -37 39z" />
<glyph unicode="J" horiz-adv-x="1005" d="M86 203q0 13 12 25t25 12q21 0 37 -23q90 -158 252 -158q125 0 205.5 85t80.5 229v1026q0 17 10 28t27 11q39 0 39 -39v-1034q0 -168 -104 -275q-103 -106 -256 -106q-98 0 -184.5 51.5t-131.5 132.5q-12 24 -12 35z" />
<glyph unicode="K" horiz-adv-x="1263" d="M242 31v1368q0 17 10 28t27 11q38 0 38 -39v-635h17q40 0 62 8.5t57 42.5l665 608q18 15 31 15q15 0 25 -13q10 -11 10 -24q0 -16 -17 -33l-702 -639l727 -670q29 -25 2 -55q-12 -12 -27 -12q-16 0 -26 10l-688 635q-35 32 -57.5 41.5t-61.5 9.5h-17v-657q0 -39 -38 -39 q-14 0 -25.5 11t-11.5 28z" />
<glyph unicode="L" horiz-adv-x="1122" d="M242 76v1323q0 17 10 28t27 11q38 0 38 -39v-1323h754q25 0 35.5 -19t0 -38t-35.5 -19h-754q-34 0 -54.5 21.5t-20.5 54.5z" />
<glyph unicode="M" horiz-adv-x="1857" d="M147 37l199 1317q7 47 37.5 74.5t73.5 27.5q84 0 108 -92l342 -1266q6 -25 29 -25t29 25l333 1266q24 92 109 92q43 0 73.5 -27.5t37.5 -74.5l204 -1317q4 -19 -6.5 -33t-29.5 -14q-33 0 -39 30l-205 1326q-6 34 -35 34q-27 0 -35 -32l-330 -1256q-24 -94 -106 -94 q-80 0 -107 94l-337 1256q-8 32 -35 32q-30 0 -33 -34l-203 -1326q-6 -30 -35 -30q-23 0 -33.5 14t-5.5 33z" />
<glyph unicode="N" horiz-adv-x="1576" d="M242 33v1329q0 35 19.5 56.5t51.5 21.5q46 0 76 -47l866 -1317h5v1323q0 18 9.5 28.5t26.5 10.5q39 0 39 -39v-1325q0 -35 -19.5 -56.5t-51.5 -21.5q-46 0 -76 47l-866 1313h-5v-1323q0 -39 -38 -39q-14 0 -25.5 11t-11.5 28z" />
<glyph unicode="O" horiz-adv-x="1484" d="M180 549q-6 83 -6 166.5t6 167.5q15 238 178 401q162 162 396 162q233 0 395 -162q165 -165 180 -401q6 -84 6 -167.5t-6 -166.5q-15 -243 -178 -406q-163 -159 -397 -159q-232 0 -396 159q-160 160 -178 406zM258 535q21 -208 158 -342q140 -134 338 -134t338 134 q138 135 159 342q9 90 9 179.5t-9 178.5q-21 207 -159 342t-338 135t-338 -135q-137 -134 -158 -342q-9 -89 -9 -178.5t9 -179.5z" />
<glyph unicode="P" horiz-adv-x="1310" d="M242 31v1321q0 33 20 54t55 21h441q198 0 315 -112t117 -307q0 -197 -119.5 -308.5t-329.5 -111.5h-424v-557q0 -24 -18.5 -34t-37.5 0t-19 34zM317 664h433q184 0 274 89.5t90 252.5q0 161 -91 253.5t-261 92.5h-445v-688z" />
<glyph unicode="Q" horiz-adv-x="1486" d="M180 549q-6 83 -6 166.5t6 167.5q15 238 178 401q162 162 396 162q233 0 395 -162q165 -165 180 -401q6 -84 6 -167.5t-6 -166.5q-18 -279 -221 -443l217 -268q10 -17 10 -28q0 -17 -11 -28t-28 -11q-19 0 -32 16l-222 272q-126 -75 -288 -75q-232 0 -396 159 q-160 160 -178 406zM258 535q21 -208 158 -342q140 -134 338 -134q128 0 239 60l-243 303q-11 13 -11 26q0 16 17 31q28 24 55 -6l250 -309q166 131 190 371q9 90 9 179.5t-9 178.5q-21 207 -159 342t-338 135t-338 -135q-137 -134 -158 -342q-9 -89 -9 -178.5t9 -179.5z " />
<glyph unicode="R" horiz-adv-x="1388" d="M242 33v1319q0 33 20 54t55 21h439q205 0 321.5 -109.5t116.5 -305.5q0 -352 -401 -398l440 -557q14 -19 5.5 -41t-32.5 -22t-32 14l-429 541q-31 38 -51.5 50.5t-60.5 12.5h-316v-579q0 -17 -10.5 -28t-27.5 -11q-14 0 -25.5 11t-11.5 28zM317 688h416q385 0 385 324 q0 157 -91.5 248.5t-256.5 91.5h-453v-664z" />
<glyph unicode="S" horiz-adv-x="1241" d="M143 166q0 39 39 39q12 0 29 -10q195 -136 434 -136q199 0 310.5 86.5t111.5 245.5q0 105 -78 176q-42 33 -92 51q-81 34 -246 70q-114 25 -185 49t-142 64q-156 89 -156 272q0 172 126 272.5t345 100.5q233 0 377 -117q16 -13 16 -31q0 -38 -37 -38q-17 0 -37 14 q-143 96 -319 96q-195 0 -295 -81t-100 -216q0 -115 84 -188q40 -32 96 -56q40 -16 81 -28t67 -18t96 -21q96 -20 152 -36.5t120 -45.5q99 -40 147.5 -107.5t55.5 -181.5q0 -189 -131 -298t-359 -109q-274 0 -487 143q-23 16 -23 39z" />
<glyph unicode="T" horiz-adv-x="1198" d="M49 1391q0 36 41 36h1018q41 0 41 -36q0 -14 -12 -26.5t-29 -12.5h-469v-1319q0 -17 -11 -29t-28 -12q-37 0 -37 41v1319h-473q-17 0 -29 11t-12 28z" />
<glyph unicode="U" horiz-adv-x="1531" d="M219 553v846q0 17 10 28t27 11q39 0 39 -39v-830q0 -230 131 -370q134 -140 340 -140t340 140q133 142 133 370v830q0 17 10 28t27 11q39 0 39 -39v-846q0 -253 -156 -412q-157 -157 -393 -157t-393 157q-154 160 -154 412z" />
<glyph unicode="V" horiz-adv-x="1327" d="M68 1384q-6 19 4 36.5t30 17.5q28 0 37 -27l500 -1329q7 -23 30 -23t31 23l500 1327q9 27 37 27q23 0 34 -17.5t3 -40.5l-494 -1300q-37 -94 -110 -94q-74 0 -111 94z" />
<glyph unicode="W" horiz-adv-x="1855" d="M96 1391q-5 19 6 34t31 15q31 0 37 -29l303 -1337q5 -14 17 -14t16 14l366 1284q21 78 89 78q65 0 86 -78l356 -1284q5 -14 18 -14t15 14l313 1335q6 31 37 31q18 0 28.5 -11t10.5 -26q0 -1 -1 -6t-1 -6l-312 -1336q-15 -71 -92 -71q-72 0 -90 73l-364 1295q-1 6 -7 6 t-8 -6l-368 -1297q-18 -71 -93 -71q-72 0 -90 73z" />
<glyph unicode="X" horiz-adv-x="1292" d="M88 29q0 15 10 28l502 656l-504 659q-14 19 -4.5 41.5t33.5 22.5q20 0 29 -15l495 -649l496 649q9 15 29 15q24 0 33 -22.5t-5 -41.5l-506 -661l504 -654q10 -13 10 -28q0 -35 -36 -35q-23 0 -31 14l-496 639l-491 -639q-8 -14 -31 -14q-37 0 -37 35z" />
<glyph unicode="Y" horiz-adv-x="1302" d="M46.5 1416.5q9.5 21.5 33.5 21.5q19 0 29 -13l542 -675l543 675q9 15 29 15q17 0 28 -11.5t11 -25.5q0 -9 -11 -27l-526 -651q-35 -47 -35 -92v-602q0 -17 -11 -28t-28 -11q-14 0 -25.5 11t-11.5 28v602q0 47 -39 92l-524 653q-14 17 -4.5 38.5z" />
<glyph unicode="Z" horiz-adv-x="1185" d="M139 66q0 27 17 51l858 1235h-834q-17 0 -29 11.5t-12 25.5q0 17 11.5 27.5t29.5 10.5h834q35 0 57.5 -19t22.5 -46t-17 -51l-858 -1235h834q41 0 41 -37q0 -17 -12 -28t-29 -11h-834q-34 0 -57 19.5t-23 46.5z" />
<glyph unicode="[" horiz-adv-x="694" d="M231 -283v1833q0 30 21 52t55 22h322q41 0 41 -37q0 -14 -12 -26.5t-29 -12.5h-322v-1831h322q41 0 41 -36q0 -17 -12 -28t-29 -11h-320q-36 0 -57 21.5t-21 53.5z" />
<glyph unicode="\" horiz-adv-x="638" d="M6 1444q-15 41 21 53q35 15 51 -27l584 -1482q12 -40 -21 -51q-37 -15 -49 22z" />
<glyph unicode="]" horiz-adv-x="694" d="M27 -319q0 36 41 36h321v1831h-321q-17 0 -29 12.5t-12 26.5q0 37 41 37h321q34 0 55 -22t21 -52v-1833q0 -32 -21 -53.5t-57 -21.5h-319q-17 0 -29 11t-12 28z" />
<glyph unicode="^" horiz-adv-x="1384" d="M350 801l240 569q40 98 110 98q71 0 111 -98l240 -569q7 -19 -5 -36t-32 -17q-28 0 -37 24l-248 598q-10 25 -28.5 25t-28.5 -25l-248 -598q-9 -24 -37 -24q-20 0 -32 17t-5 36z" />
<glyph unicode="_" horiz-adv-x="966" d="M0 -315h967v-76h-967v76z" />
<glyph unicode="`" horiz-adv-x="659" d="M154 1726q0 16 11 26.5t25 10.5q13 0 25 -6l277 -141q24 -12 24 -37q0 -16 -11.5 -26.5t-25.5 -10.5q-12 0 -24 6l-277 142q-24 12 -24 36z" />
<glyph unicode="a" horiz-adv-x="1159" d="M150 319q0 142 106 229t285 87q146 0 344 -55v133q0 280 -307 280q-140 0 -283 -67q-23 -10 -42.5 1t-19.5 34q0 22 25 38q131 70 320 70q383 0 383 -354v-572q0 -29 -23 -45q-162 -116 -385 -116q-194 0 -298.5 88t-104.5 249zM225 319q0 -126 83 -194t245 -68 q205 0 332 103v342q-191 57 -346 57q-142 0 -228 -65t-86 -175z" />
<glyph unicode="b" horiz-adv-x="1232" d="M221 147v1254q0 43 39 43q17 0 27 -12t10 -31v-412q183 80 342 80q185 0 290 -101t122 -294q6 -72 5.5 -144t-5.5 -145q-17 -197 -124 -300t-300 -103q-106 0 -221 41q-118 46 -164 79q-21 15 -21 45zM297 160q54 -38 147 -70q98 -33 183 -33q309 0 344 314q8 69 7.5 148 t-7.5 169q-21 305 -330 305q-89 0 -192 -28q-97 -26 -152 -58v-747z" />
<glyph unicode="c" horiz-adv-x="1138" d="M188 385q-4 72 -4 144.5t4 144.5q9 180 127 289q119 110 308 110q91 0 171 -34t124 -87q42 -49 66 -96t24 -78q0 -17 -11.5 -28t-25.5 -11q-32 0 -41 37q-31 106 -115.5 163.5t-191.5 57.5q-153 0 -249.5 -87t-107.5 -230q-4 -88 -4 -163.5t4 -139.5q11 -143 106 -231.5 t251 -88.5q107 0 191.5 57.5t115.5 164.5q9 36 41 36q14 0 25.5 -11t11.5 -28q0 -69 -90 -176q-44 -51 -124 -84.5t-171 -33.5q-192 0 -312 114q-117 114 -123 289z" />
<glyph unicode="d" horiz-adv-x="1228" d="M193 385q-6 72 -6 144.5t6 144.5q17 193 121.5 294t289.5 101q159 0 342 -80v412q0 19 10 31t27 12q39 0 39 -43v-1254q0 -30 -21 -45q-48 -34 -165 -79q-112 -41 -220 -41q-193 0 -299.5 103t-123.5 300zM272 371q35 -314 344 -314q85 0 183 33q102 34 147 68v749 q-56 32 -151 58q-103 28 -193 28q-309 0 -330 -305q-8 -90 -8 -169t8 -148z" />
<glyph unicode="e" horiz-adv-x="1175" d="M180 428q-1 40 -1 76q0 85 5 151q9 192 129 303t301 111q184 0 299 -121t115 -301v-55q0 -100 -106 -100h-666v-56q0 -177 99 -278t266 -101q137 0 282 62q12 4 21 4q16 0 26.5 -11.5t10.5 -25.5q0 -24 -25 -37q-51 -26 -145 -47q-87 -20 -166 -20q-207 0 -320.5 117 t-124.5 329zM256 567h664q29 0 32 33v25q0 165 -84 263q-92 106 -254 105q-179 -1 -271 -111q-87 -105 -87 -294v-21z" />
<glyph unicode="f" horiz-adv-x="727" d="M104 993q0 17 12 28t29 11h93v113q0 147 70.5 228t213.5 81q97 0 158 -20q35 -9 35 -39q0 -13 -10.5 -24t-28.5 -11q-2 0 -27 4.5t-61.5 9t-65.5 4.5q-209 0 -209 -233v-113h328q25 0 35.5 -19t0 -38t-35.5 -19h-328v-923q0 -17 -11 -29t-28 -12q-14 0 -25 12t-11 29v923 h-93q-41 0 -41 37z" />
<glyph unicode="g" horiz-adv-x="1228" d="M184 412q-4 64 -4 127t4 127q12 195 121.5 299t304.5 104q102 0 206 -28t167 -68q33 -20 33 -60v-827q0 -199 -109 -326t-303 -127q-191 0 -336 95q-37 24 -37 47q0 39 39 39q18 0 45 -21q121 -86 287 -86q152 0 245 101.5t93 267.5v16q-172 -88 -336 -88 q-188 0 -298 108t-122 300zM262 397q27 -317 346 -317q207 0 332 104v725q-53 34 -146.5 59t-187.5 25q-314 0 -344 -311q-6 -61 -6 -132.5t6 -152.5z" />
<glyph unicode="h" horiz-adv-x="1265" d="M221 31v1372q0 17 11 29t28 12q14 0 25.5 -12t11.5 -29v-508q70 79 172 127.5t205 48.5q175 0 281 -104t106 -291v-643q0 -41 -37 -41q-17 0 -28 11t-11 30v639q0 151 -80.5 237t-226.5 86q-108 0 -213 -57.5t-168 -146.5v-760q0 -39 -37 -39q-39 0 -39 39z" />
<glyph unicode="i" horiz-adv-x="534" d="M201 1359.5q0 25.5 18 46.5t49 21h6q35 0 50 -32q8 -18 8 -35.5t-8 -35.5q-15 -33 -50 -32h-6q-31 0 -49 21t-18 46.5zM229 33v981q0 41 37 41q17 0 28 -12t11 -29v-981q0 -17 -11 -29t-28 -12q-37 0 -37 41z" />
<glyph unicode="j" horiz-adv-x="514" d="M37 -356q0 18 12 30q92 103 125 191q35 93 35 233v916q0 41 37 41q17 0 28 -11t11 -28v-901q0 -173 -43 -277q-39 -101 -136 -215q-16 -16 -32 -16q-37 0 -37 37zM181 1359.5q0 25.5 18 46.5t49 21h6q35 0 50 -32q8 -17 8 -35t-8 -36q-15 -32 -50 -32h-6q-31 0 -49 21 t-18 46.5z" />
<glyph unicode="k" horiz-adv-x="1048" d="M221 29v1376q0 17 10 28t27 11q39 0 39 -39v-821h51q44 0 67 10t56 43l428 412q14 14 31 14q14 0 25.5 -11.5t11.5 -25.5q0 -18 -17 -35l-463 -446l484 -482q19 -19 12.5 -41t-26.5 -26.5t-39 10.5l-447 447q-33 33 -57.5 44t-67.5 11h-49v-477q0 -39 -37 -39 q-17 0 -28 10t-11 27z" />
<glyph unicode="l" horiz-adv-x="518" d="M221 33v1370q0 41 37 41q39 0 39 -41v-1370q0 -41 -37 -41q-17 0 -28 12t-11 29z" />
<glyph unicode="m" horiz-adv-x="1818" d="M223 33v878q0 33 35 60q129 100 334 100q216 0 311 -147q150 147 348 147q363 0 363 -387v-651q0 -17 -11 -29t-28 -12q-37 0 -37 41v651q0 311 -287 311q-96 0 -179 -41.5t-138 -103.5q22 -77 22 -172v-645q0 -41 -36 -41q-17 0 -28 12t-11 29v653q0 153 -75.5 231 t-213.5 78q-180 0 -293 -88v-874q0 -41 -39 -41q-14 0 -25.5 12t-11.5 29z" />
<glyph unicode="n" horiz-adv-x="1269" d="M225 33v874q0 39 35 60q169 102 391 102q195 0 303.5 -100.5t108.5 -292.5v-643q0 -41 -37 -41q-17 0 -28 12t-11 29v641q0 319 -338 319q-200 0 -348 -92v-868q0 -41 -39 -41q-14 0 -25.5 12t-11.5 29z" />
<glyph unicode="o" horiz-adv-x="1210" d="M184 387q-3 72 -3 143.5t3 143.5q6 177 125 284q120 111 303 111q179 0 299 -111q118 -106 127 -284q4 -72 4 -144t-4 -143q-9 -177 -129 -291t-297 -114q-181 0 -301 114q-121 115 -127 291zM264 375q12 -143 106.5 -230.5t241.5 -87.5t240.5 87t105.5 231q6 66 6 143.5 t-6 165.5q-8 138 -101.5 223.5t-244.5 85.5t-245.5 -85.5t-102.5 -223.5q-4 -92 -4 -169.5t4 -139.5z" />
<glyph unicode="p" horiz-adv-x="1234" d="M221 -350v1253q0 30 21 45q52 37 164 78q113 43 221 43q193 0 300 -103t124 -300q6 -72 6 -144t-6 -145q-17 -193 -122 -294t-290 -101q-162 0 -342 79v-411q0 -19 -10 -31t-27 -12q-39 0 -39 43zM299 143q57 -32 150 -59q99 -27 192 -27q309 0 330 305q7 90 7 169 t-7 149q-34 313 -344 313q-89 0 -181 -32q-99 -34 -147 -68v-750z" />
<glyph unicode="q" horiz-adv-x="1228" d="M195 377q-6 73 -6 145t6 144q17 197 123.5 300t299.5 103q110 0 220 -43q113 -40 166 -78q20 -14 20 -45v-1253q0 -43 -39 -43q-17 0 -27 12t-10 31v411q-180 -79 -342 -79q-185 0 -289.5 101t-121.5 294zM274 362q21 -305 330 -305q94 0 193 27q91 25 151 59v750 q-38 28 -147 65q-103 35 -183 35q-310 0 -344 -313q-8 -70 -8 -149t8 -169z" />
<glyph unicode="r" horiz-adv-x="735" d="M213 31v735q0 147 79.5 225t229.5 78q90 0 164 -18q35 -9 35 -39q0 -13 -9.5 -24t-25.5 -11q-1 0 -63.5 8t-100.5 8q-122 -2 -177.5 -56.5t-55.5 -172.5v-733q0 -39 -39 -39q-17 0 -27 11t-10 28z" />
<glyph unicode="s" horiz-adv-x="972" d="M133 131q0 17 10 28t27 11q16 0 31 -12q119 -101 311 -101q122 0 199 65t77 163q0 77 -60.5 125.5t-162.5 70.5q-161 37 -218 59q-163 62 -185 185q-4 24 -4 49q0 134 95.5 214.5t254.5 80.5q142 0 270 -84q20 -15 20 -32q0 -14 -12 -29q-20 -23 -57 0q-100 69 -221 69 q-131 0 -203 -57t-72 -162q0 -58 35 -97t90.5 -59t122.5 -35.5t134.5 -35t123 -48t90.5 -82.5t35 -132q0 -136 -95.5 -219.5t-254.5 -83.5q-218 0 -364 116q-17 10 -17 33z" />
<glyph unicode="t" horiz-adv-x="804" d="M209 272v949q0 17 11 28t28 11q37 0 37 -39v-189h354q17 0 29 -11.5t12 -25.5q0 -39 -41 -39h-354v-692q0 -94 49.5 -149.5t144.5 -55.5q80 0 176 41q20 11 40 2t20 -32q0 -27 -33 -41q-91 -45 -203 -45q-133 0 -201.5 77t-68.5 211z" />
<glyph unicode="u" horiz-adv-x="1269" d="M205 375v641q0 24 19 34t38 0t19 -34v-641q0 -146 93 -232t244 -86q197 0 351 109v848q0 41 37 41q17 0 27.5 -11.5t10.5 -29.5v-858q0 -36 -26 -50q-71 -44 -88 -53q-42 -21 -123 -45q-85 -26 -184 -26q-182 0 -301 104q-117 105 -117 289z" />
<glyph unicode="v" horiz-adv-x="1011" d="M55 1020q0 16 11.5 26.5t25.5 10.5q29 0 39 -29l367 -954q4 -8 12 -8t12 8l367 954q10 29 39 29q14 0 25.5 -10.5t11.5 -26.5q0 -3 -4 -19l-361 -940q-27 -73 -90 -73t-90 73l-361 940q-4 16 -4 19z" />
<glyph unicode="w" horiz-adv-x="1669" d="M98 1008q-6 20 6 36.5t31 16.5q27 0 37 -29l291 -975q10 -23 20 0l273 928q21 76 88 76q63 0 84 -76l272 -928q3 -7 7 -9.5t7.5 0t6.5 9.5l290 975q10 29 37 29q19 0 31 -16.5t6 -36.5l-287 -965q-21 -74 -90 -74q-63 0 -84 74l-272 932q-2 7 -11 7t-10 -7l-272 -932 q-21 -74 -84 -74q-69 0 -90 74z" />
<glyph unicode="x" horiz-adv-x="1091" d="M125 29q0 15 10 28l365 482l-340 450q-14 20 -4.5 42t32.5 22q20 0 29 -15l330 -438l327 438q9 15 29 15q23 0 33.5 -21t-2.5 -41l-340 -452l364 -480q11 -15 11 -28q0 -35 -37 -35q-23 0 -31 14l-354 465l-354 -467q-8 -14 -31 -14q-37 0 -37 35z" />
<glyph unicode="y" horiz-adv-x="1007" d="M74 995q-8 21 2 38.5t30 17.5q27 0 39 -27l375 -844q6 -12 12 -12q5 0 11 12l342 842q16 29 37 29q18 0 28 -16t4 -34l-389 -970q-54 -136 -135 -242q-81 -109 -160 -154q-24 -12 -43 -12q-14 0 -25.5 10t-11.5 27q0 22 25 35q174 85 279 364z" />
<glyph unicode="z" horiz-adv-x="1052" d="M145 66q0 27 17 51l694 839h-633q-17 0 -29 11.5t-12 25.5q0 17 12 28t29 11h633q35 0 57.5 -19t22.5 -46q0 -33 -16 -52l-695 -839h654q41 0 41 -37q0 -17 -12 -28t-29 -11h-654q-34 0 -57 19.5t-23 46.5z" />
<glyph unicode="{" horiz-adv-x="688" d="M76 645q0 27 35 57q60 46 87 102t27 146v533q0 57 40 98t97 41h259q17 0 29 -11.5t12 -25.5q0 -17 -12 -28t-29 -11h-256q-26 0 -45 -18.5t-19 -44.5v-533q0 -210 -139 -305q139 -103 139 -305v-557q0 -26 19 -45t45 -19h256q18 0 29.5 -10.5t11.5 -27.5q0 -14 -12 -25.5 t-29 -11.5h-259q-57 0 -97 41t-40 98v559q0 156 -114 244q-35 27 -35 59z" />
<glyph unicode="|" horiz-adv-x="628" d="M270 -246v1915q0 17 11.5 29t25.5 12q39 0 39 -41v-1915q0 -25 -19 -35.5t-38 0t-19 35.5z" />
<glyph unicode="}" horiz-adv-x="688" d="M25 -319q0 17 11.5 27.5t29.5 10.5h256q26 0 44.5 19t18.5 45v557q0 202 139 305q-139 95 -139 305v533q0 26 -18.5 44.5t-44.5 18.5h-256q-17 0 -29 11t-12 28q0 14 12 25.5t29 11.5h258q57 0 97 -41t40 -98v-533q0 -90 27 -146t87 -102q35 -30 35 -57q0 -32 -35 -59 q-114 -88 -114 -244v-559q0 -57 -40 -98t-97 -41h-258q-17 0 -29 11.5t-12 25.5z" />
<glyph unicode="~" horiz-adv-x="1259" d="M184 694q0 30 35 45q136 62 211 62q76 0 203 -56q127 -53 201 -53q71 0 178 58q13 8 26 8q16 0 26.5 -11.5t10.5 -25.5q0 -25 -31 -41q-153 -66 -215 -66q-72 0 -202 54q-125 55 -201 55q-74 0 -174 -53q-13 -8 -31 -8q-17 0 -27 9.5t-10 22.5z" />
<glyph unicode="&#xa1;" horiz-adv-x="399" d="M160 45l8 889q0 37 33 37q30 0 30 -37l9 -889q0 -41 -39 -41q-18 0 -29.5 11.5t-11.5 29.5zM162 1196v217q0 24 19 34t38 0t19 -34v-217q0 -24 -19 -34t-38 0t-19 34z" />
<glyph unicode="&#xa2;" horiz-adv-x="1073" d="M240 727q0 14 4 100q14 154 104.5 252t237.5 115v217q0 26 19.5 36t39 -1t19.5 -35v-217q97 -10 177.5 -69.5t116.5 -145.5q7 -18 7 -29q0 -16 -11.5 -26.5t-25.5 -10.5q-32 0 -41 37q-29 74 -101 120t-159 46q-131 0 -210.5 -79t-90.5 -212q-9 -111 0 -219 q11 -133 90 -211t211 -78q87 0 159 46t101 120q9 37 41 37q14 0 25.5 -10.5t11.5 -26.5q0 -11 -7 -28q-36 -86 -116.5 -145.5t-177.5 -69.5v-217q0 -24 -19.5 -35t-39 -1t-19.5 36v217q-147 17 -237.5 114.5t-104.5 253.5q-4 54 -4 119z" />
<glyph unicode="&#xa3;" horiz-adv-x="1116" d="M27 668q0 14 12 25.5t29 11.5h139l-27 110q-35 161 -35 238q0 170 111 284q115 115 307 115q230 0 381 -160q23 -23 23 -39q0 -39 -39 -39q-16 0 -33 17q-79 79 -153.5 112t-178.5 33q-172 0 -256 -96t-84 -223q0 -54 8 -101q7 -43 27 -133l27 -118h362q17 0 29 -11.5 t12 -25.5q0 -18 -11.5 -28.5t-29.5 -10.5h-348q4 -32 4 -74q0 -226 -143 -479h813q41 0 41 -39q0 -37 -41 -37h-836q-28 0 -44.5 16.5t-16.5 40.5q0 27 16 56q59 95 97 215.5t38 222.5q0 41 -6 78h-153q-17 0 -29 11t-12 28z" />
<glyph unicode="&#xa4;" horiz-adv-x="1277" d="M111 229q0 17 12 29l203 207q-53 95 -56 190q-3 61 0 125q3 99 56 195l-203 207q-12 12 -12 28q0 14 11.5 26.5t24.5 12.5q17 0 31 -14l197 -201q116 113 264 113t264 -113l197 201q14 14 30 14q13 0 25 -12.5t12 -26.5q0 -16 -12 -28l-203 -207q53 -96 56 -195 q3 -61 0 -125q-3 -95 -56 -190l203 -207q12 -12 12 -29q0 -14 -12 -26.5t-25 -12.5q-15 0 -30 15l-197 201q-116 -113 -264 -113t-264 113l-197 -201q-15 -15 -31 -15q-13 0 -24.5 12.5t-11.5 26.5zM346 645q11 -119 93.5 -197.5t199.5 -78.5t199.5 78.5t93.5 197.5 q3 101 0 150q-11 119 -93.5 197.5t-199.5 78.5t-199.5 -78.5t-93.5 -197.5q-3 -49 0 -150z" />
<glyph unicode="&#xa5;" horiz-adv-x="1302" d="M46.5 1416.5q9.5 21.5 33.5 21.5q19 0 29 -13l542 -675l543 675q9 15 29 15q17 0 28 -11.5t11 -25.5q0 -9 -11 -27l-526 -651q-35 -47 -35 -92v-43h320q17 0 28 -11t11 -28q0 -37 -41 -37h-318v-483q0 -17 -11 -28t-28 -11q-14 0 -25.5 11t-11.5 28v483h-315 q-41 0 -41 37q0 17 11 28t28 11h317v43q0 47 -39 92l-524 653q-14 17 -4.5 38.5z" />
<glyph unicode="&#xa6;" horiz-adv-x="628" d="M268 -246v842q0 17 11.5 29t25.5 12q39 0 39 -41v-842q0 -25 -19 -35.5t-38 0t-19 35.5zM268 827v842q0 17 11.5 29t25.5 12q39 0 39 -41v-842q0 -25 -19 -35.5t-38 0t-19 35.5z" />
<glyph unicode="&#xa7;" horiz-adv-x="1206" d="M195 -63q0 34 36 34q16 0 45 -20q139 -86 326 -86q162 0 244 82t82 188q-5 70 -19 108.5t-53 65.5q-33 26 -52 37t-63 23q-58 19 -73 22q-40 13 -90 25q-191 49 -268 113.5t-77 170.5q0 95 74 172q-84 84 -84 228q0 153 111 252q113 98 287 98q220 0 370 -117 q15 -15 15 -33q0 -14 -11 -24t-28 -10q-3 0 -41 18q-149 90 -299 90q-162 0 -244 -82t-82 -186q0 -74 21 -121.5t71 -79.5q52 -31 101.5 -48.5t152.5 -43.5q200 -53 271 -113q73 -58 73 -170q0 -89 -71 -172q84 -78 84 -221q0 -152 -113 -250q-110 -98 -285 -98 q-121 0 -231 37q-109 35 -166 80q-14 14 -14 31zM309 694q0 -72 65 -120.5t224 -84.5q135 -30 256 -83q57 51 57 131q0 72 -64.5 120t-223.5 84q-130 29 -256 84q-58 -52 -58 -131z" />
<glyph unicode="&#xa8;" horiz-adv-x="659" d="M125 1626q0 25 17 42.5t42 17.5q26 0 44 -17.5t18 -42.5q0 -26 -18 -43.5t-44 -17.5q-25 0 -42 17.5t-17 43.5zM414 1626q0 25 17.5 42.5t43.5 17.5q25 0 42.5 -17.5t17.5 -42.5q0 -26 -17.5 -43.5t-42.5 -17.5q-26 0 -43.5 17.5t-17.5 43.5z" />
<glyph unicode="&#xa9;" horiz-adv-x="1683" d="M246 549q-12 166 0 334q15 234 192 399q176 164 414 164t414 -164q179 -164 194 -399q12 -168 0 -334q-15 -240 -194 -404q-173 -161 -414 -161t-414 161q-177 165 -192 404zM324 535q21 -201 172 -340q151 -136 356 -136t356 136q153 138 174 340q18 180 0 358 q-21 202 -174 340q-152 137 -356 137t-356 -137q-151 -139 -172 -340q-18 -178 0 -358zM512 631q-6 71 0 182q9 146 102 242q96 96 238 96q100 0 185.5 -50.5t121.5 -135.5q10 -30 10 -35q0 -39 -36 -39q-25 0 -37 27q-30 72 -93 114.5t-151 42.5q-110 0 -181.5 -73.5 t-82.5 -192.5q-6 -70 0 -174q11 -119 82.5 -192.5t181.5 -73.5q88 0 151 42.5t93 114.5q12 27 37 27q36 0 36 -39q0 -8 -10 -35q-36 -85 -121.5 -135.5t-185.5 -50.5q-142 0 -238 96q-93 96 -102 242z" />
<glyph unicode="&#xaa;" horiz-adv-x="983" d="M117 883q-9 119 0 239q8 150 97.5 236t242.5 86q97 0 187 -30.5t140 -70.5q13 -16 13 -32v-398q0 -177 73 -278q11 -18 11 -29q0 -17 -12 -28t-29 -11q-22 0 -35 19q-27 35 -53 108q-137 -131 -303 -131q-153 0 -238.5 85.5t-93.5 234.5zM193 893q15 -254 262 -254 q73 0 148.5 39.5t127.5 101.5q-10 75 -10 289v221q-37 31 -113.5 54.5t-152.5 23.5q-247 0 -262 -258q-9 -107 0 -217z" />
<glyph unicode="&#xab;" horiz-adv-x="1056" d="M172 606q-121 102 0 205l266 238q30 24 56 -5q21 -28 -9 -55l-258 -231q-37 -35 -37 -49.5t37 -49.5l258 -231q30 -27 9 -55q-25 -29 -56 -4zM502 606q-121 102 0 205l266 238q17 10 27 10q13 0 24.5 -11.5t11.5 -25.5q0 -20 -16 -33l-258 -231q-37 -35 -37 -49.5 t37 -49.5l258 -231q16 -13 16 -33q0 -14 -11.5 -25.5t-24.5 -11.5q-9 0 -27 11z" />
<glyph unicode="&#xac;" d="M123 721q0 39 43 39h932q30 0 47.5 -18.5t17.5 -45.5v-456q0 -43 -37 -43q-39 0 -39 43v444h-921q-43 0 -43 37z" />
<glyph unicode="&#xad;" horiz-adv-x="716" d="M133 586q0 39 41 39h369q17 0 29 -11.5t12 -25.5q0 -17 -12 -28t-29 -11h-369q-17 0 -29 11.5t-12 25.5z" />
<glyph unicode="&#xae;" horiz-adv-x="1251" d="M190 842q-9 92 0 186q19 201 135.5 312.5t301.5 111.5t301 -111.5t135 -312.5q9 -94 0 -186q-19 -202 -135 -314t-301 -112t-301.5 112t-135.5 314zM256 838q13 -170 113.5 -264.5t257.5 -94.5t257 94.5t113 264.5q9 96 0 192q-13 170 -113 264.5t-257 94.5t-257.5 -94.5 t-113.5 -264.5q-9 -96 0 -192zM438 686v473q0 25 16 41.5t42 16.5h161q77 0 129 -45t52 -121q0 -129 -144 -164l158 -180q10 -10 10 -25q0 -12 -8.5 -20.5t-19.5 -8.5q-14 0 -31 17l-164 192q-18 21 -41 21h-98v-197q0 -31 -31 -31q-12 0 -21.5 9.5t-9.5 21.5zM500 942h151 q60 0 91.5 28.5t31.5 78.5q0 104 -119 104h-155v-211z" />
<glyph unicode="&#xaf;" horiz-adv-x="659" d="M128 1601.5q-10 18.5 0 37t34 18.5h348q22 0 31 -18.5t0 -37t-31 -18.5h-348q-24 0 -34 18.5z" />
<glyph unicode="&#xb0;" horiz-adv-x="790" d="M164 1202q0 97 67 164q70 70 164 70q95 0 162 -70q70 -67 70 -164q0 -95 -70 -162q-67 -67 -162 -67q-94 0 -164 67q-67 67 -67 162zM233 1202q0 -66 48 -114t114 -48q67 0 114.5 48t47.5 114q0 68 -47.5 116t-114.5 48q-66 0 -114 -48.5t-48 -115.5z" />
<glyph unicode="&#xb1;" d="M123 37q0 39 43 39h952q45 0 45 -39q0 -17 -13 -27t-32 -10h-952q-43 0 -43 37zM123 717q0 39 43 39h442v440q0 43 37 43q39 0 39 -43v-440h434q45 0 45 -39q0 -17 -13 -27t-32 -10h-434v-442q0 -43 -39 -43q-37 0 -37 43v442h-442q-43 0 -43 37z" />
<glyph unicode="&#xb2;" horiz-adv-x="958" d="M174 567v11q0 101 51.5 172.5t177.5 152.5l82 51l80 50q127 84 117 184q0 84 -57.5 136t-163.5 52q-133 0 -211 -106q-19 -25 -39 -25q-33 0 -33 33q0 11 10 31q89 141 271 141q139 0 218 -72t79 -190q0 -99 -64 -166q-63 -69 -229 -166q-118 -66 -166.5 -132.5 t-48.5 -145.5h483q43 0 43 -37t-43 -37h-493q-29 0 -46.5 17t-17.5 46z" />
<glyph unicode="&#xb3;" horiz-adv-x="899" d="M150 1382q0 39 43 39h436q80 0 80 -61q0 -33 -31 -64l-236 -225q50 4 54 4q116 0 189 -71.5t73 -178.5q0 -160 -131.5 -252t-360.5 -92h-10q-102 0 -102 39t39 39q14 0 39 -2t28 -2q194 0 309 71t115 197q0 84 -52.5 133.5t-139.5 49.5q-28 0 -62 -3.5t-37 -3.5 q-33 0 -44.5 28.5t18.5 66.5l256 252h-430q-43 0 -43 36z" />
<glyph unicode="&#xb4;" horiz-adv-x="659" d="M154 1579q0 25 24 37l277 141q12 6 24 6q14 0 25.5 -10.5t11.5 -26.5q0 -24 -24 -36l-277 -142q-12 -6 -25 -6q-14 0 -25 10t-11 27z" />
<glyph unicode="&#xb5;" horiz-adv-x="1277" d="M205 -350v1366q0 24 19 34t38 0t19 -34v-641q0 -146 93 -232t244 -86q197 0 351 109v848q0 41 37 41q17 0 27.5 -11.5t10.5 -29.5v-858q0 -36 -26 -50q-71 -44 -88 -53q-42 -21 -123 -45q-85 -26 -184 -26q-228 0 -342 153v-485q0 -19 -10 -31t-27 -12q-39 0 -39 43z" />
<glyph unicode="&#xb6;" horiz-adv-x="1366" d="M264 1010q0 192 125 305q127 115 309 115h344q47 0 64.5 -18t17.5 -58v-1706q0 -25 -19 -35.5t-37.5 0t-18.5 35.5v1704h-189v-1704q0 -41 -37 -41q-17 0 -28 12t-11 29v940h-79q-196 0 -318 110q-123 114 -123 312zM346 1006q0 -155 92 -248.5t267 -93.5h79v688h-77 q-175 0 -268 -94.5t-93 -251.5z" />
<glyph unicode="&#xb7;" horiz-adv-x="520" d="M223 647v217q0 24 19 34t38 0t19 -34v-217q0 -24 -19 -34t-38 0t-19 34z" />
<glyph unicode="&#xb8;" horiz-adv-x="659" d="M217 -451q0 30 31 39q184 58 184 146q0 35 -23.5 55.5t-60.5 20.5q-10 0 -34.5 -7.5t-28.5 -7.5q-23 0 -34 17t-3 38l53 156q9 33 39 33q35 0 35 -37q0 -7 -6 -25l-37 -100q72 6 123 -34.5t51 -106.5q0 -143 -236 -219q-20 -6 -36.5 4.5t-16.5 27.5z" />
<glyph unicode="&#xb9;" horiz-adv-x="655" d="M117 1294q4 9 14 13l186 104q40 19 48 19q41 0 41 -48v-843q0 -41 -37 -41t-37 41v794l-160 -88q-28 -22 -49 4q-19 23 -6 45z" />
<glyph unicode="&#xba;" horiz-adv-x="987" d="M150 901q-9 126 0 209q15 144 112 233q104 93 240 93t237 -93q100 -89 115 -233q9 -83 0 -209q-12 -144 -113 -235q-105 -91 -239 -91q-135 0 -240 91q-100 90 -112 235zM225 907q7 -114 85 -185t192 -71t191.5 71t84.5 185q9 120 0 197q-11 113 -87.5 184.5t-188.5 71.5 t-189 -71.5t-88 -184.5q-9 -77 0 -197z" />
<glyph unicode="&#xbb;" horiz-adv-x="1056" d="M227 395q0 19 17 33l258 231q37 35 37 49.5t-37 49.5l-258 231q-17 14 -17 33q0 14 11.5 25.5t25.5 11.5q10 0 27 -10l266 -238q121 -103 0 -205l-266 -237q-18 -11 -27 -11q-14 0 -25.5 12t-11.5 25zM565 373q-22 28 8 55l258 231q37 35 37 49.5t-37 49.5l-258 231 q-30 27 -8 55q26 29 56 5l266 -238q121 -103 0 -205l-266 -237q-31 -25 -56 4z" />
<glyph unicode="&#xbc;" horiz-adv-x="1904" d="M117 1294q4 9 14 13l186 104q40 19 48 19q41 0 41 -48v-843q0 -41 -37 -41t-37 41v794l-160 -88q-28 -22 -49 4q-19 23 -6 45zM498 -4l583 1483q16 42 52 26q35 -11 20 -53l-586 -1485q-12 -37 -49 -22q-32 11 -20 51zM977 281q0 26 24 53l455 555q38 47 74 47 q61 0 61 -66v-569h99q41 0 41 -39q0 -35 -41 -35h-99v-186q0 -41 -35 -41q-38 0 -38 41v186h-488q-24 0 -38.5 15t-14.5 39zM1069 301h449v549z" />
<glyph unicode="&#xbd;" horiz-adv-x="1857" d="M117 1294q4 9 14 13l186 104q40 19 48 19q41 0 41 -48v-843q0 -41 -37 -41t-37 41v794l-160 -88q-28 -22 -49 4q-19 23 -6 45zM453 -12l583 1482q16 42 51 27q36 -12 21 -53l-586 -1485q-12 -37 -49 -22q-32 11 -20 51zM1075 63v11q0 101 52 172.5t178 152.5l81 52l80 49 q127 84 117 184q0 84 -57.5 136t-163.5 52q-133 0 -211 -106q-19 -25 -39 -25q-33 0 -33 33q0 9 11 31q88 141 270 141q139 0 218 -72t79 -190q0 -99 -64 -166q-63 -69 -229 -166q-118 -66 -166.5 -132.5t-48.5 -145.5h483q43 0 43 -37t-43 -37h-493q-29 0 -46.5 17 t-17.5 46z" />
<glyph unicode="&#xbe;" horiz-adv-x="2166" d="M150 1382q0 39 43 39h436q80 0 80 -61q0 -33 -31 -64l-236 -225q50 4 54 4q116 0 189 -71.5t73 -178.5q0 -160 -131.5 -252t-360.5 -92h-10q-102 0 -102 39t39 39q14 0 39 -2t28 -2q194 0 309 71t115 197q0 84 -52.5 133.5t-139.5 49.5q-28 0 -62 -3.5t-37 -3.5 q-33 0 -44.5 28.5t18.5 66.5l256 252h-430q-43 0 -43 36zM739 -12l584 1482q16 42 51 27q36 -12 21 -53l-586 -1485q-12 -37 -49 -22q-33 11 -21 51zM1270 281q0 26 24 53l455 555q38 47 74 47q61 0 61 -66v-569h98q41 0 41 -39q0 -35 -41 -35h-98v-186q0 -41 -35 -41 q-39 0 -39 41v186h-487q-24 0 -38.5 15t-14.5 39zM1362 301h448v549z" />
<glyph unicode="&#xbf;" horiz-adv-x="1153" d="M135 365q0 183 92 278q94 94 346 217q13 8 31 8q17 0 28 -11t11 -28q0 -30 -33 -41q-232 -100 -317 -188q-82 -85 -82 -233q0 -142 88.5 -226t241.5 -84q133 0 216.5 39t153.5 131q16 19 35 19q15 0 26 -10.5t11 -28.5q0 -12 -10 -29q-147 -196 -432 -196 q-188 0 -297 104.5t-109 278.5zM565 1198v217q0 24 19 34t38 0t19 -34v-217q0 -24 -19 -34t-38 0t-19 34z" />
<glyph unicode="&#xc0;" horiz-adv-x="1357" d="M70 55l462 1266q47 127 152 127t152 -127l462 -1266q6 -20 -5 -37.5t-31 -17.5q-26 0 -35 27l-187 512h-712l-187 -512q-9 -25 -37 -25q-20 0 -30 17t-4 36zM356 614h656l-256 703q-20 57 -72 57t-72 -57zM444 1724q0 16 11.5 26.5t25.5 10.5q13 0 25 -6l276 -141 q25 -12 25 -37q0 -16 -11.5 -26.5t-25.5 -10.5q-13 0 -25 6l-276 142q-25 12 -25 36z" />
<glyph unicode="&#xc1;" horiz-adv-x="1357" d="M70 55l462 1266q47 127 152 127t152 -127l462 -1266q6 -20 -5 -37.5t-31 -17.5q-26 0 -35 27l-187 512h-712l-187 -512q-9 -25 -37 -25q-20 0 -30 17t-4 36zM356 614h656l-256 703q-20 57 -72 57t-72 -57zM555 1577q0 25 25 37l276 141q12 6 25 6q14 0 25.5 -10.5 t11.5 -26.5q0 -24 -25 -36l-277 -142q-12 -6 -24 -6q-14 0 -25.5 10.5t-11.5 26.5z" />
<glyph unicode="&#xc2;" horiz-adv-x="1357" d="M70 55l462 1266q47 127 152 127t152 -127l462 -1266q6 -20 -5 -37.5t-31 -17.5q-26 0 -35 27l-187 512h-712l-187 -512q-9 -25 -37 -25q-20 0 -30 17t-4 36zM356 614h656l-256 703q-20 57 -72 57t-72 -57zM446 1579q0 21 17 31l166 123q49 37 98 0l166 -123 q16 -10 16 -31q0 -17 -11 -28t-28 -11q-13 0 -26 8l-166 123l-166 -123q-13 -8 -27 -8q-17 0 -28 11t-11 28z" />
<glyph unicode="&#xc3;" horiz-adv-x="1357" d="M70 55l462 1266q47 127 152 127t152 -127l462 -1266q6 -20 -5 -37.5t-31 -17.5q-26 0 -35 27l-187 512h-712l-187 -512q-9 -25 -37 -25q-20 0 -30 17t-4 36zM356 614h656l-256 703q-20 57 -72 57t-72 -57zM424 1612q0 19 16 35q64 55 133 55q53 0 115 -39q64 -37 94 -37 q26 0 62 25q34 24 51 24q14 0 25.5 -11t11.5 -24q0 -22 -23 -38q-76 -52 -129 -52q-51 0 -118 37q-62 39 -91 39q-25 0 -59 -27q-34 -24 -49 -24q-18 0 -28.5 11t-10.5 26z" />
<glyph unicode="&#xc4;" horiz-adv-x="1357" d="M70 55l462 1266q47 127 152 127t152 -127l462 -1266q6 -20 -5 -37.5t-31 -17.5q-26 0 -35 27l-187 512h-712l-187 -512q-9 -25 -37 -25q-20 0 -30 17t-4 36zM356 614h656l-256 703q-20 57 -72 57t-72 -57zM473 1626q0 25 17 42.5t42 17.5q26 0 44 -17.5t18 -42.5 q0 -26 -18 -43.5t-44 -17.5q-25 0 -42 17.5t-17 43.5zM762 1626q0 25 17.5 42.5t43.5 17.5q25 0 42.5 -17.5t17.5 -42.5q0 -26 -17.5 -43.5t-42.5 -17.5q-26 0 -43.5 17.5t-17.5 43.5z" />
<glyph unicode="&#xc5;" horiz-adv-x="1357" d="M70 55l462 1266q47 127 152 127t152 -127l462 -1266q6 -20 -5 -37.5t-31 -17.5q-26 0 -35 27l-187 512h-712l-187 -512q-9 -25 -37 -25q-20 0 -30 17t-4 36zM356 614h656l-256 703q-20 57 -72 57t-72 -57zM508 1710q0 67 50.5 116.5t119.5 49.5q68 0 117 -49t49 -117 t-49.5 -118t-116.5 -50q-69 0 -119.5 50t-50.5 118zM568 1709.5q0 -45.5 32 -77.5t77.5 -32t76.5 32q32 32 32 77.5t-32 76.5q-31 32 -76.5 32t-77.5 -32q-32 -31 -32 -76.5z" />
<glyph unicode="&#xc6;" horiz-adv-x="2091" d="M39 29q0 20 8 28l860 1286q60 84 178 84h801q39 0 39 -38q0 -14 -11 -25.5t-28 -11.5h-751v-594h735q17 0 28 -11.5t11 -25.5q0 -17 -11 -28t-28 -11h-735v-606h755q23 0 33 -19t0.5 -38t-33.5 -19h-755q-76 0 -76 76v485h-584l-369 -551q-10 -16 -30 -16q-37 0 -37 35z M524 633h535v719h-10q-47 0 -74 -35z" />
<glyph unicode="&#xc7;" horiz-adv-x="1355" d="M160 702q0 93 6 195q15 232 172 389q157 160 389 160q164 0 297 -92q137 -93 201 -236q10 -23 10 -37q0 -16 -11.5 -26.5t-25.5 -10.5q-27 0 -39 31q-49 131 -168 213q-122 84 -264 84q-194 0 -332 -135q-136 -136 -151 -340q-8 -73 -8 -180q0 -109 8 -180 q15 -207 149 -344q133 -136 334 -136q145 0 264 82q118 81 168 215q12 31 39 31q14 0 25.5 -10.5t11.5 -26.5q0 -14 -10 -37q-67 -146 -199 -236t-293 -91q-2 -2 -2 -7l-37 -100q72 6 123 -34.5t51 -106.5q0 -143 -235 -219q-20 -6 -36.5 4.5t-16.5 27.5q0 30 30 39 q185 59 185 146q0 35 -23.5 55.5t-60.5 20.5q-10 0 -35 -7.5t-29 -7.5q-23 0 -34 17t-3 38l47 138q-205 21 -342 176q-134 152 -149 373q-6 83 -6 165z" />
<glyph unicode="&#xc8;" horiz-adv-x="1273" d="M242 76v1276q0 33 19.5 54t55.5 21h752q39 0 39 -38q0 -14 -11 -25.5t-28 -11.5h-752v-594h736q17 0 28 -11.5t11 -25.5q0 -17 -11 -28t-28 -11h-736v-606h756q24 0 34 -19t0 -38t-34 -19h-756q-75 0 -75 76zM485 1724q0 16 11.5 26.5t25.5 10.5q13 0 25 -6l276 -141 q25 -12 25 -37q0 -16 -11.5 -26.5t-25.5 -10.5q-13 0 -25 6l-276 142q-25 12 -25 36z" />
<glyph unicode="&#xc9;" horiz-adv-x="1273" d="M242 76v1276q0 33 19.5 54t55.5 21h752q39 0 39 -38q0 -14 -11 -25.5t-28 -11.5h-752v-594h736q17 0 28 -11.5t11 -25.5q0 -17 -11 -28t-28 -11h-736v-606h756q24 0 34 -19t0 -38t-34 -19h-756q-75 0 -75 76zM424 1577q0 25 25 37l276 141q12 6 25 6q14 0 25 -10.5 t11 -26.5q0 -24 -24 -36l-277 -142q-12 -6 -24 -6q-14 0 -25.5 10.5t-11.5 26.5z" />
<glyph unicode="&#xca;" horiz-adv-x="1273" d="M242 76v1276q0 33 19.5 54t55.5 21h752q39 0 39 -38q0 -14 -11 -25.5t-28 -11.5h-752v-594h736q17 0 28 -11.5t11 -25.5q0 -17 -11 -28t-28 -11h-736v-606h756q24 0 34 -19t0 -38t-34 -19h-756q-75 0 -75 76zM451 1579q0 21 16 31l166 123q49 37 98 0l166 -123 q16 -10 16 -31q0 -17 -11 -28t-28 -11q-13 0 -26 8l-166 123l-166 -123q-13 -8 -27 -8q-17 0 -27.5 11t-10.5 28z" />
<glyph unicode="&#xcb;" horiz-adv-x="1273" d="M242 76v1276q0 33 19.5 54t55.5 21h752q39 0 39 -38q0 -14 -11 -25.5t-28 -11.5h-752v-594h736q17 0 28 -11.5t11 -25.5q0 -17 -11 -28t-28 -11h-736v-606h756q24 0 34 -19t0 -38t-34 -19h-756q-75 0 -75 76zM485 1624q0 25 17.5 42t42.5 17q26 0 43.5 -17t17.5 -42 q0 -26 -17.5 -43.5t-43.5 -17.5q-25 0 -42.5 17.5t-17.5 43.5zM774 1624q0 25 18 42t44 17q25 0 42 -17t17 -42q0 -26 -17 -43.5t-42 -17.5q-26 0 -44 17.5t-18 43.5z" />
<glyph unicode="&#xcc;" horiz-adv-x="565" d="M53 1724q0 16 11.5 26.5t25.5 10.5q13 0 25 -6l276 -141q25 -12 25 -37q0 -16 -11.5 -26.5t-25.5 -10.5q-13 0 -25 6l-276 142q-25 12 -25 36zM244 31v1368q0 17 10 28t27 11q38 0 38 -39v-1368q0 -39 -38 -39q-37 0 -37 39z" />
<glyph unicode="&#xcd;" horiz-adv-x="565" d="M152 1577q0 25 24 37l277 141q12 6 24 6q14 0 25.5 -10.5t11.5 -26.5q0 -24 -25 -36l-276 -142q-12 -6 -25 -6q-14 0 -25 10t-11 27zM244 31v1368q0 17 10 28t27 11q38 0 38 -39v-1368q0 -39 -38 -39q-37 0 -37 39z" />
<glyph unicode="&#xce;" horiz-adv-x="565" d="M53 1579q0 21 17 31l166 123q49 37 98 0l166 -123q16 -10 16 -31q0 -17 -11 -28t-28 -11q-13 0 -26 8l-166 123l-166 -123q-13 -8 -27 -8q-17 0 -28 11t-11 28zM244 31v1368q0 17 10 28t27 11q38 0 38 -39v-1368q0 -39 -38 -39q-37 0 -37 39z" />
<glyph unicode="&#xcf;" horiz-adv-x="565" d="M76 1626q0 25 17 42.5t42 17.5q26 0 44 -17.5t18 -42.5q0 -26 -18 -43.5t-44 -17.5q-25 0 -42 17.5t-17 43.5zM244 31v1368q0 17 10 28t27 11q38 0 38 -39v-1368q0 -39 -38 -39q-37 0 -37 39zM365 1626q0 25 17.5 42.5t43.5 17.5q25 0 42 -17.5t17 -42.5q0 -26 -17 -43.5 t-42 -17.5q-26 0 -43.5 17.5t-17.5 43.5z" />
<glyph unicode="&#xd0;" horiz-adv-x="1474" d="M20 705q0 38 41 38h181v609q0 33 19.5 54t53.5 21h381q289 0 443 -167q158 -169 170 -439q3 -142 -2 -225q-15 -265 -174 -432q-156 -164 -437 -164h-381q-34 0 -53.5 21.5t-19.5 54.5v592h-181q-17 0 -29 11.5t-12 25.5zM317 76h373q255 0 393 136t150 382q6 123 0 246 q-14 244 -151.5 378t-391.5 134h-373v-609h404q18 0 29.5 -10.5t11.5 -27.5q0 -14 -12 -25.5t-29 -11.5h-404v-592z" />
<glyph unicode="&#xd1;" horiz-adv-x="1576" d="M242 33v1329q0 35 19.5 56.5t51.5 21.5q46 0 76 -47l866 -1317h5v1323q0 18 9.5 28.5t26.5 10.5q39 0 39 -39v-1325q0 -35 -19.5 -56.5t-51.5 -21.5q-46 0 -76 47l-866 1313h-5v-1323q0 -39 -38 -39q-14 0 -25.5 11t-11.5 28zM522 1616q0 18 17 35q64 55 133 55 q52 0 114 -39q64 -37 95 -37q25 0 61 25q34 24 51 24q14 0 25.5 -10.5t11.5 -23.5q0 -23 -22 -39q-76 -52 -129 -52q-52 0 -119 37q-62 39 -90 39q-27 0 -60 -26q-36 -25 -49 -25q-18 0 -28.5 11t-10.5 26z" />
<glyph unicode="&#xd2;" horiz-adv-x="1484" d="M180 549q-12 166 0 334q15 238 178 401q162 162 396 162q233 0 395 -162q165 -165 180 -401q12 -168 0 -334q-15 -243 -178 -406q-163 -159 -397 -159q-232 0 -396 159q-160 160 -178 406zM258 535q21 -208 158 -342q140 -134 338 -134t338 134q138 135 159 342 q18 180 0 358q-21 207 -159 342t-338 135t-338 -135q-137 -134 -158 -342q-18 -178 0 -358zM526 1724q0 16 11.5 26.5t25.5 10.5q13 0 25 -6l276 -141q25 -12 25 -37q0 -16 -11.5 -26.5t-25.5 -10.5q-13 0 -25 6l-276 142q-25 12 -25 36z" />
<glyph unicode="&#xd3;" horiz-adv-x="1484" d="M180 549q-12 166 0 334q15 238 178 401q162 162 396 162q233 0 395 -162q165 -165 180 -401q12 -168 0 -334q-15 -243 -178 -406q-163 -159 -397 -159q-232 0 -396 159q-160 160 -178 406zM258 535q21 -208 158 -342q140 -134 338 -134t338 134q138 135 159 342 q18 180 0 358q-21 207 -159 342t-338 135t-338 -135q-137 -134 -158 -342q-18 -178 0 -358zM604 1577q0 25 25 37l276 141q12 6 25 6q14 0 25.5 -10.5t11.5 -26.5q0 -24 -25 -36l-276 -142q-12 -6 -25 -6q-14 0 -25.5 10.5t-11.5 26.5z" />
<glyph unicode="&#xd4;" horiz-adv-x="1484" d="M180 549q-12 166 0 334q15 238 178 401q162 162 396 162q233 0 395 -162q165 -165 180 -401q12 -168 0 -334q-15 -243 -178 -406q-163 -159 -397 -159q-232 0 -396 159q-160 160 -178 406zM258 535q21 -208 158 -342q140 -134 338 -134t338 134q138 135 159 342 q18 180 0 358q-21 207 -159 342t-338 135t-338 -135q-137 -134 -158 -342q-18 -178 0 -358zM508 1579q0 21 16 31l166 123q49 37 98 0l166 -123q17 -10 17 -31q0 -17 -11 -28t-28 -11q-14 0 -27 8l-166 123l-166 -123q-13 -8 -26 -8q-17 0 -28 11t-11 28z" />
<glyph unicode="&#xd5;" horiz-adv-x="1484" d="M180 549q-12 166 0 334q15 238 178 401q162 162 396 162q233 0 395 -162q165 -165 180 -401q12 -168 0 -334q-15 -243 -178 -406q-163 -159 -397 -159q-232 0 -396 159q-160 160 -178 406zM258 535q21 -208 158 -342q140 -134 338 -134t338 134q138 135 159 342 q18 180 0 358q-21 207 -159 342t-338 135t-338 -135q-137 -134 -158 -342q-18 -178 0 -358zM492 1608q0 18 16 34q65 56 133 56q53 0 115 -39q64 -37 94 -37q25 0 61 25q35 24 52 24q14 0 25 -11t11 -24q0 -23 -22 -39q-74 -51 -129 -51q-52 0 -119 37q-62 39 -90 39 q-25 0 -59 -27q-34 -24 -50 -24q-18 0 -28 11t-10 26z" />
<glyph unicode="&#xd6;" horiz-adv-x="1484" d="M180 549q-12 166 0 334q15 238 178 401q162 162 396 162q233 0 395 -162q165 -165 180 -401q12 -168 0 -334q-15 -243 -178 -406q-163 -159 -397 -159q-232 0 -396 159q-160 160 -178 406zM258 535q21 -208 158 -342q140 -134 338 -134t338 134q138 135 159 342 q18 180 0 358q-21 207 -159 342t-338 135t-338 -135q-137 -134 -158 -342q-18 -178 0 -358zM537 1626q0 25 17 42.5t42 17.5q26 0 43.5 -17.5t17.5 -42.5q0 -26 -17.5 -43.5t-43.5 -17.5q-25 0 -42 17.5t-17 43.5zM825 1626q0 25 18 42.5t44 17.5q25 0 42 -17.5t17 -42.5 q0 -26 -17 -43.5t-42 -17.5q-26 0 -44 17.5t-18 43.5z" />
<glyph unicode="&#xd7;" d="M211 1171q25 25 59 -2l400 -395l391 387q33 35 59 6q25 -28 -6 -59l-391 -389l395 -387q27 -35 2 -60q-27 -27 -57 7l-393 387l-398 -394q-30 -30 -57 -6q-28 28 4 60l397 393l-399 395q-30 30 -6 57z" />
<glyph unicode="&#xd8;" horiz-adv-x="1480" d="M176 549q-12 166 0 334q15 238 178 401q162 162 396 162q162 0 299 -84l28 55q16 29 41 29q19 0 29 -18.5t0 -41.5l-37 -71q197 -164 215 -432q12 -168 0 -334q-15 -243 -178 -406q-163 -159 -397 -159q-161 0 -287 75l-25 -51q-12 -24 -39 -24q-20 0 -30 18.5t0 38.5 l30 61q-202 166 -223 447zM254 535q21 -225 180 -363l580 1120q-122 78 -264 78q-200 0 -338 -135q-137 -134 -158 -342q-18 -178 0 -358zM498 127q118 -68 252 -68q197 0 337 134q139 136 160 342q18 180 0 358q-21 215 -172 354z" />
<glyph unicode="&#xd9;" horiz-adv-x="1531" d="M219 553v846q0 17 10 28t27 11q39 0 39 -39v-830q0 -230 131 -370q134 -140 340 -140t340 140q133 142 133 370v830q0 17 10 28t27 11q39 0 39 -39v-846q0 -253 -156 -412q-157 -157 -393 -157t-393 157q-154 160 -154 412zM623 1724q0 16 11 26.5t25 10.5q13 0 25 -6 l277 -141q24 -12 24 -37q0 -16 -11.5 -26.5t-25.5 -10.5q-12 0 -24 6l-277 142q-24 12 -24 36z" />
<glyph unicode="&#xda;" horiz-adv-x="1531" d="M219 553v846q0 17 10 28t27 11q39 0 39 -39v-830q0 -230 131 -370q134 -140 340 -140t340 140q133 142 133 370v830q0 17 10 28t27 11q39 0 39 -39v-846q0 -253 -156 -412q-157 -157 -393 -157t-393 157q-154 160 -154 412zM559 1577q0 25 25 37l276 141q12 6 25 6 q14 0 25.5 -10.5t11.5 -26.5q0 -24 -25 -36l-276 -142q-12 -6 -25 -6q-14 0 -25.5 10.5t-11.5 26.5z" />
<glyph unicode="&#xdb;" horiz-adv-x="1531" d="M219 553v846q0 17 10 28t27 11q39 0 39 -39v-830q0 -230 131 -370q134 -140 340 -140t340 140q133 142 133 370v830q0 17 10 28t27 11q39 0 39 -39v-846q0 -253 -156 -412q-157 -157 -393 -157t-393 157q-154 160 -154 412zM532 1579q0 21 17 31l166 123q49 37 98 0 l166 -123q16 -10 16 -31q0 -17 -11 -28t-28 -11q-13 0 -26 8l-166 123l-166 -123q-13 -8 -27 -8q-17 0 -28 11t-11 28z" />
<glyph unicode="&#xdc;" horiz-adv-x="1531" d="M219 553v846q0 17 10 28t27 11q39 0 39 -39v-830q0 -230 131 -370q134 -140 340 -140t340 140q133 142 133 370v830q0 17 10 28t27 11q39 0 39 -39v-846q0 -253 -156 -412q-157 -157 -393 -157t-393 157q-154 160 -154 412zM561 1626q0 25 17.5 42.5t42.5 17.5 q26 0 43.5 -17.5t17.5 -42.5q0 -26 -17.5 -43.5t-43.5 -17.5q-25 0 -42.5 17.5t-17.5 43.5zM850 1626q0 25 17.5 42.5t43.5 17.5q25 0 42.5 -17.5t17.5 -42.5q0 -26 -17.5 -43.5t-42.5 -17.5q-26 0 -43.5 17.5t-17.5 43.5z" />
<glyph unicode="&#xdd;" horiz-adv-x="1302" d="M46.5 1416.5q9.5 21.5 33.5 21.5q19 0 29 -13l542 -675l543 675q9 15 29 15q17 0 28 -11.5t11 -25.5q0 -9 -11 -27l-526 -651q-35 -47 -35 -92v-602q0 -17 -11 -28t-28 -11q-14 0 -25.5 11t-11.5 28v602q0 47 -39 92l-524 653q-14 17 -4.5 38.5zM473 1577q0 25 25 37 l276 141q12 6 25 6q14 0 25.5 -10.5t11.5 -26.5q0 -24 -25 -36l-276 -142q-12 -6 -25 -6q-14 0 -25.5 10.5t-11.5 26.5z" />
<glyph unicode="&#xde;" horiz-adv-x="1312" d="M242 33v1380q0 39 37 39q17 0 27.5 -11t10.5 -28v-268h441q181 0 307 -117q127 -115 127 -307q0 -196 -125 -309t-326 -113h-424v-266q0 -39 -38 -39q-37 0 -37 39zM317 375h428q185 0 278 90t93 252q0 159 -94 255.5t-264 96.5h-441v-694z" />
<glyph unicode="&#xdf;" horiz-adv-x="1304" d="M221 33v1001q0 190 100.5 291.5t284.5 101.5q157 0 253.5 -77t96.5 -209q0 -44 -19.5 -85t-47.5 -73t-56 -63t-47.5 -67t-19.5 -73t26 -68.5t67 -56.5t91 -50t99.5 -53.5t90.5 -61.5t67 -80.5t26 -104.5q0 -151 -101 -235t-266 -84q-191 0 -329 120q-19 19 -19 35 q0 23 21.5 32.5t44.5 -3.5q133 -109 282 -109q138 0 214.5 61.5t76.5 182.5q0 46 -26 84.5t-67 66t-90.5 53t-99.5 52.5t-91 56.5t-67 73t-26 95.5q-2 36 17 76.5t47.5 76t57 69.5t48 68.5t17.5 62.5q0 99 -68 156t-191 57q-321 0 -321 -314v-1005q0 -39 -37 -39 q-17 0 -28 11t-11 28z" />
<glyph unicode="&#xe0;" horiz-adv-x="1159" d="M150 319q0 142 106 229t285 87q146 0 344 -55v133q0 280 -307 280q-140 0 -283 -67q-23 -10 -42.5 1t-19.5 34q0 22 25 38q131 70 320 70q383 0 383 -354v-572q0 -29 -23 -45q-162 -116 -385 -116q-194 0 -298.5 88t-104.5 249zM225 319q0 -126 83 -194t245 -68 q205 0 332 103v342q-191 57 -346 57q-142 0 -228 -65t-86 -175zM424 1389q0 16 11 26t26 10q12 0 24 -6l277 -141q24 -12 24 -37q0 -17 -11 -27t-25 -10q-13 0 -25 6l-276 142q-25 12 -25 37z" />
<glyph unicode="&#xe1;" horiz-adv-x="1159" d="M150 319q0 142 106 229t285 87q146 0 344 -55v133q0 280 -307 280q-140 0 -283 -67q-23 -10 -42.5 1t-19.5 34q0 22 25 38q131 70 320 70q383 0 383 -354v-572q0 -29 -23 -45q-162 -116 -385 -116q-194 0 -298.5 88t-104.5 249zM225 319q0 -126 83 -194t245 -68 q205 0 332 103v342q-191 57 -346 57q-142 0 -228 -65t-86 -175zM379 1241q0 25 24 37l277 141q12 6 25 6q14 0 25 -10t11 -26q0 -25 -24 -37l-277 -142q-12 -6 -24 -6q-14 0 -25.5 10.5t-11.5 26.5z" />
<glyph unicode="&#xe2;" horiz-adv-x="1159" d="M150 319q0 142 106 229t285 87q146 0 344 -55v133q0 280 -307 280q-140 0 -283 -67q-23 -10 -42.5 1t-19.5 34q0 22 25 38q131 70 320 70q383 0 383 -354v-572q0 -29 -23 -45q-162 -116 -385 -116q-194 0 -298.5 88t-104.5 249zM225 319q0 -126 83 -194t245 -68 q205 0 332 103v342q-191 57 -346 57q-142 0 -228 -65t-86 -175zM348 1217q0 20 17 30l165 123q50 38 99 0l166 -123q16 -10 16 -30q0 -17 -11 -28t-28 -11q-14 0 -27 8l-165 123l-166 -123q-13 -8 -27 -8q-17 0 -28 11t-11 28z" />
<glyph unicode="&#xe3;" horiz-adv-x="1159" d="M150 319q0 142 106 229t285 87q146 0 344 -55v133q0 280 -307 280q-140 0 -283 -67q-23 -10 -42.5 1t-19.5 34q0 22 25 38q131 70 320 70q383 0 383 -354v-572q0 -29 -23 -45q-162 -116 -385 -116q-194 0 -298.5 88t-104.5 249zM225 319q0 -126 83 -194t245 -68 q205 0 332 103v342q-191 57 -346 57q-142 0 -228 -65t-86 -175zM330 1280q0 19 16 35q64 55 133 55q53 0 115 -39q64 -37 94 -37q26 0 62 25q34 24 51 24q14 0 25.5 -10.5t11.5 -23.5q0 -23 -23 -39q-74 -51 -129 -51q-54 0 -119 36q-62 39 -90 39q-26 0 -59 -26 q-36 -25 -49 -25q-18 0 -28.5 11t-10.5 26z" />
<glyph unicode="&#xe4;" horiz-adv-x="1159" d="M150 319q0 142 106 229t285 87q146 0 344 -55v133q0 280 -307 280q-140 0 -283 -67q-23 -10 -42.5 1t-19.5 34q0 22 25 38q131 70 320 70q383 0 383 -354v-572q0 -29 -23 -45q-162 -116 -385 -116q-194 0 -298.5 88t-104.5 249zM225 319q0 -126 83 -194t245 -68 q205 0 332 103v342q-191 57 -346 57q-142 0 -228 -65t-86 -175zM377 1294q0 25 17 42.5t42 17.5q26 0 44 -17.5t18 -42.5q0 -26 -18 -43.5t-44 -17.5q-25 0 -42 17.5t-17 43.5zM666 1294q0 25 17.5 42.5t43.5 17.5q25 0 42 -17.5t17 -42.5q0 -26 -17 -43.5t-42 -17.5 q-26 0 -43.5 17.5t-17.5 43.5z" />
<glyph unicode="&#xe5;" horiz-adv-x="1159" d="M150 319q0 142 106 229t285 87q146 0 344 -55v133q0 280 -307 280q-140 0 -283 -67q-23 -10 -42.5 1t-19.5 34q0 22 25 38q131 70 320 70q383 0 383 -354v-572q0 -29 -23 -45q-162 -116 -385 -116q-194 0 -298.5 88t-104.5 249zM225 319q0 -126 83 -194t245 -68 q205 0 332 103v342q-191 57 -346 57q-142 0 -228 -65t-86 -175zM412 1327q0 67 50.5 116.5t119.5 49.5q68 0 117 -49.5t49 -116.5q0 -68 -49.5 -118t-116.5 -50q-69 0 -119.5 50t-50.5 118zM472 1326.5q0 -45.5 32 -77.5t77 -32t76 32q32 32 32 77.5t-32 76.5q-31 32 -76 32 t-77 -32q-32 -31 -32 -76.5z" />
<glyph unicode="&#xe6;" horiz-adv-x="1886" d="M150 319q0 142 106 229t285 87q146 0 344 -55v133q0 280 -307 280q-140 0 -283 -67q-23 -10 -42.5 1t-19.5 34q0 22 25 38q131 70 320 70q298 0 362 -217q48 99 148.5 158t228.5 59q186 0 301 -121t115 -301v-55q0 -100 -107 -100h-665v-54q0 -177 98.5 -279t265.5 -102 q138 0 283 62q12 4 20 4q16 0 26.5 -11.5t10.5 -25.5q0 -24 -25 -37q-51 -26 -145 -47q-87 -20 -166 -20q-235 0 -352 153q-193 -153 -424 -153q-194 0 -298.5 88t-104.5 249zM225 319q0 -125 83 -193.5t245 -68.5q208 0 383 146q-60 138 -51 299q-191 57 -346 57 q-142 0 -228 -65t-86 -175zM961 567h663q17 0 24.5 9.5t8 18.5t0.5 34q0 170 -91.5 267t-246.5 97q-179 0 -271 -110.5t-87 -315.5z" />
<glyph unicode="&#xe7;" horiz-adv-x="1138" d="M188 385q-9 145 0 289q9 180 127 289q119 110 308 110q91 0 171 -34t124 -87q42 -49 66 -96t24 -78q0 -17 -11.5 -28t-25.5 -11q-32 0 -41 37q-31 106 -115.5 163.5t-191.5 57.5q-153 0 -249.5 -87t-107.5 -230q-9 -175 0 -303q11 -143 106 -231.5t251 -88.5 q107 0 191.5 57.5t115.5 164.5q9 36 41 36q14 0 25.5 -11t11.5 -28q0 -41 -35 -106q-35 -62 -123 -123q-89 -59 -205 -65v-5l-37 -100q72 6 123 -34.5t51 -106.5q0 -143 -235 -219q-20 -6 -36.5 4.5t-16.5 27.5q0 30 30 39q185 59 185 146q0 35 -23.5 55.5t-60.5 20.5 q-10 0 -35 -7.5t-29 -7.5q-23 0 -34 17t-3 38l45 134q-170 15 -274 125q-104 116 -107 276z" />
<glyph unicode="&#xe8;" horiz-adv-x="1175" d="M180 428q-3 132 4 227q9 192 129 303t301 111q184 0 299 -121t115 -301v-55q0 -100 -106 -100h-666v-56q0 -177 99 -278t266 -101q137 0 282 62q12 4 21 4q16 0 26.5 -11.5t10.5 -25.5q0 -24 -25 -37q-51 -26 -145 -47q-87 -20 -166 -20q-207 0 -320.5 117t-124.5 329z M256 567h664q29 0 32 33q7 182 -84.5 287.5t-253.5 105.5q-179 0 -271 -110.5t-87 -315.5zM414 1389q0 16 11 26t26 10q12 0 24 -6l277 -141q24 -12 24 -37q0 -16 -11.5 -26.5t-25.5 -10.5q-12 0 -24 6l-277 142q-24 12 -24 37z" />
<glyph unicode="&#xe9;" horiz-adv-x="1175" d="M180 428q-3 132 4 227q9 192 129 303t301 111q184 0 299 -121t115 -301v-55q0 -100 -106 -100h-666v-56q0 -177 99 -278t266 -101q137 0 282 62q12 4 21 4q16 0 26.5 -11.5t10.5 -25.5q0 -24 -25 -37q-51 -26 -145 -47q-87 -20 -166 -20q-207 0 -320.5 117t-124.5 329z M256 567h664q29 0 32 33q7 182 -84.5 287.5t-253.5 105.5q-179 0 -271 -110.5t-87 -315.5zM436 1241q0 25 25 37l276 141q12 6 25 6q15 0 26 -10t11 -26q0 -25 -25 -37l-276 -142q-12 -6 -25 -6q-14 0 -25.5 10.5t-11.5 26.5z" />
<glyph unicode="&#xea;" horiz-adv-x="1175" d="M180 428q-3 132 4 227q9 192 129 303t301 111q184 0 299 -121t115 -301v-55q0 -100 -106 -100h-666v-56q0 -177 99 -278t266 -101q137 0 282 62q12 4 21 4q16 0 26.5 -11.5t10.5 -25.5q0 -24 -25 -37q-51 -26 -145 -47q-87 -20 -166 -20q-207 0 -320.5 117t-124.5 329z M256 567h664q29 0 32 33q7 182 -84.5 287.5t-253.5 105.5q-179 0 -271 -110.5t-87 -315.5zM352 1243q0 21 17 31l166 123q49 37 98 0l166 -123q16 -10 16 -31q0 -17 -11 -28t-28 -11q-13 0 -26 8l-166 123l-166 -123q-13 -8 -27 -8q-17 0 -28 11t-11 28z" />
<glyph unicode="&#xeb;" horiz-adv-x="1175" d="M180 428q-3 132 4 227q9 192 129 303t301 111q184 0 299 -121t115 -301v-55q0 -100 -106 -100h-666v-56q0 -177 99 -278t266 -101q137 0 282 62q12 4 21 4q16 0 26.5 -11.5t10.5 -25.5q0 -24 -25 -37q-51 -26 -145 -47q-87 -20 -166 -20q-207 0 -320.5 117t-124.5 329z M256 567h664q29 0 32 33q7 182 -84.5 287.5t-253.5 105.5q-179 0 -271 -110.5t-87 -315.5zM403 1294q0 25 17.5 42.5t42.5 17.5q26 0 43.5 -17.5t17.5 -42.5q0 -26 -17.5 -43.5t-43.5 -17.5q-25 0 -42.5 17.5t-17.5 43.5zM692 1294q0 25 18 42.5t44 17.5q25 0 42 -17.5 t17 -42.5q0 -26 -17 -43.5t-42 -17.5q-26 0 -44 17.5t-18 43.5z" />
<glyph unicode="&#xec;" horiz-adv-x="534" d="M45 1389q0 16 11 26t26 10q12 0 24 -6l277 -141q25 -12 25 -37q0 -16 -11.5 -26.5t-25.5 -10.5q-13 0 -25 6l-276 142q-25 12 -25 37zM231 35v979q0 17 11 29t28 12q14 0 25.5 -12t11.5 -29v-979q0 -41 -37 -41q-39 0 -39 41z" />
<glyph unicode="&#xed;" horiz-adv-x="534" d="M145 1241q0 25 25 37l276 141q12 6 25 6q15 0 26 -10t11 -26q0 -25 -25 -37l-276 -142q-12 -6 -25 -6q-14 0 -25.5 10.5t-11.5 26.5zM231 35v979q0 17 11 29t28 12q14 0 25.5 -12t11.5 -29v-979q0 -41 -37 -41q-39 0 -39 41z" />
<glyph unicode="&#xee;" horiz-adv-x="534" d="M49 1243q0 21 17 31l165 123q49 37 99 0l166 -123q16 -10 16 -31q0 -17 -11 -28t-28 -11q-14 0 -27 8l-165 123l-166 -123q-13 -8 -27 -8q-17 0 -28 11t-11 28zM231 35v979q0 17 11 29t28 12q14 0 25.5 -12t11.5 -29v-979q0 -41 -37 -41q-39 0 -39 41z" />
<glyph unicode="&#xef;" horiz-adv-x="534" d="M76 1294q0 25 17 42.5t42 17.5q26 0 44 -17.5t18 -42.5q0 -26 -18 -43.5t-44 -17.5q-25 0 -42 17.5t-17 43.5zM231 35v979q0 17 11 29t28 12q14 0 25.5 -12t11.5 -29v-979q0 -41 -37 -41q-39 0 -39 41zM365 1294q0 25 17.5 42.5t43.5 17.5q25 0 42 -17.5t17 -42.5 q0 -26 -17 -43.5t-42 -17.5q-26 0 -43.5 17.5t-17.5 43.5z" />
<glyph unicode="&#xf0;" horiz-adv-x="1189" d="M182 371q-6 125 0 247q9 170 125 277q115 106 289 106q105 0 199 -48.5t137 -123.5q3 231 -137 377l-170 -80q-12 -6 -23 -6q-17 0 -28 11t-11 28q0 25 27 37l141 68q-55 47 -115 79q-26 14 -26 39q0 39 39 39q18 0 26 -8q92 -63 152 -113l149 72q20 11 39 -1.5t19.5 -33 t-23.5 -37.5l-123 -59q76 -80 110 -180.5t34 -251.5l-4 -412q0 -186 -121 -301q-120 -114 -295 -114q-173 0 -287 108q-114 111 -123 281zM260 365q9 -135 102 -222q92 -86 230 -86q140 0 232 85.5t104 222.5q9 105 0 260q-9 131 -105 215q-92 86 -231 86q-140 0 -232 -84 t-100 -215q-9 -157 0 -262z" />
<glyph unicode="&#xf1;" horiz-adv-x="1269" d="M225 33v874q0 39 35 60q169 102 391 102q195 0 303.5 -100.5t108.5 -292.5v-643q0 -41 -37 -41q-17 0 -28 12t-11 29v641q0 319 -338 319q-200 0 -348 -92v-868q0 -41 -39 -41q-14 0 -25.5 12t-11.5 29zM385 1280q0 19 16 35q64 55 134 55q52 0 114 -39q64 -37 94 -37 q26 0 62 25q35 24 51 24q14 0 25.5 -10.5t11.5 -23.5q0 -23 -23 -39q-74 -51 -129 -51q-53 0 -118 36q-62 39 -91 39q-26 0 -59 -26q-36 -25 -49 -25q-18 0 -28.5 11t-10.5 26z" />
<glyph unicode="&#xf2;" horiz-adv-x="1210" d="M184 387q-6 143 0 287q6 177 125 284q120 111 303 111q179 0 299 -111q118 -106 127 -284q9 -144 0 -287q-9 -177 -129 -291t-297 -114q-181 0 -301 114q-121 115 -127 291zM264 375q12 -143 106.5 -230.5t241.5 -87.5t240.5 87t105.5 231q12 133 0 309 q-8 138 -101.5 223.5t-244.5 85.5t-245.5 -85.5t-102.5 -223.5q-9 -184 0 -309zM451 1389q0 16 11 26t25 10q13 0 25 -6l276 -141q25 -12 25 -37q0 -16 -11.5 -26.5t-25.5 -10.5q-12 0 -24 6l-277 142q-24 12 -24 37z" />
<glyph unicode="&#xf3;" horiz-adv-x="1210" d="M184 387q-6 143 0 287q6 177 125 284q120 111 303 111q179 0 299 -111q118 -106 127 -284q9 -144 0 -287q-9 -177 -129 -291t-297 -114q-181 0 -301 114q-121 115 -127 291zM264 375q12 -143 106.5 -230.5t241.5 -87.5t240.5 87t105.5 231q12 133 0 309 q-8 138 -101.5 223.5t-244.5 85.5t-245.5 -85.5t-102.5 -223.5q-9 -184 0 -309zM410 1241q0 25 24 37l277 141q12 6 24 6q15 0 26 -10t11 -26q0 -25 -24 -37l-277 -142q-12 -6 -25 -6q-14 0 -25 10t-11 27z" />
<glyph unicode="&#xf4;" horiz-adv-x="1210" d="M184 387q-6 143 0 287q6 177 125 284q120 111 303 111q179 0 299 -111q118 -106 127 -284q9 -144 0 -287q-9 -177 -129 -291t-297 -114q-181 0 -301 114q-121 115 -127 291zM264 375q12 -143 106.5 -230.5t241.5 -87.5t240.5 87t105.5 231q12 133 0 309 q-8 138 -101.5 223.5t-244.5 85.5t-245.5 -85.5t-102.5 -223.5q-9 -184 0 -309zM373 1241q0 21 16 31l166 123q49 37 98 0l166 -123q17 -10 17 -31q0 -17 -11 -28t-28 -11q-14 0 -27 8l-166 123l-166 -123q-13 -8 -26 -8q-17 0 -28 11t-11 28z" />
<glyph unicode="&#xf5;" horiz-adv-x="1210" d="M184 387q-6 143 0 287q6 177 125 284q120 111 303 111q179 0 299 -111q118 -106 127 -284q9 -144 0 -287q-9 -177 -129 -291t-297 -114q-181 0 -301 114q-121 115 -127 291zM264 375q12 -143 106.5 -230.5t241.5 -87.5t240.5 87t105.5 231q12 133 0 309 q-8 138 -101.5 223.5t-244.5 85.5t-245.5 -85.5t-102.5 -223.5q-9 -184 0 -309zM354 1280q0 18 17 35q64 55 133 55q52 0 114 -39q64 -37 95 -37q25 0 61 25q34 24 51 24q14 0 25.5 -10.5t11.5 -23.5q0 -23 -22 -39q-74 -51 -129 -51q-54 0 -119 36q-62 39 -90 39 q-27 0 -60 -26q-36 -25 -49 -25q-18 0 -28.5 11t-10.5 26z" />
<glyph unicode="&#xf6;" horiz-adv-x="1210" d="M184 387q-6 143 0 287q6 177 125 284q120 111 303 111q179 0 299 -111q118 -106 127 -284q9 -144 0 -287q-9 -177 -129 -291t-297 -114q-181 0 -301 114q-121 115 -127 291zM264 375q12 -143 106.5 -230.5t241.5 -87.5t240.5 87t105.5 231q12 133 0 309 q-8 138 -101.5 223.5t-244.5 85.5t-245.5 -85.5t-102.5 -223.5q-9 -184 0 -309zM401 1294q0 25 17.5 42.5t42.5 17.5q26 0 43.5 -17.5t17.5 -42.5q0 -26 -17.5 -43.5t-43.5 -17.5q-25 0 -42.5 17.5t-17.5 43.5zM690 1294q0 25 18 42.5t44 17.5q25 0 42 -17.5t17 -42.5 q0 -26 -17 -43.5t-42 -17.5q-26 0 -44 17.5t-18 43.5z" />
<glyph unicode="&#xf7;" d="M123 717q0 39 43 39h952q45 0 45 -39q0 -17 -13 -27t-32 -10h-952q-43 0 -43 37zM574.5 391q14.5 40 50 50.5t67.5 -19.5q34 -28 19.5 -67.5t-50.5 -50t-69 17.5q-32 29 -17.5 69zM574.5 1081q14.5 39 50 48.5t67.5 -17.5q34 -28 19.5 -67.5t-50.5 -50t-69 17.5 q-32 30 -17.5 69z" />
<glyph unicode="&#xf8;" horiz-adv-x="1206" d="M184 68l86 100q-62 95 -65 219q-9 143 0 287q6 177 125 284q120 111 303 111q190 0 311 -121l78 90q15 19 41.5 13.5t26.5 -31.5q0 -11 -11 -29l-88 -102q62 -95 68 -215q6 -144 0 -287q-9 -177 -129 -291t-297 -114q-196 0 -316 129l-75 -88q-29 -32 -56 -11 q-30 21 -2 56zM281 512q0 -196 43 -281l569 660q-94 102 -260 102q-151 0 -245.5 -85.5t-102.5 -223.5q-4 -118 -4 -172zM367 168q99 -111 266 -111q147 0 240.5 87t105.5 231q6 55 6 141q0 222 -47 311z" />
<glyph unicode="&#xf9;" horiz-adv-x="1269" d="M203 375v641q0 24 19 34t38 0t19 -34v-641q0 -146 93 -232t244 -86q197 0 351 109v848q0 41 37 41q17 0 27.5 -11.5t10.5 -29.5v-858q0 -36 -26 -50q-71 -44 -88 -53q-42 -21 -123 -45q-85 -26 -184 -26q-183 0 -302 104q-116 104 -116 289zM479 1389q0 16 11 26t26 10 q13 0 25 -6l276 -141q25 -12 25 -37q0 -16 -11.5 -26.5t-25.5 -10.5q-13 0 -25 6l-276 142q-25 12 -25 37z" />
<glyph unicode="&#xfa;" horiz-adv-x="1269" d="M203 375v641q0 24 19 34t38 0t19 -34v-641q0 -146 93 -232t244 -86q197 0 351 109v848q0 41 37 41q17 0 27.5 -11.5t10.5 -29.5v-858q0 -36 -26 -50q-71 -44 -88 -53q-42 -21 -123 -45q-85 -26 -184 -26q-183 0 -302 104q-116 104 -116 289zM428 1241q0 25 25 37l276 141 q12 6 25 6q15 0 26 -10t11 -26q0 -25 -25 -37l-277 -142q-12 -6 -24 -6q-14 0 -25.5 10.5t-11.5 26.5z" />
<glyph unicode="&#xfb;" horiz-adv-x="1269" d="M203 375v641q0 24 19 34t38 0t19 -34v-641q0 -146 93 -232t244 -86q197 0 351 109v848q0 41 37 41q17 0 27.5 -11.5t10.5 -29.5v-858q0 -36 -26 -50q-71 -44 -88 -53q-42 -21 -123 -45q-85 -26 -184 -26q-183 0 -302 104q-116 104 -116 289zM408 1243q0 21 16 31l166 123 q49 37 98 0l166 -123q16 -10 16 -31q0 -17 -11 -28t-28 -11q-13 0 -26 8l-166 123l-166 -123q-13 -8 -27 -8q-17 0 -27.5 11t-10.5 28z" />
<glyph unicode="&#xfc;" horiz-adv-x="1269" d="M203 375v641q0 24 19 34t38 0t19 -34v-641q0 -146 93 -232t244 -86q197 0 351 109v848q0 41 37 41q17 0 27.5 -11.5t10.5 -29.5v-858q0 -36 -26 -50q-71 -44 -88 -53q-42 -21 -123 -45q-85 -26 -184 -26q-183 0 -302 104q-116 104 -116 289zM430 1294q0 25 17 42.5 t42 17.5q26 0 44 -17.5t18 -42.5q0 -26 -18 -43.5t-44 -17.5q-25 0 -42 17.5t-17 43.5zM719 1294q0 25 17.5 42.5t43.5 17.5q25 0 42.5 -17.5t17.5 -42.5q0 -26 -17.5 -43.5t-42.5 -17.5q-26 0 -43.5 17.5t-17.5 43.5z" />
<glyph unicode="&#xfd;" horiz-adv-x="1007" d="M74 995q-8 21 2 38.5t30 17.5q27 0 39 -27l375 -844q6 -12 12 -12q5 0 11 12l342 842q16 29 37 29q18 0 28 -16t4 -34l-389 -970q-54 -136 -135 -242q-81 -109 -160 -154q-24 -12 -43 -12q-14 0 -25.5 10t-11.5 27q0 22 25 35q174 85 279 364zM414 1243q0 25 24 37 l277 141q12 6 24 6q15 0 26 -10t11 -26q0 -25 -24 -37l-277 -142q-12 -6 -24 -6q-14 0 -25.5 10.5t-11.5 26.5z" />
<glyph unicode="&#xfe;" horiz-adv-x="1232" d="M221 -350v1753q0 43 39 43q17 0 27 -12t10 -31v-422q183 80 342 80q185 0 290 -101t122 -294q12 -144 0 -289q-17 -193 -122 -294t-290 -101q-162 0 -342 79v-411q0 -19 -10 -31t-27 -12q-39 0 -39 43zM297 143q59 -34 152 -59q99 -27 192 -27q309 0 330 305 q15 179 0 318q-21 305 -330 305q-86 0 -192 -29q-100 -27 -152 -57v-756z" />
<glyph unicode="&#xff;" horiz-adv-x="1007" d="M74 995q-8 21 2 38.5t30 17.5q27 0 39 -27l375 -844q6 -12 12 -12q5 0 11 12l342 842q16 29 37 29q18 0 28 -16t4 -34l-389 -970q-54 -136 -135 -242q-81 -109 -160 -154q-24 -12 -43 -12q-14 0 -25.5 10t-11.5 27q0 22 25 35q174 85 279 364zM315 1294q0 25 17.5 42.5 t42.5 17.5q26 0 43.5 -17.5t17.5 -42.5q0 -26 -17.5 -43.5t-43.5 -17.5q-25 0 -42.5 17.5t-17.5 43.5zM604 1294q0 25 18 42.5t44 17.5q25 0 42 -17.5t17 -42.5q0 -26 -17 -43.5t-42 -17.5q-26 0 -44 17.5t-18 43.5z" />
<glyph unicode="&#x152;" horiz-adv-x="2136" d="M168 600q-3 104 0 211q9 284 172 459q164 176 463 176q41 0 87.5 -2t85.5 -5l71.5 -5.5t52.5 -4.5t22 -2h813q39 0 39 -38q0 -14 -11 -25.5t-28 -11.5h-751v-594h735q17 0 28 -11.5t11 -25.5q0 -17 -11 -28t-28 -11h-735v-606h755q23 0 33 -19t0.5 -38t-33.5 -19h-817 q-1 0 -21 -1.5t-52.5 -4t-71.5 -5t-86.5 -4t-89.5 -1.5q-303 0 -461 168q-160 171 -172 448zM244 584q12 -247 155 -386t404 -139q149 0 305 21v1272q-159 18 -305 18q-258 0 -402.5 -146.5t-156.5 -398.5q-6 -121 0 -241z" />
<glyph unicode="&#x153;" horiz-adv-x="1957" d="M184 387q-6 143 0 287q6 177 125 284q120 111 303 111q137 0 242 -65.5t152 -180.5q49 117 152.5 181.5t240.5 64.5q184 0 299 -121q114 -120 114 -301v-55q0 -100 -106 -100h-666v-56q0 -177 99 -278t266 -101q138 0 283 62q12 4 20 4q16 0 26.5 -11.5t10.5 -25.5 q0 -24 -25 -37q-51 -26 -145 -47q-87 -20 -166 -20q-306 0 -405 251q-50 -116 -154 -183.5t-238 -67.5q-181 0 -301 114q-121 115 -127 291zM264 375q12 -143 106.5 -230.5t241.5 -87.5t240.5 87t105.5 231q12 133 0 309q-8 138 -101.5 223.5t-244.5 85.5t-245.5 -85.5 t-102.5 -223.5q-9 -184 0 -309zM1040 567h664q30 0 33 33q7 182 -84.5 287.5t-253.5 105.5q-179 0 -271.5 -110.5t-87.5 -315.5z" />
<glyph unicode="&#x178;" horiz-adv-x="1302" d="M46.5 1416.5q9.5 21.5 33.5 21.5q19 0 29 -13l542 -675l543 675q9 15 29 15q17 0 28 -11.5t11 -25.5q0 -9 -11 -27l-526 -651q-35 -47 -35 -92v-602q0 -17 -11 -28t-28 -11q-14 0 -25.5 11t-11.5 28v602q0 47 -39 92l-524 653q-14 17 -4.5 38.5zM446 1522q0 25 17.5 42 t42.5 17q26 0 43.5 -17t17.5 -42q0 -26 -17.5 -44t-43.5 -18q-25 0 -42.5 18t-17.5 44zM735 1522q0 25 18 42t44 17q25 0 42 -17t17 -42q0 -26 -17 -44t-42 -18q-26 0 -44 18t-18 44z" />
<glyph unicode="&#x2c6;" horiz-adv-x="659" d="M96 1575q0 21 17 31l166 123q49 37 98 0l166 -123q16 -10 16 -31q0 -17 -11 -28t-28 -11q-13 0 -26 8l-166 123l-166 -123q-13 -8 -27 -8q-17 0 -28 11t-11 28z" />
<glyph unicode="&#x2dc;" horiz-adv-x="659" d="M84 1604q0 18 16 34q65 56 133 56q53 0 115 -39q64 -37 94 -37q27 0 62 24q36 25 51 25q14 0 25.5 -11t11.5 -24q0 -23 -23 -39q-74 -51 -129 -51q-51 0 -118 37q-62 39 -91 39q-25 0 -59 -27q-34 -24 -49 -24q-18 0 -28.5 11t-10.5 26z" />
<glyph unicode="&#x2000;" horiz-adv-x="938" />
<glyph unicode="&#x2001;" horiz-adv-x="1876" />
<glyph unicode="&#x2002;" horiz-adv-x="938" />
<glyph unicode="&#x2003;" horiz-adv-x="1876" />
<glyph unicode="&#x2004;" horiz-adv-x="625" />
<glyph unicode="&#x2005;" horiz-adv-x="469" />
<glyph unicode="&#x2006;" horiz-adv-x="312" />
<glyph unicode="&#x2007;" horiz-adv-x="312" />
<glyph unicode="&#x2008;" horiz-adv-x="234" />
<glyph unicode="&#x2009;" horiz-adv-x="375" />
<glyph unicode="&#x200a;" horiz-adv-x="104" />
<glyph unicode="&#x2010;" horiz-adv-x="716" d="M133 586q0 39 41 39h369q17 0 29 -11.5t12 -25.5q0 -17 -12 -28t-29 -11h-369q-17 0 -29 11.5t-12 25.5z" />
<glyph unicode="&#x2011;" horiz-adv-x="716" d="M133 586q0 39 41 39h369q17 0 29 -11.5t12 -25.5q0 -17 -12 -28t-29 -11h-369q-17 0 -29 11.5t-12 25.5z" />
<glyph unicode="&#x2012;" horiz-adv-x="716" d="M133 586q0 39 41 39h369q17 0 29 -11.5t12 -25.5q0 -17 -12 -28t-29 -11h-369q-17 0 -29 11.5t-12 25.5z" />
<glyph unicode="&#x2013;" horiz-adv-x="1245" d="M121 584q0 39 41 39h921q17 0 29 -11t12 -28q0 -14 -12 -25.5t-29 -11.5h-921q-17 0 -29 11.5t-12 25.5z" />
<glyph unicode="&#x2014;" horiz-adv-x="1990" d="M121 584q0 39 41 39h1667q17 0 29 -11t12 -28q0 -14 -12 -25.5t-29 -11.5h-1667q-17 0 -29 11.5t-12 25.5z" />
<glyph unicode="&#x2018;" horiz-adv-x="407" d="M150 1083v119q0 107 69 207q15 21 35 21q16 0 26.5 -11.5t10.5 -25.5q0 -12 -8 -25q-37 -54 -47.5 -86.5t-10.5 -89.5v-109q0 -24 -18.5 -34t-37.5 0t-19 34z" />
<glyph unicode="&#x2019;" horiz-adv-x="407" d="M135 1081q0 12 8 25q37 54 47.5 86.5t10.5 89.5v109q0 24 18.5 34t37.5 0t19 -34v-119q0 -107 -69 -207q-15 -21 -35 -21q-16 0 -26.5 11.5t-10.5 25.5z" />
<glyph unicode="&#x201a;" horiz-adv-x="407" d="M113 -154q0 12 8 25q36 53 46.5 85.5t10.5 90.5v109q0 24 19 34t38 0t19 -34v-119q0 -106 -70 -207q-14 -20 -34 -20q-16 0 -26.5 11t-10.5 25z" />
<glyph unicode="&#x201c;" horiz-adv-x="604" d="M139 1085v119q0 106 70 207q15 21 35 21q16 0 26.5 -11.5t10.5 -25.5q0 -10 -9 -25q-36 -53 -46.5 -85.5t-10.5 -90.5v-109q0 -24 -19 -34t-38 0t-19 34zM356 1085v119q0 106 70 207q15 21 35 21q16 0 26.5 -11.5t10.5 -25.5q0 -10 -9 -25q-36 -53 -46.5 -85.5 t-10.5 -90.5v-109q0 -24 -19 -34t-38 0t-19 34z" />
<glyph unicode="&#x201d;" horiz-adv-x="604" d="M139 1085q0 12 8 25q37 54 47.5 86.5t10.5 89.5v109q0 24 19 34t38 0t19 -34v-119q0 -106 -70 -207q-14 -20 -35 -20q-16 0 -26.5 11t-10.5 25zM356 1085q0 10 9 25q36 53 46.5 85.5t10.5 90.5v109q0 24 19 34t38 0t19 -34v-119q0 -106 -70 -207q-14 -20 -35 -20 q-17 0 -27 11t-10 25z" />
<glyph unicode="&#x201e;" horiz-adv-x="604" d="M139 -154q0 12 8 25q37 54 47.5 86.5t10.5 89.5v109q0 24 19 34t38 0t19 -34v-119q0 -106 -70 -207q-14 -20 -35 -20q-16 0 -26.5 11t-10.5 25zM356 -154q0 10 9 25q36 53 46.5 85.5t10.5 90.5v109q0 24 19 34t38 0t19 -34v-119q0 -106 -70 -207q-14 -20 -35 -20 q-17 0 -27 11t-10 25z" />
<glyph unicode="&#x2022;" horiz-adv-x="966" d="M225 717q0 106 76 182t182 76q107 0 183 -76q75 -75 75 -182t-75 -182q-76 -76 -183 -76q-106 0 -182 76t-76 182z" />
<glyph unicode="&#x2026;" horiz-adv-x="1239" d="M168 16v217q0 24 19 34t38 0t19 -34v-217q0 -24 -19 -34t-38 0t-19 34zM584 16v217q0 24 19 34t37.5 0t18.5 -34v-217q0 -24 -18.5 -34t-37.5 0t-19 34zM995 16v217q0 24 19 34t38 0t19 -34v-217q0 -24 -19 -34t-38 0t-19 34z" />
<glyph unicode="&#x202f;" horiz-adv-x="375" />
<glyph unicode="&#x2039;" horiz-adv-x="729" d="M172 606q-121 102 0 205l266 238q17 10 27 10q13 0 25 -11.5t12 -25.5q0 -19 -17 -33l-258 -231q-37 -35 -37 -49.5t37 -49.5l258 -231q17 -14 17 -33q0 -13 -12 -25t-25 -12q-9 0 -27 11z" />
<glyph unicode="&#x203a;" horiz-adv-x="729" d="M227 395q0 19 17 33l258 231q37 35 37 49.5t-37 49.5l-258 231q-17 14 -17 33q0 14 11.5 25.5t25.5 11.5q10 0 27 -10l266 -238q121 -103 0 -205l-266 -237q-18 -11 -27 -11q-14 0 -25.5 12t-11.5 25z" />
<glyph unicode="&#x205f;" horiz-adv-x="469" />
<glyph unicode="&#x20ac;" horiz-adv-x="1337" d="M125 612q0 39 41 39h125v133h-125q-17 0 -29 11.5t-12 25.5q0 39 41 39h125q0 250 141 420t387 170q247 0 412 -160q12 -12 12 -30q0 -14 -10.5 -24.5t-24.5 -10.5q-16 0 -32 16q-78 74 -157 103.5t-200 29.5q-211 0 -332 -145q-118 -142 -118 -369h465q17 0 28.5 -11 t11.5 -28q0 -37 -40 -37h-465v-133h465q17 0 28.5 -11t11.5 -28q0 -37 -40 -37h-465q0 -223 118 -368q122 -146 332 -146q121 0 199.5 30t157.5 104q16 16 32 16q14 0 24.5 -10.5t10.5 -24.5q0 -19 -12 -31q-163 -159 -412 -159q-246 0 -387 170q-141 169 -141 419h-125 q-17 0 -29 11.5t-12 25.5z" />
<glyph unicode="&#x2122;" horiz-adv-x="1202" d="M102 1409q0 27 29 27h332q29 0 29 -27q0 -29 -29 -29h-137v-403q0 -29 -27 -29q-29 0 -29 29v403h-139q-29 0 -29 29zM532 985l60 401q6 54 59 54q48 0 60 -49l88 -377q0 -6 6 -6q8 0 8 6l86 377q9 49 59 49q51 0 60 -54l59 -399q3 -37 -28 -37q-24 0 -27 23l-55 403 q-3 8 -9 8q-2 0 -8 -6l-88 -372q-12 -52 -57 -52t-57 52l-91 372q0 6 -6 6q-8 0 -8 -8l-55 -403q-3 -23 -27 -23q-32 0 -29 35z" />
<glyph unicode="&#x25fc;" horiz-adv-x="1054" d="M0 0v1055h1055v-1055h-1055z" />
<glyph unicode="&#xfb02;" horiz-adv-x="1253" d="M104 993q0 17 12 28t29 11h93v113q0 147 70.5 228t213.5 81q97 0 158 -20q35 -9 35 -39q0 -13 -10.5 -24t-28.5 -11q-2 0 -27 4.5t-61.5 9t-65.5 4.5q-209 0 -209 -233v-113h328q25 0 35.5 -19t0 -38t-35.5 -19h-328v-923q0 -17 -11 -29t-28 -12q-14 0 -25 12t-11 29v923 h-93q-41 0 -41 37zM956 33v1370q0 41 37 41q39 0 39 -41v-1370q0 -41 -37 -41q-17 0 -28 12t-11 29z" />
</font>
</defs>
</svg>
